%TF.GenerationSoftware,KiCad,Pcbnew,8.0.0*%
%TF.CreationDate,2024-08-13T08:30:54+02:00*%
%TF.ProjectId,logic_noise_playground,6c6f6769-635f-46e6-9f69-73655f706c61,rev?*%
%TF.SameCoordinates,Original*%
%TF.FileFunction,Drillmap*%
%TF.FilePolarity,Positive*%
%FSLAX45Y45*%
G04 Gerber Fmt 4.5, Leading zero omitted, Abs format (unit mm)*
G04 Created by KiCad (PCBNEW 8.0.0) date 2024-08-13 08:30:54*
%MOMM*%
%LPD*%
G01*
G04 APERTURE LIST*
%ADD10C,0.100000*%
%ADD11C,0.010000*%
%ADD12C,0.200000*%
%ADD13C,0.101600*%
%ADD14C,0.109220*%
%ADD15C,0.120000*%
%ADD16C,0.304800*%
%ADD17C,0.332000*%
G04 APERTURE END LIST*
D10*
X23504000Y-14139000D02*
X23500000Y-15000000D01*
X3500000Y-5000000D02*
X3500000Y-15000000D01*
X23500000Y-5000000D02*
X3500000Y-5000000D01*
X3500000Y-15000000D02*
X23500000Y-15000000D01*
X23504000Y-12939000D02*
X23500000Y-5000000D01*
D11*
X23384000Y-13339000D02*
X23504000Y-13339000D01*
X23384000Y-13739000D02*
X23384000Y-13339000D01*
D10*
X23504000Y-13339000D02*
X23504000Y-12939000D01*
D11*
X23504000Y-13739000D02*
X23384000Y-13739000D01*
D10*
X23504000Y-14139000D02*
X23504000Y-13739000D01*
D12*
D10*
X13950000Y-11664000D02*
X13990000Y-11704000D01*
X13990000Y-11664000D02*
X13950000Y-11704000D01*
X15601000Y-10140000D02*
X15641000Y-10180000D01*
X15641000Y-10140000D02*
X15601000Y-10180000D01*
X15855000Y-9378000D02*
X15895000Y-9418000D01*
X15895000Y-9378000D02*
X15855000Y-9418000D01*
X22594000Y-13039000D02*
G75*
G02*
X22514000Y-13039000I-40000J0D01*
G01*
X22514000Y-13039000D02*
G75*
G02*
X22594000Y-13039000I40000J0D01*
G01*
X22589000Y-12999000D02*
X22519000Y-12999000D01*
X22519000Y-13079000D02*
G75*
G02*
X22519000Y-12999000I0J40000D01*
G01*
X22519000Y-13079000D02*
X22589000Y-13079000D01*
X22589000Y-13079000D02*
G75*
G03*
X22589000Y-12999000I0J40000D01*
G01*
X22594000Y-13289000D02*
G75*
G02*
X22514000Y-13289000I-40000J0D01*
G01*
X22514000Y-13289000D02*
G75*
G02*
X22594000Y-13289000I40000J0D01*
G01*
X22589000Y-13249000D02*
X22519000Y-13249000D01*
X22519000Y-13329000D02*
G75*
G02*
X22519000Y-13249000I0J40000D01*
G01*
X22519000Y-13329000D02*
X22589000Y-13329000D01*
X22589000Y-13329000D02*
G75*
G03*
X22589000Y-13249000I0J40000D01*
G01*
X22594000Y-14039000D02*
G75*
G02*
X22514000Y-14039000I-40000J0D01*
G01*
X22514000Y-14039000D02*
G75*
G02*
X22594000Y-14039000I40000J0D01*
G01*
X22589000Y-13999000D02*
X22519000Y-13999000D01*
X22519000Y-14079000D02*
G75*
G02*
X22519000Y-13999000I0J40000D01*
G01*
X22519000Y-14079000D02*
X22589000Y-14079000D01*
X22589000Y-14079000D02*
G75*
G03*
X22589000Y-13999000I0J40000D01*
G01*
X23094000Y-13539000D02*
G75*
G02*
X23014000Y-13539000I-40000J0D01*
G01*
X23014000Y-13539000D02*
G75*
G02*
X23094000Y-13539000I40000J0D01*
G01*
X23094000Y-13574000D02*
X23094000Y-13504000D01*
X23014000Y-13504000D02*
G75*
G02*
X23094000Y-13504000I40000J0D01*
G01*
X23014000Y-13504000D02*
X23014000Y-13574000D01*
X23014000Y-13574000D02*
G75*
G03*
X23094000Y-13574000I40000J0D01*
G01*
X4318000Y-9865360D02*
X4318000Y-9946640D01*
X4277360Y-9906000D02*
X4358640Y-9906000D01*
X4318000Y-10119360D02*
X4318000Y-10200640D01*
X4277360Y-10160000D02*
X4358640Y-10160000D01*
X4953000Y-9865360D02*
X4953000Y-9946640D01*
X4912360Y-9906000D02*
X4993640Y-9906000D01*
X4953000Y-10119360D02*
X4953000Y-10200640D01*
X4912360Y-10160000D02*
X4993640Y-10160000D01*
X5588000Y-9611360D02*
X5588000Y-9692640D01*
X5547360Y-9652000D02*
X5628640Y-9652000D01*
X5588000Y-10373360D02*
X5588000Y-10454640D01*
X5547360Y-10414000D02*
X5628640Y-10414000D01*
X5842000Y-9611360D02*
X5842000Y-9692640D01*
X5801360Y-9652000D02*
X5882640Y-9652000D01*
X5842000Y-10373360D02*
X5842000Y-10454640D01*
X5801360Y-10414000D02*
X5882640Y-10414000D01*
X5842000Y-10627360D02*
X5842000Y-10708640D01*
X5801360Y-10668000D02*
X5882640Y-10668000D01*
X5842000Y-10881360D02*
X5842000Y-10962640D01*
X5801360Y-10922000D02*
X5882640Y-10922000D01*
X5842000Y-11135360D02*
X5842000Y-11216640D01*
X5801360Y-11176000D02*
X5882640Y-11176000D01*
X6096000Y-8849360D02*
X6096000Y-8930640D01*
X6055360Y-8890000D02*
X6136640Y-8890000D01*
X6096000Y-9103360D02*
X6096000Y-9184640D01*
X6055360Y-9144000D02*
X6136640Y-9144000D01*
X6096000Y-9357360D02*
X6096000Y-9438640D01*
X6055360Y-9398000D02*
X6136640Y-9398000D01*
X6096000Y-9611360D02*
X6096000Y-9692640D01*
X6055360Y-9652000D02*
X6136640Y-9652000D01*
X6096000Y-10373360D02*
X6096000Y-10454640D01*
X6055360Y-10414000D02*
X6136640Y-10414000D01*
X6350000Y-9611360D02*
X6350000Y-9692640D01*
X6309360Y-9652000D02*
X6390640Y-9652000D01*
X6350000Y-10373360D02*
X6350000Y-10454640D01*
X6309360Y-10414000D02*
X6390640Y-10414000D01*
X6350000Y-10627360D02*
X6350000Y-10708640D01*
X6309360Y-10668000D02*
X6390640Y-10668000D01*
X6350000Y-10881360D02*
X6350000Y-10962640D01*
X6309360Y-10922000D02*
X6390640Y-10922000D01*
X6350000Y-11135360D02*
X6350000Y-11216640D01*
X6309360Y-11176000D02*
X6390640Y-11176000D01*
X6604000Y-7325360D02*
X6604000Y-7406640D01*
X6563360Y-7366000D02*
X6644640Y-7366000D01*
X6604000Y-7579360D02*
X6604000Y-7660640D01*
X6563360Y-7620000D02*
X6644640Y-7620000D01*
X6604000Y-7833360D02*
X6604000Y-7914640D01*
X6563360Y-7874000D02*
X6644640Y-7874000D01*
X6604000Y-8849360D02*
X6604000Y-8930640D01*
X6563360Y-8890000D02*
X6644640Y-8890000D01*
X6604000Y-9103360D02*
X6604000Y-9184640D01*
X6563360Y-9144000D02*
X6644640Y-9144000D01*
X6604000Y-9357360D02*
X6604000Y-9438640D01*
X6563360Y-9398000D02*
X6644640Y-9398000D01*
X6604000Y-9611360D02*
X6604000Y-9692640D01*
X6563360Y-9652000D02*
X6644640Y-9652000D01*
X6604000Y-10373360D02*
X6604000Y-10454640D01*
X6563360Y-10414000D02*
X6644640Y-10414000D01*
X6604000Y-12151360D02*
X6604000Y-12232640D01*
X6563360Y-12192000D02*
X6644640Y-12192000D01*
X6604000Y-12405360D02*
X6604000Y-12486640D01*
X6563360Y-12446000D02*
X6644640Y-12446000D01*
X6604000Y-12659360D02*
X6604000Y-12740640D01*
X6563360Y-12700000D02*
X6644640Y-12700000D01*
X6858000Y-9611360D02*
X6858000Y-9692640D01*
X6817360Y-9652000D02*
X6898640Y-9652000D01*
X6858000Y-10373360D02*
X6858000Y-10454640D01*
X6817360Y-10414000D02*
X6898640Y-10414000D01*
X6858000Y-10627360D02*
X6858000Y-10708640D01*
X6817360Y-10668000D02*
X6898640Y-10668000D01*
X6858000Y-10881360D02*
X6858000Y-10962640D01*
X6817360Y-10922000D02*
X6898640Y-10922000D01*
X6858000Y-11135360D02*
X6858000Y-11216640D01*
X6817360Y-11176000D02*
X6898640Y-11176000D01*
X7112000Y-8849360D02*
X7112000Y-8930640D01*
X7071360Y-8890000D02*
X7152640Y-8890000D01*
X7112000Y-9103360D02*
X7112000Y-9184640D01*
X7071360Y-9144000D02*
X7152640Y-9144000D01*
X7112000Y-9357360D02*
X7112000Y-9438640D01*
X7071360Y-9398000D02*
X7152640Y-9398000D01*
X7112000Y-9611360D02*
X7112000Y-9692640D01*
X7071360Y-9652000D02*
X7152640Y-9652000D01*
X7112000Y-10373360D02*
X7112000Y-10454640D01*
X7071360Y-10414000D02*
X7152640Y-10414000D01*
X7620000Y-7325360D02*
X7620000Y-7406640D01*
X7579360Y-7366000D02*
X7660640Y-7366000D01*
X7620000Y-7579360D02*
X7620000Y-7660640D01*
X7579360Y-7620000D02*
X7660640Y-7620000D01*
X7620000Y-7833360D02*
X7620000Y-7914640D01*
X7579360Y-7874000D02*
X7660640Y-7874000D01*
X7620000Y-12151360D02*
X7620000Y-12232640D01*
X7579360Y-12192000D02*
X7660640Y-12192000D01*
X7620000Y-12405360D02*
X7620000Y-12486640D01*
X7579360Y-12446000D02*
X7660640Y-12446000D01*
X7620000Y-12659360D02*
X7620000Y-12740640D01*
X7579360Y-12700000D02*
X7660640Y-12700000D01*
X8890000Y-5293360D02*
X8890000Y-5374640D01*
X8849360Y-5334000D02*
X8930640Y-5334000D01*
X8890000Y-6309360D02*
X8890000Y-6390640D01*
X8849360Y-6350000D02*
X8930640Y-6350000D01*
X8890000Y-11008360D02*
X8890000Y-11089640D01*
X8849360Y-11049000D02*
X8930640Y-11049000D01*
X8890000Y-11262360D02*
X8890000Y-11343640D01*
X8849360Y-11303000D02*
X8930640Y-11303000D01*
X9271000Y-14437360D02*
X9271000Y-14518640D01*
X9230360Y-14478000D02*
X9311640Y-14478000D01*
X9398000Y-6563360D02*
X9398000Y-6644640D01*
X9357360Y-6604000D02*
X9438640Y-6604000D01*
X9398000Y-6817360D02*
X9398000Y-6898640D01*
X9357360Y-6858000D02*
X9438640Y-6858000D01*
X9525000Y-12913360D02*
X9525000Y-12994640D01*
X9484360Y-12954000D02*
X9565640Y-12954000D01*
X9525000Y-13167360D02*
X9525000Y-13248640D01*
X9484360Y-13208000D02*
X9565640Y-13208000D01*
X9906000Y-6309360D02*
X9906000Y-6390640D01*
X9865360Y-6350000D02*
X9946640Y-6350000D01*
X9906000Y-7071360D02*
X9906000Y-7152640D01*
X9865360Y-7112000D02*
X9946640Y-7112000D01*
X9906000Y-9103360D02*
X9906000Y-9184640D01*
X9865360Y-9144000D02*
X9946640Y-9144000D01*
X9906000Y-9865360D02*
X9906000Y-9946640D01*
X9865360Y-9906000D02*
X9946640Y-9906000D01*
X9906000Y-11008360D02*
X9906000Y-11089640D01*
X9865360Y-11049000D02*
X9946640Y-11049000D01*
X9906000Y-11262360D02*
X9906000Y-11343640D01*
X9865360Y-11303000D02*
X9946640Y-11303000D01*
X10033000Y-8468360D02*
X10033000Y-8549640D01*
X9992360Y-8509000D02*
X10073640Y-8509000D01*
X10033000Y-12659360D02*
X10033000Y-12740640D01*
X9992360Y-12700000D02*
X10073640Y-12700000D01*
X10033000Y-13421360D02*
X10033000Y-13502640D01*
X9992360Y-13462000D02*
X10073640Y-13462000D01*
X10160000Y-6309360D02*
X10160000Y-6390640D01*
X10119360Y-6350000D02*
X10200640Y-6350000D01*
X10160000Y-7071360D02*
X10160000Y-7152640D01*
X10119360Y-7112000D02*
X10200640Y-7112000D01*
X10160000Y-9103360D02*
X10160000Y-9184640D01*
X10119360Y-9144000D02*
X10200640Y-9144000D01*
X10160000Y-9865360D02*
X10160000Y-9946640D01*
X10119360Y-9906000D02*
X10200640Y-9906000D01*
X10287000Y-12659360D02*
X10287000Y-12740640D01*
X10246360Y-12700000D02*
X10327640Y-12700000D01*
X10287000Y-13421360D02*
X10287000Y-13502640D01*
X10246360Y-13462000D02*
X10327640Y-13462000D01*
X10287000Y-14437360D02*
X10287000Y-14518640D01*
X10246360Y-14478000D02*
X10327640Y-14478000D01*
X10414000Y-6309360D02*
X10414000Y-6390640D01*
X10373360Y-6350000D02*
X10454640Y-6350000D01*
X10414000Y-7071360D02*
X10414000Y-7152640D01*
X10373360Y-7112000D02*
X10454640Y-7112000D01*
X10414000Y-9103360D02*
X10414000Y-9184640D01*
X10373360Y-9144000D02*
X10454640Y-9144000D01*
X10414000Y-9865360D02*
X10414000Y-9946640D01*
X10373360Y-9906000D02*
X10454640Y-9906000D01*
X10541000Y-11008360D02*
X10541000Y-11089640D01*
X10500360Y-11049000D02*
X10581640Y-11049000D01*
X10541000Y-11262360D02*
X10541000Y-11343640D01*
X10500360Y-11303000D02*
X10581640Y-11303000D01*
X10541000Y-12659360D02*
X10541000Y-12740640D01*
X10500360Y-12700000D02*
X10581640Y-12700000D01*
X10541000Y-13421360D02*
X10541000Y-13502640D01*
X10500360Y-13462000D02*
X10581640Y-13462000D01*
X10668000Y-6309360D02*
X10668000Y-6390640D01*
X10627360Y-6350000D02*
X10708640Y-6350000D01*
X10668000Y-7071360D02*
X10668000Y-7152640D01*
X10627360Y-7112000D02*
X10708640Y-7112000D01*
X10668000Y-9103360D02*
X10668000Y-9184640D01*
X10627360Y-9144000D02*
X10708640Y-9144000D01*
X10668000Y-9865360D02*
X10668000Y-9946640D01*
X10627360Y-9906000D02*
X10708640Y-9906000D01*
X10795000Y-12659360D02*
X10795000Y-12740640D01*
X10754360Y-12700000D02*
X10835640Y-12700000D01*
X10795000Y-13421360D02*
X10795000Y-13502640D01*
X10754360Y-13462000D02*
X10835640Y-13462000D01*
X10922000Y-6309360D02*
X10922000Y-6390640D01*
X10881360Y-6350000D02*
X10962640Y-6350000D01*
X10922000Y-7071360D02*
X10922000Y-7152640D01*
X10881360Y-7112000D02*
X10962640Y-7112000D01*
X10922000Y-9103360D02*
X10922000Y-9184640D01*
X10881360Y-9144000D02*
X10962640Y-9144000D01*
X10922000Y-9865360D02*
X10922000Y-9946640D01*
X10881360Y-9906000D02*
X10962640Y-9906000D01*
X11049000Y-8468360D02*
X11049000Y-8549640D01*
X11008360Y-8509000D02*
X11089640Y-8509000D01*
X11049000Y-12659360D02*
X11049000Y-12740640D01*
X11008360Y-12700000D02*
X11089640Y-12700000D01*
X11049000Y-13421360D02*
X11049000Y-13502640D01*
X11008360Y-13462000D02*
X11089640Y-13462000D01*
X11176000Y-6309360D02*
X11176000Y-6390640D01*
X11135360Y-6350000D02*
X11216640Y-6350000D01*
X11176000Y-7071360D02*
X11176000Y-7152640D01*
X11135360Y-7112000D02*
X11216640Y-7112000D01*
X11176000Y-9103360D02*
X11176000Y-9184640D01*
X11135360Y-9144000D02*
X11216640Y-9144000D01*
X11176000Y-9865360D02*
X11176000Y-9946640D01*
X11135360Y-9906000D02*
X11216640Y-9906000D01*
X11303000Y-12659360D02*
X11303000Y-12740640D01*
X11262360Y-12700000D02*
X11343640Y-12700000D01*
X11303000Y-13421360D02*
X11303000Y-13502640D01*
X11262360Y-13462000D02*
X11343640Y-13462000D01*
X11430000Y-5293360D02*
X11430000Y-5374640D01*
X11389360Y-5334000D02*
X11470640Y-5334000D01*
X11430000Y-6309360D02*
X11430000Y-6390640D01*
X11389360Y-6350000D02*
X11470640Y-6350000D01*
X11430000Y-7071360D02*
X11430000Y-7152640D01*
X11389360Y-7112000D02*
X11470640Y-7112000D01*
X11430000Y-8468360D02*
X11430000Y-8549640D01*
X11389360Y-8509000D02*
X11470640Y-8509000D01*
X11430000Y-9103360D02*
X11430000Y-9184640D01*
X11389360Y-9144000D02*
X11470640Y-9144000D01*
X11430000Y-9865360D02*
X11430000Y-9946640D01*
X11389360Y-9906000D02*
X11470640Y-9906000D01*
X11557000Y-11008360D02*
X11557000Y-11089640D01*
X11516360Y-11049000D02*
X11597640Y-11049000D01*
X11557000Y-11262360D02*
X11557000Y-11343640D01*
X11516360Y-11303000D02*
X11597640Y-11303000D01*
X11557000Y-12659360D02*
X11557000Y-12740640D01*
X11516360Y-12700000D02*
X11597640Y-12700000D01*
X11557000Y-13421360D02*
X11557000Y-13502640D01*
X11516360Y-13462000D02*
X11597640Y-13462000D01*
X11684000Y-6309360D02*
X11684000Y-6390640D01*
X11643360Y-6350000D02*
X11724640Y-6350000D01*
X11684000Y-7071360D02*
X11684000Y-7152640D01*
X11643360Y-7112000D02*
X11724640Y-7112000D01*
X11684000Y-9103360D02*
X11684000Y-9184640D01*
X11643360Y-9144000D02*
X11724640Y-9144000D01*
X11684000Y-9865360D02*
X11684000Y-9946640D01*
X11643360Y-9906000D02*
X11724640Y-9906000D01*
X11811000Y-12659360D02*
X11811000Y-12740640D01*
X11770360Y-12700000D02*
X11851640Y-12700000D01*
X11811000Y-13421360D02*
X11811000Y-13502640D01*
X11770360Y-13462000D02*
X11851640Y-13462000D01*
X12192000Y-9103360D02*
X12192000Y-9184640D01*
X12151360Y-9144000D02*
X12232640Y-9144000D01*
X12446000Y-5293360D02*
X12446000Y-5374640D01*
X12405360Y-5334000D02*
X12486640Y-5334000D01*
X12446000Y-8468360D02*
X12446000Y-8549640D01*
X12405360Y-8509000D02*
X12486640Y-8509000D01*
X12446000Y-9103360D02*
X12446000Y-9184640D01*
X12405360Y-9144000D02*
X12486640Y-9144000D01*
X12954000Y-5801360D02*
X12954000Y-5882640D01*
X12913360Y-5842000D02*
X12994640Y-5842000D01*
X12954000Y-6817360D02*
X12954000Y-6898640D01*
X12913360Y-6858000D02*
X12994640Y-6858000D01*
X13208000Y-5293360D02*
X13208000Y-5374640D01*
X13167360Y-5334000D02*
X13248640Y-5334000D01*
X13462000Y-13421360D02*
X13462000Y-13502640D01*
X13421360Y-13462000D02*
X13502640Y-13462000D01*
X13462000Y-13675360D02*
X13462000Y-13756640D01*
X13421360Y-13716000D02*
X13502640Y-13716000D01*
X13462000Y-13929360D02*
X13462000Y-14010640D01*
X13421360Y-13970000D02*
X13502640Y-13970000D01*
X13462000Y-14183360D02*
X13462000Y-14264640D01*
X13421360Y-14224000D02*
X13502640Y-14224000D01*
X13589000Y-10627360D02*
X13589000Y-10708640D01*
X13548360Y-10668000D02*
X13629640Y-10668000D01*
X13589000Y-10881360D02*
X13589000Y-10962640D01*
X13548360Y-10922000D02*
X13629640Y-10922000D01*
X13589000Y-11135360D02*
X13589000Y-11216640D01*
X13548360Y-11176000D02*
X13629640Y-11176000D01*
X13716000Y-5801360D02*
X13716000Y-5882640D01*
X13675360Y-5842000D02*
X13756640Y-5842000D01*
X13716000Y-6563360D02*
X13716000Y-6644640D01*
X13675360Y-6604000D02*
X13756640Y-6604000D01*
X13716000Y-7071360D02*
X13716000Y-7152640D01*
X13675360Y-7112000D02*
X13756640Y-7112000D01*
X13716000Y-7833360D02*
X13716000Y-7914640D01*
X13675360Y-7874000D02*
X13756640Y-7874000D01*
X13843000Y-9611360D02*
X13843000Y-9692640D01*
X13802360Y-9652000D02*
X13883640Y-9652000D01*
X13843000Y-9865360D02*
X13843000Y-9946640D01*
X13802360Y-9906000D02*
X13883640Y-9906000D01*
X13970000Y-12024360D02*
X13970000Y-12105640D01*
X13929360Y-12065000D02*
X14010640Y-12065000D01*
X13970000Y-12913360D02*
X13970000Y-12994640D01*
X13929360Y-12954000D02*
X14010640Y-12954000D01*
X14224000Y-5293360D02*
X14224000Y-5374640D01*
X14183360Y-5334000D02*
X14264640Y-5334000D01*
X14224000Y-5801360D02*
X14224000Y-5882640D01*
X14183360Y-5842000D02*
X14264640Y-5842000D01*
X14224000Y-6563360D02*
X14224000Y-6644640D01*
X14183360Y-6604000D02*
X14264640Y-6604000D01*
X14224000Y-7071360D02*
X14224000Y-7152640D01*
X14183360Y-7112000D02*
X14264640Y-7112000D01*
X14224000Y-7833360D02*
X14224000Y-7914640D01*
X14183360Y-7874000D02*
X14264640Y-7874000D01*
X14224000Y-12024360D02*
X14224000Y-12105640D01*
X14183360Y-12065000D02*
X14264640Y-12065000D01*
X14224000Y-12913360D02*
X14224000Y-12994640D01*
X14183360Y-12954000D02*
X14264640Y-12954000D01*
X14351000Y-9357360D02*
X14351000Y-9438640D01*
X14310360Y-9398000D02*
X14391640Y-9398000D01*
X14351000Y-10119360D02*
X14351000Y-10200640D01*
X14310360Y-10160000D02*
X14391640Y-10160000D01*
X14478000Y-12024360D02*
X14478000Y-12105640D01*
X14437360Y-12065000D02*
X14518640Y-12065000D01*
X14478000Y-12913360D02*
X14478000Y-12994640D01*
X14437360Y-12954000D02*
X14518640Y-12954000D01*
X14478000Y-13421360D02*
X14478000Y-13502640D01*
X14437360Y-13462000D02*
X14518640Y-13462000D01*
X14478000Y-13675360D02*
X14478000Y-13756640D01*
X14437360Y-13716000D02*
X14518640Y-13716000D01*
X14478000Y-13929360D02*
X14478000Y-14010640D01*
X14437360Y-13970000D02*
X14518640Y-13970000D01*
X14478000Y-14183360D02*
X14478000Y-14264640D01*
X14437360Y-14224000D02*
X14518640Y-14224000D01*
X14605000Y-9357360D02*
X14605000Y-9438640D01*
X14564360Y-9398000D02*
X14645640Y-9398000D01*
X14605000Y-10119360D02*
X14605000Y-10200640D01*
X14564360Y-10160000D02*
X14645640Y-10160000D01*
X14605000Y-10627360D02*
X14605000Y-10708640D01*
X14564360Y-10668000D02*
X14645640Y-10668000D01*
X14605000Y-10881360D02*
X14605000Y-10962640D01*
X14564360Y-10922000D02*
X14645640Y-10922000D01*
X14605000Y-11135360D02*
X14605000Y-11216640D01*
X14564360Y-11176000D02*
X14645640Y-11176000D01*
X14732000Y-12024360D02*
X14732000Y-12105640D01*
X14691360Y-12065000D02*
X14772640Y-12065000D01*
X14732000Y-12913360D02*
X14732000Y-12994640D01*
X14691360Y-12954000D02*
X14772640Y-12954000D01*
X14859000Y-9357360D02*
X14859000Y-9438640D01*
X14818360Y-9398000D02*
X14899640Y-9398000D01*
X14859000Y-10119360D02*
X14859000Y-10200640D01*
X14818360Y-10160000D02*
X14899640Y-10160000D01*
X14986000Y-12024360D02*
X14986000Y-12105640D01*
X14945360Y-12065000D02*
X15026640Y-12065000D01*
X14986000Y-12913360D02*
X14986000Y-12994640D01*
X14945360Y-12954000D02*
X15026640Y-12954000D01*
X15113000Y-9357360D02*
X15113000Y-9438640D01*
X15072360Y-9398000D02*
X15153640Y-9398000D01*
X15113000Y-10119360D02*
X15113000Y-10200640D01*
X15072360Y-10160000D02*
X15153640Y-10160000D01*
X15240000Y-12024360D02*
X15240000Y-12105640D01*
X15199360Y-12065000D02*
X15280640Y-12065000D01*
X15240000Y-12913360D02*
X15240000Y-12994640D01*
X15199360Y-12954000D02*
X15280640Y-12954000D01*
X15367000Y-9357360D02*
X15367000Y-9438640D01*
X15326360Y-9398000D02*
X15407640Y-9398000D01*
X15367000Y-10119360D02*
X15367000Y-10200640D01*
X15326360Y-10160000D02*
X15407640Y-10160000D01*
X15494000Y-12024360D02*
X15494000Y-12105640D01*
X15453360Y-12065000D02*
X15534640Y-12065000D01*
X15494000Y-12913360D02*
X15494000Y-12994640D01*
X15453360Y-12954000D02*
X15534640Y-12954000D01*
X15621000Y-9357360D02*
X15621000Y-9438640D01*
X15580360Y-9398000D02*
X15661640Y-9398000D01*
X15621000Y-10119360D02*
X15621000Y-10200640D01*
X15580360Y-10160000D02*
X15661640Y-10160000D01*
X15748000Y-12024360D02*
X15748000Y-12105640D01*
X15707360Y-12065000D02*
X15788640Y-12065000D01*
X15748000Y-12913360D02*
X15748000Y-12994640D01*
X15707360Y-12954000D02*
X15788640Y-12954000D01*
X15748000Y-13421360D02*
X15748000Y-13502640D01*
X15707360Y-13462000D02*
X15788640Y-13462000D01*
X15748000Y-14437360D02*
X15748000Y-14518640D01*
X15707360Y-14478000D02*
X15788640Y-14478000D01*
X15875000Y-9357360D02*
X15875000Y-9438640D01*
X15834360Y-9398000D02*
X15915640Y-9398000D01*
X15875000Y-10119360D02*
X15875000Y-10200640D01*
X15834360Y-10160000D02*
X15915640Y-10160000D01*
X16002000Y-12024360D02*
X16002000Y-12105640D01*
X15961360Y-12065000D02*
X16042640Y-12065000D01*
X16002000Y-12913360D02*
X16002000Y-12994640D01*
X15961360Y-12954000D02*
X16042640Y-12954000D01*
X16129000Y-9357360D02*
X16129000Y-9438640D01*
X16088360Y-9398000D02*
X16169640Y-9398000D01*
X16129000Y-10119360D02*
X16129000Y-10200640D01*
X16088360Y-10160000D02*
X16169640Y-10160000D01*
X16700500Y-5864860D02*
X16700500Y-5946140D01*
X16659860Y-5905500D02*
X16741140Y-5905500D01*
X16700500Y-6118860D02*
X16700500Y-6200140D01*
X16659860Y-6159500D02*
X16741140Y-6159500D01*
X16700500Y-6372860D02*
X16700500Y-6454140D01*
X16659860Y-6413500D02*
X16741140Y-6413500D01*
X16891000Y-12532360D02*
X16891000Y-12613640D01*
X16850360Y-12573000D02*
X16931640Y-12573000D01*
X16891000Y-12786360D02*
X16891000Y-12867640D01*
X16850360Y-12827000D02*
X16931640Y-12827000D01*
X16891000Y-13167360D02*
X16891000Y-13248640D01*
X16850360Y-13208000D02*
X16931640Y-13208000D01*
X17081500Y-6753860D02*
X17081500Y-6835140D01*
X17040860Y-6794500D02*
X17122140Y-6794500D01*
X17081500Y-7007860D02*
X17081500Y-7089140D01*
X17040860Y-7048500D02*
X17122140Y-7048500D01*
X17145000Y-13167360D02*
X17145000Y-13248640D01*
X17104360Y-13208000D02*
X17185640Y-13208000D01*
X17208500Y-7388860D02*
X17208500Y-7470140D01*
X17167860Y-7429500D02*
X17249140Y-7429500D01*
X17208500Y-7642860D02*
X17208500Y-7724140D01*
X17167860Y-7683500D02*
X17249140Y-7683500D01*
X17208500Y-7896860D02*
X17208500Y-7978140D01*
X17167860Y-7937500D02*
X17249140Y-7937500D01*
X17208500Y-8150860D02*
X17208500Y-8232140D01*
X17167860Y-8191500D02*
X17249140Y-8191500D01*
X17399000Y-9611360D02*
X17399000Y-9692640D01*
X17358360Y-9652000D02*
X17439640Y-9652000D01*
X17399000Y-10373360D02*
X17399000Y-10454640D01*
X17358360Y-10414000D02*
X17439640Y-10414000D01*
X17462500Y-5483860D02*
X17462500Y-5565140D01*
X17421860Y-5524500D02*
X17503140Y-5524500D01*
X17526000Y-13167360D02*
X17526000Y-13248640D01*
X17485360Y-13208000D02*
X17566640Y-13208000D01*
X17653000Y-9611360D02*
X17653000Y-9692640D01*
X17612360Y-9652000D02*
X17693640Y-9652000D01*
X17653000Y-10373360D02*
X17653000Y-10454640D01*
X17612360Y-10414000D02*
X17693640Y-10414000D01*
X17716500Y-5864860D02*
X17716500Y-5946140D01*
X17675860Y-5905500D02*
X17757140Y-5905500D01*
X17716500Y-6118860D02*
X17716500Y-6200140D01*
X17675860Y-6159500D02*
X17757140Y-6159500D01*
X17716500Y-6372860D02*
X17716500Y-6454140D01*
X17675860Y-6413500D02*
X17757140Y-6413500D01*
X17780000Y-13167360D02*
X17780000Y-13248640D01*
X17739360Y-13208000D02*
X17820640Y-13208000D01*
X17843500Y-6753860D02*
X17843500Y-6835140D01*
X17802860Y-6794500D02*
X17884140Y-6794500D01*
X17843500Y-7007860D02*
X17843500Y-7089140D01*
X17802860Y-7048500D02*
X17884140Y-7048500D01*
X17907000Y-9611360D02*
X17907000Y-9692640D01*
X17866360Y-9652000D02*
X17947640Y-9652000D01*
X17907000Y-10373360D02*
X17907000Y-10454640D01*
X17866360Y-10414000D02*
X17947640Y-10414000D01*
X17907000Y-11770360D02*
X17907000Y-11851640D01*
X17866360Y-11811000D02*
X17947640Y-11811000D01*
X17907000Y-12024360D02*
X17907000Y-12105640D01*
X17866360Y-12065000D02*
X17947640Y-12065000D01*
X17907000Y-12532360D02*
X17907000Y-12613640D01*
X17866360Y-12573000D02*
X17947640Y-12573000D01*
X17907000Y-12786360D02*
X17907000Y-12867640D01*
X17866360Y-12827000D02*
X17947640Y-12827000D01*
X18161000Y-9611360D02*
X18161000Y-9692640D01*
X18120360Y-9652000D02*
X18201640Y-9652000D01*
X18161000Y-10373360D02*
X18161000Y-10454640D01*
X18120360Y-10414000D02*
X18201640Y-10414000D01*
X18161000Y-12913360D02*
X18161000Y-12994640D01*
X18120360Y-12954000D02*
X18201640Y-12954000D01*
X18224500Y-7388860D02*
X18224500Y-7470140D01*
X18183860Y-7429500D02*
X18265140Y-7429500D01*
X18224500Y-7642860D02*
X18224500Y-7724140D01*
X18183860Y-7683500D02*
X18265140Y-7683500D01*
X18224500Y-7896860D02*
X18224500Y-7978140D01*
X18183860Y-7937500D02*
X18265140Y-7937500D01*
X18224500Y-8150860D02*
X18224500Y-8232140D01*
X18183860Y-8191500D02*
X18265140Y-8191500D01*
X18415000Y-9611360D02*
X18415000Y-9692640D01*
X18374360Y-9652000D02*
X18455640Y-9652000D01*
X18415000Y-10373360D02*
X18415000Y-10454640D01*
X18374360Y-10414000D02*
X18455640Y-10414000D01*
X18415000Y-11516360D02*
X18415000Y-11597640D01*
X18374360Y-11557000D02*
X18455640Y-11557000D01*
X18415000Y-12278360D02*
X18415000Y-12359640D01*
X18374360Y-12319000D02*
X18455640Y-12319000D01*
X18415000Y-12913360D02*
X18415000Y-12994640D01*
X18374360Y-12954000D02*
X18455640Y-12954000D01*
X18478500Y-5483860D02*
X18478500Y-5565140D01*
X18437860Y-5524500D02*
X18519140Y-5524500D01*
X18478500Y-5864860D02*
X18478500Y-5946140D01*
X18437860Y-5905500D02*
X18519140Y-5905500D01*
X18478500Y-6118860D02*
X18478500Y-6200140D01*
X18437860Y-6159500D02*
X18519140Y-6159500D01*
X18669000Y-9611360D02*
X18669000Y-9692640D01*
X18628360Y-9652000D02*
X18709640Y-9652000D01*
X18669000Y-10373360D02*
X18669000Y-10454640D01*
X18628360Y-10414000D02*
X18709640Y-10414000D01*
X18669000Y-11516360D02*
X18669000Y-11597640D01*
X18628360Y-11557000D02*
X18709640Y-11557000D01*
X18669000Y-12278360D02*
X18669000Y-12359640D01*
X18628360Y-12319000D02*
X18709640Y-12319000D01*
X18732500Y-7325360D02*
X18732500Y-7406640D01*
X18691860Y-7366000D02*
X18773140Y-7366000D01*
X18923000Y-9611360D02*
X18923000Y-9692640D01*
X18882360Y-9652000D02*
X18963640Y-9652000D01*
X18923000Y-10373360D02*
X18923000Y-10454640D01*
X18882360Y-10414000D02*
X18963640Y-10414000D01*
X18923000Y-11516360D02*
X18923000Y-11597640D01*
X18882360Y-11557000D02*
X18963640Y-11557000D01*
X18923000Y-12278360D02*
X18923000Y-12359640D01*
X18882360Y-12319000D02*
X18963640Y-12319000D01*
X18986500Y-7071360D02*
X18986500Y-7152640D01*
X18945860Y-7112000D02*
X19027140Y-7112000D01*
X18986500Y-7325360D02*
X18986500Y-7406640D01*
X18945860Y-7366000D02*
X19027140Y-7366000D01*
X19177000Y-11516360D02*
X19177000Y-11597640D01*
X19136360Y-11557000D02*
X19217640Y-11557000D01*
X19177000Y-12278360D02*
X19177000Y-12359640D01*
X19136360Y-12319000D02*
X19217640Y-12319000D01*
X19431000Y-9865360D02*
X19431000Y-9946640D01*
X19390360Y-9906000D02*
X19471640Y-9906000D01*
X19431000Y-10119360D02*
X19431000Y-10200640D01*
X19390360Y-10160000D02*
X19471640Y-10160000D01*
X19431000Y-11516360D02*
X19431000Y-11597640D01*
X19390360Y-11557000D02*
X19471640Y-11557000D01*
X19431000Y-12278360D02*
X19431000Y-12359640D01*
X19390360Y-12319000D02*
X19471640Y-12319000D01*
X19685000Y-11516360D02*
X19685000Y-11597640D01*
X19644360Y-11557000D02*
X19725640Y-11557000D01*
X19685000Y-12278360D02*
X19685000Y-12359640D01*
X19644360Y-12319000D02*
X19725640Y-12319000D01*
X19812000Y-6055360D02*
X19812000Y-6136640D01*
X19771360Y-6096000D02*
X19852640Y-6096000D01*
X19812000Y-6563360D02*
X19812000Y-6644640D01*
X19771360Y-6604000D02*
X19852640Y-6604000D01*
X19812000Y-7071360D02*
X19812000Y-7152640D01*
X19771360Y-7112000D02*
X19852640Y-7112000D01*
X19939000Y-11516360D02*
X19939000Y-11597640D01*
X19898360Y-11557000D02*
X19979640Y-11557000D01*
X19939000Y-12278360D02*
X19939000Y-12359640D01*
X19898360Y-12319000D02*
X19979640Y-12319000D01*
X20193000Y-5801360D02*
X20193000Y-5882640D01*
X20152360Y-5842000D02*
X20233640Y-5842000D01*
X20193000Y-6309360D02*
X20193000Y-6390640D01*
X20152360Y-6350000D02*
X20233640Y-6350000D01*
X20193000Y-6817360D02*
X20193000Y-6898640D01*
X20152360Y-6858000D02*
X20233640Y-6858000D01*
X20193000Y-13421360D02*
X20193000Y-13502640D01*
X20152360Y-13462000D02*
X20233640Y-13462000D01*
X20193000Y-13675360D02*
X20193000Y-13756640D01*
X20152360Y-13716000D02*
X20233640Y-13716000D01*
X20320000Y-8341360D02*
X20320000Y-8422640D01*
X20279360Y-8382000D02*
X20360640Y-8382000D01*
X20320000Y-8595360D02*
X20320000Y-8676640D01*
X20279360Y-8636000D02*
X20360640Y-8636000D01*
X20320000Y-8849360D02*
X20320000Y-8930640D01*
X20279360Y-8890000D02*
X20360640Y-8890000D01*
X20320000Y-9103360D02*
X20320000Y-9184640D01*
X20279360Y-9144000D02*
X20360640Y-9144000D01*
X20447000Y-5801360D02*
X20447000Y-5882640D01*
X20406360Y-5842000D02*
X20487640Y-5842000D01*
X20447000Y-6309360D02*
X20447000Y-6390640D01*
X20406360Y-6350000D02*
X20487640Y-6350000D01*
X20447000Y-6817360D02*
X20447000Y-6898640D01*
X20406360Y-6858000D02*
X20487640Y-6858000D01*
X20447000Y-10119360D02*
X20447000Y-10200640D01*
X20406360Y-10160000D02*
X20487640Y-10160000D01*
X20447000Y-10754360D02*
X20447000Y-10835640D01*
X20406360Y-10795000D02*
X20487640Y-10795000D01*
X20574000Y-13167360D02*
X20574000Y-13248640D01*
X20533360Y-13208000D02*
X20614640Y-13208000D01*
X20574000Y-14056360D02*
X20574000Y-14137640D01*
X20533360Y-14097000D02*
X20614640Y-14097000D01*
X20574000Y-14310360D02*
X20574000Y-14391640D01*
X20533360Y-14351000D02*
X20614640Y-14351000D01*
X20701000Y-10119360D02*
X20701000Y-10200640D01*
X20660360Y-10160000D02*
X20741640Y-10160000D01*
X20701000Y-10754360D02*
X20701000Y-10835640D01*
X20660360Y-10795000D02*
X20741640Y-10795000D01*
X20828000Y-6055360D02*
X20828000Y-6136640D01*
X20787360Y-6096000D02*
X20868640Y-6096000D01*
X20828000Y-6563360D02*
X20828000Y-6644640D01*
X20787360Y-6604000D02*
X20868640Y-6604000D01*
X20828000Y-7071360D02*
X20828000Y-7152640D01*
X20787360Y-7112000D02*
X20868640Y-7112000D01*
X20828000Y-13167360D02*
X20828000Y-13248640D01*
X20787360Y-13208000D02*
X20868640Y-13208000D01*
X20828000Y-14056360D02*
X20828000Y-14137640D01*
X20787360Y-14097000D02*
X20868640Y-14097000D01*
X20828000Y-14310360D02*
X20828000Y-14391640D01*
X20787360Y-14351000D02*
X20868640Y-14351000D01*
X21082000Y-5801360D02*
X21082000Y-5882640D01*
X21041360Y-5842000D02*
X21122640Y-5842000D01*
X21082000Y-6055360D02*
X21082000Y-6136640D01*
X21041360Y-6096000D02*
X21122640Y-6096000D01*
X21082000Y-6309360D02*
X21082000Y-6390640D01*
X21041360Y-6350000D02*
X21122640Y-6350000D01*
X21082000Y-6563360D02*
X21082000Y-6644640D01*
X21041360Y-6604000D02*
X21122640Y-6604000D01*
X21082000Y-6817360D02*
X21082000Y-6898640D01*
X21041360Y-6858000D02*
X21122640Y-6858000D01*
X21082000Y-7071360D02*
X21082000Y-7152640D01*
X21041360Y-7112000D02*
X21122640Y-7112000D01*
X21082000Y-7325360D02*
X21082000Y-7406640D01*
X21041360Y-7366000D02*
X21122640Y-7366000D01*
X21082000Y-9992360D02*
X21082000Y-10073640D01*
X21041360Y-10033000D02*
X21122640Y-10033000D01*
X21082000Y-11008360D02*
X21082000Y-11089640D01*
X21041360Y-11049000D02*
X21122640Y-11049000D01*
X21209000Y-13421360D02*
X21209000Y-13502640D01*
X21168360Y-13462000D02*
X21249640Y-13462000D01*
X21209000Y-13675360D02*
X21209000Y-13756640D01*
X21168360Y-13716000D02*
X21249640Y-13716000D01*
X21336000Y-5293360D02*
X21336000Y-5374640D01*
X21295360Y-5334000D02*
X21376640Y-5334000D01*
X21336000Y-8341360D02*
X21336000Y-8422640D01*
X21295360Y-8382000D02*
X21376640Y-8382000D01*
X21336000Y-8595360D02*
X21336000Y-8676640D01*
X21295360Y-8636000D02*
X21376640Y-8636000D01*
X21336000Y-8849360D02*
X21336000Y-8930640D01*
X21295360Y-8890000D02*
X21376640Y-8890000D01*
X21336000Y-9103360D02*
X21336000Y-9184640D01*
X21295360Y-9144000D02*
X21376640Y-9144000D01*
X21336000Y-9992360D02*
X21336000Y-10073640D01*
X21295360Y-10033000D02*
X21376640Y-10033000D01*
X21336000Y-11008360D02*
X21336000Y-11089640D01*
X21295360Y-11049000D02*
X21376640Y-11049000D01*
X21590000Y-5293360D02*
X21590000Y-5374640D01*
X21549360Y-5334000D02*
X21630640Y-5334000D01*
X21590000Y-8341360D02*
X21590000Y-8422640D01*
X21549360Y-8382000D02*
X21630640Y-8382000D01*
X21590000Y-9357360D02*
X21590000Y-9438640D01*
X21549360Y-9398000D02*
X21630640Y-9398000D01*
X21590000Y-13167360D02*
X21590000Y-13248640D01*
X21549360Y-13208000D02*
X21630640Y-13208000D01*
X21590000Y-13929360D02*
X21590000Y-14010640D01*
X21549360Y-13970000D02*
X21630640Y-13970000D01*
X21844000Y-5801360D02*
X21844000Y-5882640D01*
X21803360Y-5842000D02*
X21884640Y-5842000D01*
X21844000Y-6055360D02*
X21844000Y-6136640D01*
X21803360Y-6096000D02*
X21884640Y-6096000D01*
X21844000Y-6309360D02*
X21844000Y-6390640D01*
X21803360Y-6350000D02*
X21884640Y-6350000D01*
X21844000Y-6563360D02*
X21844000Y-6644640D01*
X21803360Y-6604000D02*
X21884640Y-6604000D01*
X21844000Y-6817360D02*
X21844000Y-6898640D01*
X21803360Y-6858000D02*
X21884640Y-6858000D01*
X21844000Y-7071360D02*
X21844000Y-7152640D01*
X21803360Y-7112000D02*
X21884640Y-7112000D01*
X21844000Y-7325360D02*
X21844000Y-7406640D01*
X21803360Y-7366000D02*
X21884640Y-7366000D01*
X21844000Y-13167360D02*
X21844000Y-13248640D01*
X21803360Y-13208000D02*
X21884640Y-13208000D01*
X21844000Y-13929360D02*
X21844000Y-14010640D01*
X21803360Y-13970000D02*
X21884640Y-13970000D01*
X22098000Y-6309360D02*
X22098000Y-6390640D01*
X22057360Y-6350000D02*
X22138640Y-6350000D01*
X22098000Y-6817360D02*
X22098000Y-6898640D01*
X22057360Y-6858000D02*
X22138640Y-6858000D01*
X22098000Y-7325360D02*
X22098000Y-7406640D01*
X22057360Y-7366000D02*
X22138640Y-7366000D01*
X22479000Y-6055360D02*
X22479000Y-6136640D01*
X22438360Y-6096000D02*
X22519640Y-6096000D01*
X22479000Y-6563360D02*
X22479000Y-6644640D01*
X22438360Y-6604000D02*
X22519640Y-6604000D01*
X22479000Y-7071360D02*
X22479000Y-7152640D01*
X22438360Y-7112000D02*
X22519640Y-7112000D01*
X22733000Y-6055360D02*
X22733000Y-6136640D01*
X22692360Y-6096000D02*
X22773640Y-6096000D01*
X22733000Y-6563360D02*
X22733000Y-6644640D01*
X22692360Y-6604000D02*
X22773640Y-6604000D01*
X22733000Y-7071360D02*
X22733000Y-7152640D01*
X22692360Y-7112000D02*
X22773640Y-7112000D01*
X23114000Y-6309360D02*
X23114000Y-6390640D01*
X23073360Y-6350000D02*
X23154640Y-6350000D01*
X23114000Y-6817360D02*
X23114000Y-6898640D01*
X23073360Y-6858000D02*
X23154640Y-6858000D01*
X23114000Y-7325360D02*
X23114000Y-7406640D01*
X23073360Y-7366000D02*
X23154640Y-7366000D01*
D13*
X9814921Y-11973921D02*
X9814921Y-11902079D01*
X9743079Y-11902079D01*
X9743079Y-11973921D01*
X9814921Y-11973921D01*
X9814921Y-12227921D02*
X9814921Y-12156079D01*
X9743079Y-12156079D01*
X9743079Y-12227921D01*
X9814921Y-12227921D01*
X10068921Y-11973921D02*
X10068921Y-11902079D01*
X9997079Y-11902079D01*
X9997079Y-11973921D01*
X10068921Y-11973921D01*
X10068921Y-12227921D02*
X10068921Y-12156079D01*
X9997079Y-12156079D01*
X9997079Y-12227921D01*
X10068921Y-12227921D01*
X10322921Y-11973921D02*
X10322921Y-11902079D01*
X10251079Y-11902079D01*
X10251079Y-11973921D01*
X10322921Y-11973921D01*
X10322921Y-12227921D02*
X10322921Y-12156079D01*
X10251079Y-12156079D01*
X10251079Y-12227921D01*
X10322921Y-12227921D01*
X10576921Y-11973921D02*
X10576921Y-11902079D01*
X10505079Y-11902079D01*
X10505079Y-11973921D01*
X10576921Y-11973921D01*
X10576921Y-12227921D02*
X10576921Y-12156079D01*
X10505079Y-12156079D01*
X10505079Y-12227921D01*
X10576921Y-12227921D01*
X10830921Y-11973921D02*
X10830921Y-11902079D01*
X10759079Y-11902079D01*
X10759079Y-11973921D01*
X10830921Y-11973921D01*
X10830921Y-12227921D02*
X10830921Y-12156079D01*
X10759079Y-12156079D01*
X10759079Y-12227921D01*
X10830921Y-12227921D01*
X10957921Y-10322921D02*
X10957921Y-10251079D01*
X10886079Y-10251079D01*
X10886079Y-10322921D01*
X10957921Y-10322921D01*
X10957921Y-10576921D02*
X10957921Y-10505079D01*
X10886079Y-10505079D01*
X10886079Y-10576921D01*
X10957921Y-10576921D01*
X11084921Y-11973921D02*
X11084921Y-11902079D01*
X11013079Y-11902079D01*
X11013079Y-11973921D01*
X11084921Y-11973921D01*
X11084921Y-12227921D02*
X11084921Y-12156079D01*
X11013079Y-12156079D01*
X11013079Y-12227921D01*
X11084921Y-12227921D01*
X11211921Y-10322921D02*
X11211921Y-10251079D01*
X11140079Y-10251079D01*
X11140079Y-10322921D01*
X11211921Y-10322921D01*
X11211921Y-10576921D02*
X11211921Y-10505079D01*
X11140079Y-10505079D01*
X11140079Y-10576921D01*
X11211921Y-10576921D01*
X11338921Y-11973921D02*
X11338921Y-11902079D01*
X11267079Y-11902079D01*
X11267079Y-11973921D01*
X11338921Y-11973921D01*
X11338921Y-12227921D02*
X11338921Y-12156079D01*
X11267079Y-12156079D01*
X11267079Y-12227921D01*
X11338921Y-12227921D01*
X11465921Y-10322921D02*
X11465921Y-10251079D01*
X11394079Y-10251079D01*
X11394079Y-10322921D01*
X11465921Y-10322921D01*
X11465921Y-10576921D02*
X11465921Y-10505079D01*
X11394079Y-10505079D01*
X11394079Y-10576921D01*
X11465921Y-10576921D01*
X11592921Y-11973921D02*
X11592921Y-11902079D01*
X11521079Y-11902079D01*
X11521079Y-11973921D01*
X11592921Y-11973921D01*
X11592921Y-12227921D02*
X11592921Y-12156079D01*
X11521079Y-12156079D01*
X11521079Y-12227921D01*
X11592921Y-12227921D01*
X11719921Y-10322921D02*
X11719921Y-10251079D01*
X11648079Y-10251079D01*
X11648079Y-10322921D01*
X11719921Y-10322921D01*
X11719921Y-10576921D02*
X11719921Y-10505079D01*
X11648079Y-10505079D01*
X11648079Y-10576921D01*
X11719921Y-10576921D01*
X11846921Y-11973921D02*
X11846921Y-11902079D01*
X11775079Y-11902079D01*
X11775079Y-11973921D01*
X11846921Y-11973921D01*
X11846921Y-12227921D02*
X11846921Y-12156079D01*
X11775079Y-12156079D01*
X11775079Y-12227921D01*
X11846921Y-12227921D01*
X11973921Y-10322921D02*
X11973921Y-10251079D01*
X11902079Y-10251079D01*
X11902079Y-10322921D01*
X11973921Y-10322921D01*
X11973921Y-10576921D02*
X11973921Y-10505079D01*
X11902079Y-10505079D01*
X11902079Y-10576921D01*
X11973921Y-10576921D01*
X12100921Y-11973921D02*
X12100921Y-11902079D01*
X12029079Y-11902079D01*
X12029079Y-11973921D01*
X12100921Y-11973921D01*
X12100921Y-12227921D02*
X12100921Y-12156079D01*
X12029079Y-12156079D01*
X12029079Y-12227921D01*
X12100921Y-12227921D01*
X12227921Y-10322921D02*
X12227921Y-10251079D01*
X12156079Y-10251079D01*
X12156079Y-10322921D01*
X12227921Y-10322921D01*
X12227921Y-10576921D02*
X12227921Y-10505079D01*
X12156079Y-10505079D01*
X12156079Y-10576921D01*
X12227921Y-10576921D01*
X12354921Y-11973921D02*
X12354921Y-11902079D01*
X12283079Y-11902079D01*
X12283079Y-11973921D01*
X12354921Y-11973921D01*
X12354921Y-12227921D02*
X12354921Y-12156079D01*
X12283079Y-12156079D01*
X12283079Y-12227921D01*
X12354921Y-12227921D01*
X12481921Y-10322921D02*
X12481921Y-10251079D01*
X12410079Y-10251079D01*
X12410079Y-10322921D01*
X12481921Y-10322921D01*
X12481921Y-10576921D02*
X12481921Y-10505079D01*
X12410079Y-10505079D01*
X12410079Y-10576921D01*
X12481921Y-10576921D01*
X12608921Y-11973921D02*
X12608921Y-11902079D01*
X12537079Y-11902079D01*
X12537079Y-11973921D01*
X12608921Y-11973921D01*
X12608921Y-12227921D02*
X12608921Y-12156079D01*
X12537079Y-12156079D01*
X12537079Y-12227921D01*
X12608921Y-12227921D01*
X12735921Y-10322921D02*
X12735921Y-10251079D01*
X12664079Y-10251079D01*
X12664079Y-10322921D01*
X12735921Y-10322921D01*
X12735921Y-10576921D02*
X12735921Y-10505079D01*
X12664079Y-10505079D01*
X12664079Y-10576921D01*
X12735921Y-10576921D01*
X16164921Y-8671921D02*
X16164921Y-8600079D01*
X16093079Y-8600079D01*
X16093079Y-8671921D01*
X16164921Y-8671921D01*
X20863921Y-7909921D02*
X20863921Y-7838079D01*
X20792079Y-7838079D01*
X20792079Y-7909921D01*
X20863921Y-7909921D01*
X21117921Y-7909921D02*
X21117921Y-7838079D01*
X21046079Y-7838079D01*
X21046079Y-7909921D01*
X21117921Y-7909921D01*
X21371921Y-7909921D02*
X21371921Y-7838079D01*
X21300079Y-7838079D01*
X21300079Y-7909921D01*
X21371921Y-7909921D01*
X21625921Y-7909921D02*
X21625921Y-7838079D01*
X21554079Y-7838079D01*
X21554079Y-7909921D01*
X21625921Y-7909921D01*
X21879921Y-7909921D02*
X21879921Y-7838079D01*
X21808079Y-7838079D01*
X21808079Y-7909921D01*
X21879921Y-7909921D01*
X22133921Y-7909921D02*
X22133921Y-7838079D01*
X22062079Y-7838079D01*
X22062079Y-7909921D01*
X22133921Y-7909921D01*
D14*
X6096000Y-7420610D02*
X6150610Y-7366000D01*
X6096000Y-7311390D01*
X6041390Y-7366000D01*
X6096000Y-7420610D01*
X6096000Y-7674610D02*
X6150610Y-7620000D01*
X6096000Y-7565390D01*
X6041390Y-7620000D01*
X6096000Y-7674610D01*
X6096000Y-7928610D02*
X6150610Y-7874000D01*
X6096000Y-7819390D01*
X6041390Y-7874000D01*
X6096000Y-7928610D01*
X6096000Y-12246610D02*
X6150610Y-12192000D01*
X6096000Y-12137390D01*
X6041390Y-12192000D01*
X6096000Y-12246610D01*
X6096000Y-12500610D02*
X6150610Y-12446000D01*
X6096000Y-12391390D01*
X6041390Y-12446000D01*
X6096000Y-12500610D01*
X6096000Y-12754610D02*
X6150610Y-12700000D01*
X6096000Y-12645390D01*
X6041390Y-12700000D01*
X6096000Y-12754610D01*
X6350000Y-7420610D02*
X6404610Y-7366000D01*
X6350000Y-7311390D01*
X6295390Y-7366000D01*
X6350000Y-7420610D01*
X6350000Y-7674610D02*
X6404610Y-7620000D01*
X6350000Y-7565390D01*
X6295390Y-7620000D01*
X6350000Y-7674610D01*
X6350000Y-7928610D02*
X6404610Y-7874000D01*
X6350000Y-7819390D01*
X6295390Y-7874000D01*
X6350000Y-7928610D01*
X6350000Y-12246610D02*
X6404610Y-12192000D01*
X6350000Y-12137390D01*
X6295390Y-12192000D01*
X6350000Y-12246610D01*
X6350000Y-12500610D02*
X6404610Y-12446000D01*
X6350000Y-12391390D01*
X6295390Y-12446000D01*
X6350000Y-12500610D01*
X6350000Y-12754610D02*
X6404610Y-12700000D01*
X6350000Y-12645390D01*
X6295390Y-12700000D01*
X6350000Y-12754610D01*
X7874000Y-7420610D02*
X7928610Y-7366000D01*
X7874000Y-7311390D01*
X7819390Y-7366000D01*
X7874000Y-7420610D01*
X7874000Y-7674610D02*
X7928610Y-7620000D01*
X7874000Y-7565390D01*
X7819390Y-7620000D01*
X7874000Y-7674610D01*
X7874000Y-7928610D02*
X7928610Y-7874000D01*
X7874000Y-7819390D01*
X7819390Y-7874000D01*
X7874000Y-7928610D01*
X7874000Y-9452610D02*
X7928610Y-9398000D01*
X7874000Y-9343390D01*
X7819390Y-9398000D01*
X7874000Y-9452610D01*
X7874000Y-9706610D02*
X7928610Y-9652000D01*
X7874000Y-9597390D01*
X7819390Y-9652000D01*
X7874000Y-9706610D01*
X7874000Y-9960610D02*
X7928610Y-9906000D01*
X7874000Y-9851390D01*
X7819390Y-9906000D01*
X7874000Y-9960610D01*
X7874000Y-10214610D02*
X7928610Y-10160000D01*
X7874000Y-10105390D01*
X7819390Y-10160000D01*
X7874000Y-10214610D01*
X7874000Y-10468610D02*
X7928610Y-10414000D01*
X7874000Y-10359390D01*
X7819390Y-10414000D01*
X7874000Y-10468610D01*
X7874000Y-10722610D02*
X7928610Y-10668000D01*
X7874000Y-10613390D01*
X7819390Y-10668000D01*
X7874000Y-10722610D01*
X7874000Y-12246610D02*
X7928610Y-12192000D01*
X7874000Y-12137390D01*
X7819390Y-12192000D01*
X7874000Y-12246610D01*
X7874000Y-12500610D02*
X7928610Y-12446000D01*
X7874000Y-12391390D01*
X7819390Y-12446000D01*
X7874000Y-12500610D01*
X7874000Y-12754610D02*
X7928610Y-12700000D01*
X7874000Y-12645390D01*
X7819390Y-12700000D01*
X7874000Y-12754610D01*
X8128000Y-7420610D02*
X8182610Y-7366000D01*
X8128000Y-7311390D01*
X8073390Y-7366000D01*
X8128000Y-7420610D01*
X8128000Y-7674610D02*
X8182610Y-7620000D01*
X8128000Y-7565390D01*
X8073390Y-7620000D01*
X8128000Y-7674610D01*
X8128000Y-7928610D02*
X8182610Y-7874000D01*
X8128000Y-7819390D01*
X8073390Y-7874000D01*
X8128000Y-7928610D01*
X8128000Y-9452610D02*
X8182610Y-9398000D01*
X8128000Y-9343390D01*
X8073390Y-9398000D01*
X8128000Y-9452610D01*
X8128000Y-9706610D02*
X8182610Y-9652000D01*
X8128000Y-9597390D01*
X8073390Y-9652000D01*
X8128000Y-9706610D01*
X8128000Y-9960610D02*
X8182610Y-9906000D01*
X8128000Y-9851390D01*
X8073390Y-9906000D01*
X8128000Y-9960610D01*
X8128000Y-10214610D02*
X8182610Y-10160000D01*
X8128000Y-10105390D01*
X8073390Y-10160000D01*
X8128000Y-10214610D01*
X8128000Y-10468610D02*
X8182610Y-10414000D01*
X8128000Y-10359390D01*
X8073390Y-10414000D01*
X8128000Y-10468610D01*
X8128000Y-10722610D02*
X8182610Y-10668000D01*
X8128000Y-10613390D01*
X8073390Y-10668000D01*
X8128000Y-10722610D01*
X8128000Y-12246610D02*
X8182610Y-12192000D01*
X8128000Y-12137390D01*
X8073390Y-12192000D01*
X8128000Y-12246610D01*
X8128000Y-12500610D02*
X8182610Y-12446000D01*
X8128000Y-12391390D01*
X8073390Y-12446000D01*
X8128000Y-12500610D01*
X8128000Y-12754610D02*
X8182610Y-12700000D01*
X8128000Y-12645390D01*
X8073390Y-12700000D01*
X8128000Y-12754610D01*
X8763000Y-8563610D02*
X8817610Y-8509000D01*
X8763000Y-8454390D01*
X8708390Y-8509000D01*
X8763000Y-8563610D01*
X9017000Y-8563610D02*
X9071610Y-8509000D01*
X9017000Y-8454390D01*
X8962390Y-8509000D01*
X9017000Y-8563610D01*
X9271000Y-8563610D02*
X9325610Y-8509000D01*
X9271000Y-8454390D01*
X9216390Y-8509000D01*
X9271000Y-8563610D01*
X9271000Y-10341610D02*
X9325610Y-10287000D01*
X9271000Y-10232390D01*
X9216390Y-10287000D01*
X9271000Y-10341610D01*
X9525000Y-8563610D02*
X9579610Y-8509000D01*
X9525000Y-8454390D01*
X9470390Y-8509000D01*
X9525000Y-8563610D01*
X9525000Y-10341610D02*
X9579610Y-10287000D01*
X9525000Y-10232390D01*
X9470390Y-10287000D01*
X9525000Y-10341610D01*
X9779000Y-10341610D02*
X9833610Y-10287000D01*
X9779000Y-10232390D01*
X9724390Y-10287000D01*
X9779000Y-10341610D01*
X9906000Y-5642610D02*
X9960610Y-5588000D01*
X9906000Y-5533390D01*
X9851390Y-5588000D01*
X9906000Y-5642610D01*
X9906000Y-5896610D02*
X9960610Y-5842000D01*
X9906000Y-5787390D01*
X9851390Y-5842000D01*
X9906000Y-5896610D01*
X9906000Y-7674610D02*
X9960610Y-7620000D01*
X9906000Y-7565390D01*
X9851390Y-7620000D01*
X9906000Y-7674610D01*
X9906000Y-7928610D02*
X9960610Y-7874000D01*
X9906000Y-7819390D01*
X9851390Y-7874000D01*
X9906000Y-7928610D01*
X10033000Y-10341610D02*
X10087610Y-10287000D01*
X10033000Y-10232390D01*
X9978390Y-10287000D01*
X10033000Y-10341610D01*
X10160000Y-5642610D02*
X10214610Y-5588000D01*
X10160000Y-5533390D01*
X10105390Y-5588000D01*
X10160000Y-5642610D01*
X10160000Y-5896610D02*
X10214610Y-5842000D01*
X10160000Y-5787390D01*
X10105390Y-5842000D01*
X10160000Y-5896610D01*
X10160000Y-7674610D02*
X10214610Y-7620000D01*
X10160000Y-7565390D01*
X10105390Y-7620000D01*
X10160000Y-7674610D01*
X10160000Y-7928610D02*
X10214610Y-7874000D01*
X10160000Y-7819390D01*
X10105390Y-7874000D01*
X10160000Y-7928610D01*
X10287000Y-10341610D02*
X10341610Y-10287000D01*
X10287000Y-10232390D01*
X10232390Y-10287000D01*
X10287000Y-10341610D01*
X10287000Y-14024610D02*
X10341610Y-13970000D01*
X10287000Y-13915390D01*
X10232390Y-13970000D01*
X10287000Y-14024610D01*
X10414000Y-5642610D02*
X10468610Y-5588000D01*
X10414000Y-5533390D01*
X10359390Y-5588000D01*
X10414000Y-5642610D01*
X10414000Y-5896610D02*
X10468610Y-5842000D01*
X10414000Y-5787390D01*
X10359390Y-5842000D01*
X10414000Y-5896610D01*
X10414000Y-7674610D02*
X10468610Y-7620000D01*
X10414000Y-7565390D01*
X10359390Y-7620000D01*
X10414000Y-7674610D01*
X10414000Y-7928610D02*
X10468610Y-7874000D01*
X10414000Y-7819390D01*
X10359390Y-7874000D01*
X10414000Y-7928610D01*
X10541000Y-14024610D02*
X10595610Y-13970000D01*
X10541000Y-13915390D01*
X10486390Y-13970000D01*
X10541000Y-14024610D01*
X10668000Y-5642610D02*
X10722610Y-5588000D01*
X10668000Y-5533390D01*
X10613390Y-5588000D01*
X10668000Y-5642610D01*
X10668000Y-5896610D02*
X10722610Y-5842000D01*
X10668000Y-5787390D01*
X10613390Y-5842000D01*
X10668000Y-5896610D01*
X10668000Y-7674610D02*
X10722610Y-7620000D01*
X10668000Y-7565390D01*
X10613390Y-7620000D01*
X10668000Y-7674610D01*
X10668000Y-7928610D02*
X10722610Y-7874000D01*
X10668000Y-7819390D01*
X10613390Y-7874000D01*
X10668000Y-7928610D01*
X11430000Y-5896610D02*
X11484610Y-5842000D01*
X11430000Y-5787390D01*
X11375390Y-5842000D01*
X11430000Y-5896610D01*
X11430000Y-7674610D02*
X11484610Y-7620000D01*
X11430000Y-7565390D01*
X11375390Y-7620000D01*
X11430000Y-7674610D01*
X11430000Y-14532610D02*
X11484610Y-14478000D01*
X11430000Y-14423390D01*
X11375390Y-14478000D01*
X11430000Y-14532610D01*
X11684000Y-5896610D02*
X11738610Y-5842000D01*
X11684000Y-5787390D01*
X11629390Y-5842000D01*
X11684000Y-5896610D01*
X11684000Y-7674610D02*
X11738610Y-7620000D01*
X11684000Y-7565390D01*
X11629390Y-7620000D01*
X11684000Y-7674610D01*
X11684000Y-14532610D02*
X11738610Y-14478000D01*
X11684000Y-14423390D01*
X11629390Y-14478000D01*
X11684000Y-14532610D01*
X11938000Y-5896610D02*
X11992610Y-5842000D01*
X11938000Y-5787390D01*
X11883390Y-5842000D01*
X11938000Y-5896610D01*
X11938000Y-7674610D02*
X11992610Y-7620000D01*
X11938000Y-7565390D01*
X11883390Y-7620000D01*
X11938000Y-7674610D01*
X11938000Y-14532610D02*
X11992610Y-14478000D01*
X11938000Y-14423390D01*
X11883390Y-14478000D01*
X11938000Y-14532610D01*
X12192000Y-11230610D02*
X12246610Y-11176000D01*
X12192000Y-11121390D01*
X12137390Y-11176000D01*
X12192000Y-11230610D01*
X12192000Y-14532610D02*
X12246610Y-14478000D01*
X12192000Y-14423390D01*
X12137390Y-14478000D01*
X12192000Y-14532610D01*
X12446000Y-5896610D02*
X12500610Y-5842000D01*
X12446000Y-5787390D01*
X12391390Y-5842000D01*
X12446000Y-5896610D01*
X12446000Y-6150610D02*
X12500610Y-6096000D01*
X12446000Y-6041390D01*
X12391390Y-6096000D01*
X12446000Y-6150610D01*
X12446000Y-6404610D02*
X12500610Y-6350000D01*
X12446000Y-6295390D01*
X12391390Y-6350000D01*
X12446000Y-6404610D01*
X12446000Y-7420610D02*
X12500610Y-7366000D01*
X12446000Y-7311390D01*
X12391390Y-7366000D01*
X12446000Y-7420610D01*
X12446000Y-7674610D02*
X12500610Y-7620000D01*
X12446000Y-7565390D01*
X12391390Y-7620000D01*
X12446000Y-7674610D01*
X12446000Y-7928610D02*
X12500610Y-7874000D01*
X12446000Y-7819390D01*
X12391390Y-7874000D01*
X12446000Y-7928610D01*
X12446000Y-11230610D02*
X12500610Y-11176000D01*
X12446000Y-11121390D01*
X12391390Y-11176000D01*
X12446000Y-11230610D01*
X12700000Y-11230610D02*
X12754610Y-11176000D01*
X12700000Y-11121390D01*
X12645390Y-11176000D01*
X12700000Y-11230610D01*
X12954000Y-11230610D02*
X13008610Y-11176000D01*
X12954000Y-11121390D01*
X12899390Y-11176000D01*
X12954000Y-11230610D01*
X13208000Y-8436610D02*
X13262610Y-8382000D01*
X13208000Y-8327390D01*
X13153390Y-8382000D01*
X13208000Y-8436610D01*
X13208000Y-8690610D02*
X13262610Y-8636000D01*
X13208000Y-8581390D01*
X13153390Y-8636000D01*
X13208000Y-8690610D01*
X13208000Y-8944610D02*
X13262610Y-8890000D01*
X13208000Y-8835390D01*
X13153390Y-8890000D01*
X13208000Y-8944610D01*
X13208000Y-9198610D02*
X13262610Y-9144000D01*
X13208000Y-9089390D01*
X13153390Y-9144000D01*
X13208000Y-9198610D01*
X13208000Y-13516610D02*
X13262610Y-13462000D01*
X13208000Y-13407390D01*
X13153390Y-13462000D01*
X13208000Y-13516610D01*
X13208000Y-13770610D02*
X13262610Y-13716000D01*
X13208000Y-13661390D01*
X13153390Y-13716000D01*
X13208000Y-13770610D01*
X13208000Y-14024610D02*
X13262610Y-13970000D01*
X13208000Y-13915390D01*
X13153390Y-13970000D01*
X13208000Y-14024610D01*
X13208000Y-14278610D02*
X13262610Y-14224000D01*
X13208000Y-14169390D01*
X13153390Y-14224000D01*
X13208000Y-14278610D01*
X13843000Y-8690610D02*
X13897610Y-8636000D01*
X13843000Y-8581390D01*
X13788390Y-8636000D01*
X13843000Y-8690610D01*
X13843000Y-8944610D02*
X13897610Y-8890000D01*
X13843000Y-8835390D01*
X13788390Y-8890000D01*
X13843000Y-8944610D01*
X13970000Y-11738610D02*
X14024610Y-11684000D01*
X13970000Y-11629390D01*
X13915390Y-11684000D01*
X13970000Y-11738610D01*
X13970000Y-12627610D02*
X14024610Y-12573000D01*
X13970000Y-12518390D01*
X13915390Y-12573000D01*
X13970000Y-12627610D01*
X14097000Y-8690610D02*
X14151610Y-8636000D01*
X14097000Y-8581390D01*
X14042390Y-8636000D01*
X14097000Y-8690610D01*
X14097000Y-8944610D02*
X14151610Y-8890000D01*
X14097000Y-8835390D01*
X14042390Y-8890000D01*
X14097000Y-8944610D01*
X14224000Y-11738610D02*
X14278610Y-11684000D01*
X14224000Y-11629390D01*
X14169390Y-11684000D01*
X14224000Y-11738610D01*
X14224000Y-12627610D02*
X14278610Y-12573000D01*
X14224000Y-12518390D01*
X14169390Y-12573000D01*
X14224000Y-12627610D01*
X14351000Y-8690610D02*
X14405610Y-8636000D01*
X14351000Y-8581390D01*
X14296390Y-8636000D01*
X14351000Y-8690610D01*
X14351000Y-8944610D02*
X14405610Y-8890000D01*
X14351000Y-8835390D01*
X14296390Y-8890000D01*
X14351000Y-8944610D01*
X14478000Y-11738610D02*
X14532610Y-11684000D01*
X14478000Y-11629390D01*
X14423390Y-11684000D01*
X14478000Y-11738610D01*
X14478000Y-12627610D02*
X14532610Y-12573000D01*
X14478000Y-12518390D01*
X14423390Y-12573000D01*
X14478000Y-12627610D01*
X14605000Y-8690610D02*
X14659610Y-8636000D01*
X14605000Y-8581390D01*
X14550390Y-8636000D01*
X14605000Y-8690610D01*
X14605000Y-8944610D02*
X14659610Y-8890000D01*
X14605000Y-8835390D01*
X14550390Y-8890000D01*
X14605000Y-8944610D01*
X14732000Y-11738610D02*
X14786610Y-11684000D01*
X14732000Y-11629390D01*
X14677390Y-11684000D01*
X14732000Y-11738610D01*
X14732000Y-12627610D02*
X14786610Y-12573000D01*
X14732000Y-12518390D01*
X14677390Y-12573000D01*
X14732000Y-12627610D01*
X14859000Y-8690610D02*
X14913610Y-8636000D01*
X14859000Y-8581390D01*
X14804390Y-8636000D01*
X14859000Y-8690610D01*
X14859000Y-8944610D02*
X14913610Y-8890000D01*
X14859000Y-8835390D01*
X14804390Y-8890000D01*
X14859000Y-8944610D01*
X14986000Y-11738610D02*
X15040610Y-11684000D01*
X14986000Y-11629390D01*
X14931390Y-11684000D01*
X14986000Y-11738610D01*
X14986000Y-12627610D02*
X15040610Y-12573000D01*
X14986000Y-12518390D01*
X14931390Y-12573000D01*
X14986000Y-12627610D01*
X14986000Y-13516610D02*
X15040610Y-13462000D01*
X14986000Y-13407390D01*
X14931390Y-13462000D01*
X14986000Y-13516610D01*
X14986000Y-13770610D02*
X15040610Y-13716000D01*
X14986000Y-13661390D01*
X14931390Y-13716000D01*
X14986000Y-13770610D01*
X15113000Y-7928610D02*
X15167610Y-7874000D01*
X15113000Y-7819390D01*
X15058390Y-7874000D01*
X15113000Y-7928610D01*
X15113000Y-8690610D02*
X15167610Y-8636000D01*
X15113000Y-8581390D01*
X15058390Y-8636000D01*
X15113000Y-8690610D01*
X15113000Y-8944610D02*
X15167610Y-8890000D01*
X15113000Y-8835390D01*
X15058390Y-8890000D01*
X15113000Y-8944610D01*
X15240000Y-11738610D02*
X15294610Y-11684000D01*
X15240000Y-11629390D01*
X15185390Y-11684000D01*
X15240000Y-11738610D01*
X15240000Y-12627610D02*
X15294610Y-12573000D01*
X15240000Y-12518390D01*
X15185390Y-12573000D01*
X15240000Y-12627610D01*
X15367000Y-7928610D02*
X15421610Y-7874000D01*
X15367000Y-7819390D01*
X15312390Y-7874000D01*
X15367000Y-7928610D01*
X15367000Y-8690610D02*
X15421610Y-8636000D01*
X15367000Y-8581390D01*
X15312390Y-8636000D01*
X15367000Y-8690610D01*
X15367000Y-8944610D02*
X15421610Y-8890000D01*
X15367000Y-8835390D01*
X15312390Y-8890000D01*
X15367000Y-8944610D01*
X15367000Y-10722610D02*
X15421610Y-10668000D01*
X15367000Y-10613390D01*
X15312390Y-10668000D01*
X15367000Y-10722610D01*
X15494000Y-11738610D02*
X15548610Y-11684000D01*
X15494000Y-11629390D01*
X15439390Y-11684000D01*
X15494000Y-11738610D01*
X15494000Y-12627610D02*
X15548610Y-12573000D01*
X15494000Y-12518390D01*
X15439390Y-12573000D01*
X15494000Y-12627610D01*
X15621000Y-7928610D02*
X15675610Y-7874000D01*
X15621000Y-7819390D01*
X15566390Y-7874000D01*
X15621000Y-7928610D01*
X15621000Y-8690610D02*
X15675610Y-8636000D01*
X15621000Y-8581390D01*
X15566390Y-8636000D01*
X15621000Y-8690610D01*
X15621000Y-8944610D02*
X15675610Y-8890000D01*
X15621000Y-8835390D01*
X15566390Y-8890000D01*
X15621000Y-8944610D01*
X15621000Y-10722610D02*
X15675610Y-10668000D01*
X15621000Y-10613390D01*
X15566390Y-10668000D01*
X15621000Y-10722610D01*
X15748000Y-11738610D02*
X15802610Y-11684000D01*
X15748000Y-11629390D01*
X15693390Y-11684000D01*
X15748000Y-11738610D01*
X15748000Y-12627610D02*
X15802610Y-12573000D01*
X15748000Y-12518390D01*
X15693390Y-12573000D01*
X15748000Y-12627610D01*
X15875000Y-7928610D02*
X15929610Y-7874000D01*
X15875000Y-7819390D01*
X15820390Y-7874000D01*
X15875000Y-7928610D01*
X15875000Y-8690610D02*
X15929610Y-8636000D01*
X15875000Y-8581390D01*
X15820390Y-8636000D01*
X15875000Y-8690610D01*
X15875000Y-8944610D02*
X15929610Y-8890000D01*
X15875000Y-8835390D01*
X15820390Y-8890000D01*
X15875000Y-8944610D01*
X15875000Y-10722610D02*
X15929610Y-10668000D01*
X15875000Y-10613390D01*
X15820390Y-10668000D01*
X15875000Y-10722610D01*
X16129000Y-8944610D02*
X16183610Y-8890000D01*
X16129000Y-8835390D01*
X16074390Y-8890000D01*
X16129000Y-8944610D01*
X16637000Y-11865610D02*
X16691610Y-11811000D01*
X16637000Y-11756390D01*
X16582390Y-11811000D01*
X16637000Y-11865610D01*
X16637000Y-12119610D02*
X16691610Y-12065000D01*
X16637000Y-12010390D01*
X16582390Y-12065000D01*
X16637000Y-12119610D01*
X16891000Y-11865610D02*
X16945610Y-11811000D01*
X16891000Y-11756390D01*
X16836390Y-11811000D01*
X16891000Y-11865610D01*
X16891000Y-12119610D02*
X16945610Y-12065000D01*
X16891000Y-12010390D01*
X16836390Y-12065000D01*
X16891000Y-12119610D01*
X17399000Y-10722610D02*
X17453610Y-10668000D01*
X17399000Y-10613390D01*
X17344390Y-10668000D01*
X17399000Y-10722610D01*
X17399000Y-11865610D02*
X17453610Y-11811000D01*
X17399000Y-11756390D01*
X17344390Y-11811000D01*
X17399000Y-11865610D01*
X17399000Y-12119610D02*
X17453610Y-12065000D01*
X17399000Y-12010390D01*
X17344390Y-12065000D01*
X17399000Y-12119610D01*
X17653000Y-9452610D02*
X17707610Y-9398000D01*
X17653000Y-9343390D01*
X17598390Y-9398000D01*
X17653000Y-9452610D01*
X17653000Y-10722610D02*
X17707610Y-10668000D01*
X17653000Y-10613390D01*
X17598390Y-10668000D01*
X17653000Y-10722610D01*
X17653000Y-11865610D02*
X17707610Y-11811000D01*
X17653000Y-11756390D01*
X17598390Y-11811000D01*
X17653000Y-11865610D01*
X17653000Y-12119610D02*
X17707610Y-12065000D01*
X17653000Y-12010390D01*
X17598390Y-12065000D01*
X17653000Y-12119610D01*
X17907000Y-9452610D02*
X17961610Y-9398000D01*
X17907000Y-9343390D01*
X17852390Y-9398000D01*
X17907000Y-9452610D01*
X17907000Y-10976610D02*
X17961610Y-10922000D01*
X17907000Y-10867390D01*
X17852390Y-10922000D01*
X17907000Y-10976610D01*
X18161000Y-9198610D02*
X18215610Y-9144000D01*
X18161000Y-9089390D01*
X18106390Y-9144000D01*
X18161000Y-9198610D01*
X18161000Y-10976610D02*
X18215610Y-10922000D01*
X18161000Y-10867390D01*
X18106390Y-10922000D01*
X18161000Y-10976610D01*
X18415000Y-9198610D02*
X18469610Y-9144000D01*
X18415000Y-9089390D01*
X18360390Y-9144000D01*
X18415000Y-9198610D01*
X18415000Y-10722610D02*
X18469610Y-10668000D01*
X18415000Y-10613390D01*
X18360390Y-10668000D01*
X18415000Y-10722610D01*
X18478500Y-6722110D02*
X18533110Y-6667500D01*
X18478500Y-6612890D01*
X18423890Y-6667500D01*
X18478500Y-6722110D01*
X18478500Y-6976110D02*
X18533110Y-6921500D01*
X18478500Y-6866890D01*
X18423890Y-6921500D01*
X18478500Y-6976110D01*
X18478500Y-7992110D02*
X18533110Y-7937500D01*
X18478500Y-7882890D01*
X18423890Y-7937500D01*
X18478500Y-7992110D01*
X18478500Y-8246110D02*
X18533110Y-8191500D01*
X18478500Y-8136890D01*
X18423890Y-8191500D01*
X18478500Y-8246110D01*
X18669000Y-9452610D02*
X18723610Y-9398000D01*
X18669000Y-9343390D01*
X18614390Y-9398000D01*
X18669000Y-9452610D01*
X18669000Y-10722610D02*
X18723610Y-10668000D01*
X18669000Y-10613390D01*
X18614390Y-10668000D01*
X18669000Y-10722610D01*
X18923000Y-9452610D02*
X18977610Y-9398000D01*
X18923000Y-9343390D01*
X18868390Y-9398000D01*
X18923000Y-9452610D01*
X19431000Y-13135610D02*
X19485610Y-13081000D01*
X19431000Y-13026390D01*
X19376390Y-13081000D01*
X19431000Y-13135610D01*
X19685000Y-13135610D02*
X19739610Y-13081000D01*
X19685000Y-13026390D01*
X19630390Y-13081000D01*
X19685000Y-13135610D01*
X19939000Y-10341610D02*
X19993610Y-10287000D01*
X19939000Y-10232390D01*
X19884390Y-10287000D01*
X19939000Y-10341610D01*
X19939000Y-10595610D02*
X19993610Y-10541000D01*
X19939000Y-10486390D01*
X19884390Y-10541000D01*
X19939000Y-10595610D01*
X20066000Y-8436610D02*
X20120610Y-8382000D01*
X20066000Y-8327390D01*
X20011390Y-8382000D01*
X20066000Y-8436610D01*
X20066000Y-8690610D02*
X20120610Y-8636000D01*
X20066000Y-8581390D01*
X20011390Y-8636000D01*
X20066000Y-8690610D01*
X20066000Y-8944610D02*
X20120610Y-8890000D01*
X20066000Y-8835390D01*
X20011390Y-8890000D01*
X20066000Y-8944610D01*
X20066000Y-9198610D02*
X20120610Y-9144000D01*
X20066000Y-9089390D01*
X20011390Y-9144000D01*
X20066000Y-9198610D01*
X21082000Y-9452610D02*
X21136610Y-9398000D01*
X21082000Y-9343390D01*
X21027390Y-9398000D01*
X21082000Y-9452610D01*
X21336000Y-9452610D02*
X21390610Y-9398000D01*
X21336000Y-9343390D01*
X21281390Y-9398000D01*
X21336000Y-9452610D01*
X22225000Y-8563610D02*
X22279610Y-8509000D01*
X22225000Y-8454390D01*
X22170390Y-8509000D01*
X22225000Y-8563610D01*
X22225000Y-8817610D02*
X22279610Y-8763000D01*
X22225000Y-8708390D01*
X22170390Y-8763000D01*
X22225000Y-8817610D01*
X22225000Y-9071610D02*
X22279610Y-9017000D01*
X22225000Y-8962390D01*
X22170390Y-9017000D01*
X22225000Y-9071610D01*
X22225000Y-9325610D02*
X22279610Y-9271000D01*
X22225000Y-9216390D01*
X22170390Y-9271000D01*
X22225000Y-9325610D01*
X22885400Y-8792210D02*
X22940010Y-8737600D01*
X22885400Y-8682990D01*
X22830790Y-8737600D01*
X22885400Y-8792210D01*
X22885400Y-9046210D02*
X22940010Y-8991600D01*
X22885400Y-8936990D01*
X22830790Y-8991600D01*
X22885400Y-9046210D01*
X22885400Y-9300210D02*
X22940010Y-9245600D01*
X22885400Y-9190990D01*
X22830790Y-9245600D01*
X22885400Y-9300210D01*
D15*
X4880000Y-5552000D02*
X5000000Y-5672000D01*
X5000000Y-5552000D02*
X4880000Y-5672000D01*
X5000000Y-5612000D02*
G75*
G02*
X4880000Y-5612000I-60000J0D01*
G01*
X4880000Y-5612000D02*
G75*
G02*
X5000000Y-5612000I60000J0D01*
G01*
X4880000Y-5802000D02*
X5000000Y-5922000D01*
X5000000Y-5802000D02*
X4880000Y-5922000D01*
X5000000Y-5862000D02*
G75*
G02*
X4880000Y-5862000I-60000J0D01*
G01*
X4880000Y-5862000D02*
G75*
G02*
X5000000Y-5862000I60000J0D01*
G01*
X4880000Y-6052000D02*
X5000000Y-6172000D01*
X5000000Y-6052000D02*
X4880000Y-6172000D01*
X5000000Y-6112000D02*
G75*
G02*
X4880000Y-6112000I-60000J0D01*
G01*
X4880000Y-6112000D02*
G75*
G02*
X5000000Y-6112000I60000J0D01*
G01*
X4880000Y-8210000D02*
X5000000Y-8330000D01*
X5000000Y-8210000D02*
X4880000Y-8330000D01*
X5000000Y-8270000D02*
G75*
G02*
X4880000Y-8270000I-60000J0D01*
G01*
X4880000Y-8270000D02*
G75*
G02*
X5000000Y-8270000I60000J0D01*
G01*
X4880000Y-8460000D02*
X5000000Y-8580000D01*
X5000000Y-8460000D02*
X4880000Y-8580000D01*
X5000000Y-8520000D02*
G75*
G02*
X4880000Y-8520000I-60000J0D01*
G01*
X4880000Y-8520000D02*
G75*
G02*
X5000000Y-8520000I60000J0D01*
G01*
X4880000Y-8710000D02*
X5000000Y-8830000D01*
X5000000Y-8710000D02*
X4880000Y-8830000D01*
X5000000Y-8770000D02*
G75*
G02*
X4880000Y-8770000I-60000J0D01*
G01*
X4880000Y-8770000D02*
G75*
G02*
X5000000Y-8770000I60000J0D01*
G01*
X4880000Y-11221000D02*
X5000000Y-11341000D01*
X5000000Y-11221000D02*
X4880000Y-11341000D01*
X5000000Y-11281000D02*
G75*
G02*
X4880000Y-11281000I-60000J0D01*
G01*
X4880000Y-11281000D02*
G75*
G02*
X5000000Y-11281000I60000J0D01*
G01*
X4880000Y-11471000D02*
X5000000Y-11591000D01*
X5000000Y-11471000D02*
X4880000Y-11591000D01*
X5000000Y-11531000D02*
G75*
G02*
X4880000Y-11531000I-60000J0D01*
G01*
X4880000Y-11531000D02*
G75*
G02*
X5000000Y-11531000I60000J0D01*
G01*
X4880000Y-11721000D02*
X5000000Y-11841000D01*
X5000000Y-11721000D02*
X4880000Y-11841000D01*
X5000000Y-11781000D02*
G75*
G02*
X4880000Y-11781000I-60000J0D01*
G01*
X4880000Y-11781000D02*
G75*
G02*
X5000000Y-11781000I60000J0D01*
G01*
X4880000Y-13762000D02*
X5000000Y-13882000D01*
X5000000Y-13762000D02*
X4880000Y-13882000D01*
X5000000Y-13822000D02*
G75*
G02*
X4880000Y-13822000I-60000J0D01*
G01*
X4880000Y-13822000D02*
G75*
G02*
X5000000Y-13822000I60000J0D01*
G01*
X4880000Y-14012000D02*
X5000000Y-14132000D01*
X5000000Y-14012000D02*
X4880000Y-14132000D01*
X5000000Y-14072000D02*
G75*
G02*
X4880000Y-14072000I-60000J0D01*
G01*
X4880000Y-14072000D02*
G75*
G02*
X5000000Y-14072000I60000J0D01*
G01*
X4880000Y-14262000D02*
X5000000Y-14382000D01*
X5000000Y-14262000D02*
X4880000Y-14382000D01*
X5000000Y-14322000D02*
G75*
G02*
X4880000Y-14322000I-60000J0D01*
G01*
X4880000Y-14322000D02*
G75*
G02*
X5000000Y-14322000I60000J0D01*
G01*
X7809000Y-5509000D02*
X7929000Y-5629000D01*
X7929000Y-5509000D02*
X7809000Y-5629000D01*
X7929000Y-5569000D02*
G75*
G02*
X7809000Y-5569000I-60000J0D01*
G01*
X7809000Y-5569000D02*
G75*
G02*
X7929000Y-5569000I60000J0D01*
G01*
X7809000Y-5759000D02*
X7929000Y-5879000D01*
X7929000Y-5759000D02*
X7809000Y-5879000D01*
X7929000Y-5819000D02*
G75*
G02*
X7809000Y-5819000I-60000J0D01*
G01*
X7809000Y-5819000D02*
G75*
G02*
X7929000Y-5819000I60000J0D01*
G01*
X7809000Y-6009000D02*
X7929000Y-6129000D01*
X7929000Y-6009000D02*
X7809000Y-6129000D01*
X7929000Y-6069000D02*
G75*
G02*
X7809000Y-6069000I-60000J0D01*
G01*
X7809000Y-6069000D02*
G75*
G02*
X7929000Y-6069000I60000J0D01*
G01*
X7814000Y-13754000D02*
X7934000Y-13874000D01*
X7934000Y-13754000D02*
X7814000Y-13874000D01*
X7934000Y-13814000D02*
G75*
G02*
X7814000Y-13814000I-60000J0D01*
G01*
X7814000Y-13814000D02*
G75*
G02*
X7934000Y-13814000I60000J0D01*
G01*
X7814000Y-14004000D02*
X7934000Y-14124000D01*
X7934000Y-14004000D02*
X7814000Y-14124000D01*
X7934000Y-14064000D02*
G75*
G02*
X7814000Y-14064000I-60000J0D01*
G01*
X7814000Y-14064000D02*
G75*
G02*
X7934000Y-14064000I60000J0D01*
G01*
X7814000Y-14254000D02*
X7934000Y-14374000D01*
X7934000Y-14254000D02*
X7814000Y-14374000D01*
X7934000Y-14314000D02*
G75*
G02*
X7814000Y-14314000I-60000J0D01*
G01*
X7814000Y-14314000D02*
G75*
G02*
X7934000Y-14314000I60000J0D01*
G01*
X16203000Y-6366000D02*
X16323000Y-6486000D01*
X16323000Y-6366000D02*
X16203000Y-6486000D01*
X16323000Y-6426000D02*
G75*
G02*
X16203000Y-6426000I-60000J0D01*
G01*
X16203000Y-6426000D02*
G75*
G02*
X16323000Y-6426000I60000J0D01*
G01*
X16203000Y-6616000D02*
X16323000Y-6736000D01*
X16323000Y-6616000D02*
X16203000Y-6736000D01*
X16323000Y-6676000D02*
G75*
G02*
X16203000Y-6676000I-60000J0D01*
G01*
X16203000Y-6676000D02*
G75*
G02*
X16323000Y-6676000I60000J0D01*
G01*
X16203000Y-6866000D02*
X16323000Y-6986000D01*
X16323000Y-6866000D02*
X16203000Y-6986000D01*
X16323000Y-6926000D02*
G75*
G02*
X16203000Y-6926000I-60000J0D01*
G01*
X16203000Y-6926000D02*
G75*
G02*
X16323000Y-6926000I60000J0D01*
G01*
X17087000Y-13448000D02*
X17207000Y-13568000D01*
X17207000Y-13448000D02*
X17087000Y-13568000D01*
X17207000Y-13508000D02*
G75*
G02*
X17087000Y-13508000I-60000J0D01*
G01*
X17087000Y-13508000D02*
G75*
G02*
X17207000Y-13508000I60000J0D01*
G01*
X17337000Y-13448000D02*
X17457000Y-13568000D01*
X17457000Y-13448000D02*
X17337000Y-13568000D01*
X17457000Y-13508000D02*
G75*
G02*
X17337000Y-13508000I-60000J0D01*
G01*
X17337000Y-13508000D02*
G75*
G02*
X17457000Y-13508000I60000J0D01*
G01*
X17587000Y-13448000D02*
X17707000Y-13568000D01*
X17707000Y-13448000D02*
X17587000Y-13568000D01*
X17707000Y-13508000D02*
G75*
G02*
X17587000Y-13508000I-60000J0D01*
G01*
X17587000Y-13508000D02*
G75*
G02*
X17707000Y-13508000I60000J0D01*
G01*
X18551000Y-13880000D02*
X18671000Y-14000000D01*
X18671000Y-13880000D02*
X18551000Y-14000000D01*
X18671000Y-13940000D02*
G75*
G02*
X18551000Y-13940000I-60000J0D01*
G01*
X18551000Y-13940000D02*
G75*
G02*
X18671000Y-13940000I60000J0D01*
G01*
X18551000Y-14380000D02*
X18671000Y-14500000D01*
X18671000Y-14380000D02*
X18551000Y-14500000D01*
X18671000Y-14440000D02*
G75*
G02*
X18551000Y-14440000I-60000J0D01*
G01*
X18551000Y-14440000D02*
G75*
G02*
X18671000Y-14440000I60000J0D01*
G01*
X19051000Y-13880000D02*
X19171000Y-14000000D01*
X19171000Y-13880000D02*
X19051000Y-14000000D01*
X19171000Y-13940000D02*
G75*
G02*
X19051000Y-13940000I-60000J0D01*
G01*
X19051000Y-13940000D02*
G75*
G02*
X19171000Y-13940000I60000J0D01*
G01*
X19051000Y-14380000D02*
X19171000Y-14500000D01*
X19171000Y-14380000D02*
X19051000Y-14500000D01*
X19171000Y-14440000D02*
G75*
G02*
X19051000Y-14440000I-60000J0D01*
G01*
X19051000Y-14440000D02*
G75*
G02*
X19171000Y-14440000I60000J0D01*
G01*
X19551000Y-13880000D02*
X19671000Y-14000000D01*
X19671000Y-13880000D02*
X19551000Y-14000000D01*
X19671000Y-13940000D02*
G75*
G02*
X19551000Y-13940000I-60000J0D01*
G01*
X19551000Y-13940000D02*
G75*
G02*
X19671000Y-13940000I60000J0D01*
G01*
X19551000Y-14380000D02*
X19671000Y-14500000D01*
X19671000Y-14380000D02*
X19551000Y-14500000D01*
X19671000Y-14440000D02*
G75*
G02*
X19551000Y-14440000I-60000J0D01*
G01*
X19551000Y-14440000D02*
G75*
G02*
X19671000Y-14440000I60000J0D01*
G01*
X22034000Y-11755000D02*
X22154000Y-11875000D01*
X22154000Y-11755000D02*
X22034000Y-11875000D01*
X22154000Y-11815000D02*
G75*
G02*
X22034000Y-11815000I-60000J0D01*
G01*
X22034000Y-11815000D02*
G75*
G02*
X22154000Y-11815000I60000J0D01*
G01*
X22034000Y-12005000D02*
X22154000Y-12125000D01*
X22154000Y-12005000D02*
X22034000Y-12125000D01*
X22154000Y-12065000D02*
G75*
G02*
X22034000Y-12065000I-60000J0D01*
G01*
X22034000Y-12065000D02*
G75*
G02*
X22154000Y-12065000I60000J0D01*
G01*
X22034000Y-12255000D02*
X22154000Y-12375000D01*
X22154000Y-12255000D02*
X22034000Y-12375000D01*
X22154000Y-12315000D02*
G75*
G02*
X22034000Y-12315000I-60000J0D01*
G01*
X22034000Y-12315000D02*
G75*
G02*
X22154000Y-12315000I60000J0D01*
G01*
X22035000Y-10171000D02*
X22155000Y-10291000D01*
X22155000Y-10171000D02*
X22035000Y-10291000D01*
X22155000Y-10231000D02*
G75*
G02*
X22035000Y-10231000I-60000J0D01*
G01*
X22035000Y-10231000D02*
G75*
G02*
X22155000Y-10231000I60000J0D01*
G01*
X22035000Y-10421000D02*
X22155000Y-10541000D01*
X22155000Y-10421000D02*
X22035000Y-10541000D01*
X22155000Y-10481000D02*
G75*
G02*
X22035000Y-10481000I-60000J0D01*
G01*
X22035000Y-10481000D02*
G75*
G02*
X22155000Y-10481000I60000J0D01*
G01*
X22035000Y-10671000D02*
X22155000Y-10791000D01*
X22155000Y-10671000D02*
X22035000Y-10791000D01*
X22155000Y-10731000D02*
G75*
G02*
X22035000Y-10731000I-60000J0D01*
G01*
X22035000Y-10731000D02*
G75*
G02*
X22155000Y-10731000I60000J0D01*
G01*
D16*
X5847600Y-5347600D02*
X6152400Y-5652400D01*
X6152400Y-5347600D02*
X5847600Y-5652400D01*
X6000000Y-5347600D02*
X6000000Y-5652400D01*
X5847600Y-5500000D02*
X6152400Y-5500000D01*
X5847600Y-14347600D02*
X6152400Y-14652400D01*
X6152400Y-14347600D02*
X5847600Y-14652400D01*
X6000000Y-14347600D02*
X6000000Y-14652400D01*
X5847600Y-14500000D02*
X6152400Y-14500000D01*
X14847600Y-5347600D02*
X15152400Y-5652400D01*
X15152400Y-5347600D02*
X14847600Y-5652400D01*
X15000000Y-5347600D02*
X15000000Y-5652400D01*
X14847600Y-5500000D02*
X15152400Y-5500000D01*
X14847600Y-14347600D02*
X15152400Y-14652400D01*
X15152400Y-14347600D02*
X14847600Y-14652400D01*
X15000000Y-14347600D02*
X15000000Y-14652400D01*
X14847600Y-14500000D02*
X15152400Y-14500000D01*
X22847600Y-5347600D02*
X23152400Y-5652400D01*
X23152400Y-5347600D02*
X22847600Y-5652400D01*
X23000000Y-5347600D02*
X23000000Y-5652400D01*
X22847600Y-5500000D02*
X23152400Y-5500000D01*
X22847600Y-14347600D02*
X23152400Y-14652400D01*
X23152400Y-14347600D02*
X22847600Y-14652400D01*
X23000000Y-14347600D02*
X23000000Y-14652400D01*
X22847600Y-14500000D02*
X23152400Y-14500000D01*
D17*
X4074000Y-5256000D02*
X4406000Y-5588000D01*
X4406000Y-5256000D02*
X4074000Y-5588000D01*
X4357381Y-5539381D02*
X4357381Y-5304619D01*
X4122619Y-5304619D01*
X4122619Y-5539381D01*
X4357381Y-5539381D01*
X4074000Y-6136000D02*
X4406000Y-6468000D01*
X4406000Y-6136000D02*
X4074000Y-6468000D01*
X4357381Y-6419381D02*
X4357381Y-6184619D01*
X4122619Y-6184619D01*
X4122619Y-6419381D01*
X4357381Y-6419381D01*
X4074000Y-7914000D02*
X4406000Y-8246000D01*
X4406000Y-7914000D02*
X4074000Y-8246000D01*
X4357381Y-8197381D02*
X4357381Y-7962619D01*
X4122619Y-7962619D01*
X4122619Y-8197381D01*
X4357381Y-8197381D01*
X4074000Y-8794000D02*
X4406000Y-9126000D01*
X4406000Y-8794000D02*
X4074000Y-9126000D01*
X4357381Y-9077381D02*
X4357381Y-8842619D01*
X4122619Y-8842619D01*
X4122619Y-9077381D01*
X4357381Y-9077381D01*
X4074000Y-10925000D02*
X4406000Y-11257000D01*
X4406000Y-10925000D02*
X4074000Y-11257000D01*
X4357381Y-11208381D02*
X4357381Y-10973619D01*
X4122619Y-10973619D01*
X4122619Y-11208381D01*
X4357381Y-11208381D01*
X4074000Y-11805000D02*
X4406000Y-12137000D01*
X4406000Y-11805000D02*
X4074000Y-12137000D01*
X4357381Y-12088381D02*
X4357381Y-11853619D01*
X4122619Y-11853619D01*
X4122619Y-12088381D01*
X4357381Y-12088381D01*
X4074000Y-13466000D02*
X4406000Y-13798000D01*
X4406000Y-13466000D02*
X4074000Y-13798000D01*
X4357381Y-13749381D02*
X4357381Y-13514619D01*
X4122619Y-13514619D01*
X4122619Y-13749381D01*
X4357381Y-13749381D01*
X4074000Y-14346000D02*
X4406000Y-14678000D01*
X4406000Y-14346000D02*
X4074000Y-14678000D01*
X4357381Y-14629381D02*
X4357381Y-14394619D01*
X4122619Y-14394619D01*
X4122619Y-14629381D01*
X4357381Y-14629381D01*
X7003000Y-5213000D02*
X7335000Y-5545000D01*
X7335000Y-5213000D02*
X7003000Y-5545000D01*
X7286381Y-5496381D02*
X7286381Y-5261619D01*
X7051619Y-5261619D01*
X7051619Y-5496381D01*
X7286381Y-5496381D01*
X7003000Y-6093000D02*
X7335000Y-6425000D01*
X7335000Y-6093000D02*
X7003000Y-6425000D01*
X7286381Y-6376381D02*
X7286381Y-6141619D01*
X7051619Y-6141619D01*
X7051619Y-6376381D01*
X7286381Y-6376381D01*
X7008000Y-13458000D02*
X7340000Y-13790000D01*
X7340000Y-13458000D02*
X7008000Y-13790000D01*
X7291381Y-13741381D02*
X7291381Y-13506619D01*
X7056619Y-13506619D01*
X7056619Y-13741381D01*
X7291381Y-13741381D01*
X7008000Y-14338000D02*
X7340000Y-14670000D01*
X7340000Y-14338000D02*
X7008000Y-14670000D01*
X7291381Y-14621381D02*
X7291381Y-14386619D01*
X7056619Y-14386619D01*
X7056619Y-14621381D01*
X7291381Y-14621381D01*
X15397000Y-6070000D02*
X15729000Y-6402000D01*
X15729000Y-6070000D02*
X15397000Y-6402000D01*
X15680381Y-6353381D02*
X15680381Y-6118619D01*
X15445619Y-6118619D01*
X15445619Y-6353381D01*
X15680381Y-6353381D01*
X15397000Y-6950000D02*
X15729000Y-7282000D01*
X15729000Y-6950000D02*
X15397000Y-7282000D01*
X15680381Y-7233381D02*
X15680381Y-6998619D01*
X15445619Y-6998619D01*
X15445619Y-7233381D01*
X15680381Y-7233381D01*
X16791000Y-14042000D02*
X17123000Y-14374000D01*
X17123000Y-14042000D02*
X16791000Y-14374000D01*
X17074381Y-14325381D02*
X17074381Y-14090619D01*
X16839619Y-14090619D01*
X16839619Y-14325381D01*
X17074381Y-14325381D01*
X17671000Y-14042000D02*
X18003000Y-14374000D01*
X18003000Y-14042000D02*
X17671000Y-14374000D01*
X17954381Y-14325381D02*
X17954381Y-14090619D01*
X17719619Y-14090619D01*
X17719619Y-14325381D01*
X17954381Y-14325381D01*
X22628000Y-11459000D02*
X22960000Y-11791000D01*
X22960000Y-11459000D02*
X22628000Y-11791000D01*
X22911381Y-11742381D02*
X22911381Y-11507619D01*
X22676619Y-11507619D01*
X22676619Y-11742381D01*
X22911381Y-11742381D01*
X22628000Y-12339000D02*
X22960000Y-12671000D01*
X22960000Y-12339000D02*
X22628000Y-12671000D01*
X22911381Y-12622381D02*
X22911381Y-12387619D01*
X22676619Y-12387619D01*
X22676619Y-12622381D01*
X22911381Y-12622381D01*
X22629000Y-9875000D02*
X22961000Y-10207000D01*
X22961000Y-9875000D02*
X22629000Y-10207000D01*
X22912381Y-10158381D02*
X22912381Y-9923619D01*
X22677619Y-9923619D01*
X22677619Y-10158381D01*
X22912381Y-10158381D01*
X22629000Y-10755000D02*
X22961000Y-11087000D01*
X22961000Y-10755000D02*
X22629000Y-11087000D01*
X22912381Y-11038381D02*
X22912381Y-10803619D01*
X22677619Y-10803619D01*
X22677619Y-11038381D01*
X22912381Y-11038381D01*
D12*
X3755777Y-15316484D02*
X3755777Y-15116484D01*
X3755777Y-15116484D02*
X3803396Y-15116484D01*
X3803396Y-15116484D02*
X3831967Y-15126008D01*
X3831967Y-15126008D02*
X3851015Y-15145055D01*
X3851015Y-15145055D02*
X3860539Y-15164103D01*
X3860539Y-15164103D02*
X3870062Y-15202198D01*
X3870062Y-15202198D02*
X3870062Y-15230769D01*
X3870062Y-15230769D02*
X3860539Y-15268865D01*
X3860539Y-15268865D02*
X3851015Y-15287912D01*
X3851015Y-15287912D02*
X3831967Y-15306960D01*
X3831967Y-15306960D02*
X3803396Y-15316484D01*
X3803396Y-15316484D02*
X3755777Y-15316484D01*
X3955777Y-15316484D02*
X3955777Y-15183150D01*
X3955777Y-15221246D02*
X3965301Y-15202198D01*
X3965301Y-15202198D02*
X3974824Y-15192674D01*
X3974824Y-15192674D02*
X3993872Y-15183150D01*
X3993872Y-15183150D02*
X4012920Y-15183150D01*
X4079586Y-15316484D02*
X4079586Y-15183150D01*
X4079586Y-15116484D02*
X4070062Y-15126008D01*
X4070062Y-15126008D02*
X4079586Y-15135531D01*
X4079586Y-15135531D02*
X4089110Y-15126008D01*
X4089110Y-15126008D02*
X4079586Y-15116484D01*
X4079586Y-15116484D02*
X4079586Y-15135531D01*
X4203396Y-15316484D02*
X4184348Y-15306960D01*
X4184348Y-15306960D02*
X4174824Y-15287912D01*
X4174824Y-15287912D02*
X4174824Y-15116484D01*
X4308158Y-15316484D02*
X4289110Y-15306960D01*
X4289110Y-15306960D02*
X4279586Y-15287912D01*
X4279586Y-15287912D02*
X4279586Y-15116484D01*
X4536729Y-15316484D02*
X4536729Y-15116484D01*
X4536729Y-15116484D02*
X4603396Y-15259341D01*
X4603396Y-15259341D02*
X4670063Y-15116484D01*
X4670063Y-15116484D02*
X4670063Y-15316484D01*
X4851015Y-15316484D02*
X4851015Y-15211722D01*
X4851015Y-15211722D02*
X4841491Y-15192674D01*
X4841491Y-15192674D02*
X4822444Y-15183150D01*
X4822444Y-15183150D02*
X4784348Y-15183150D01*
X4784348Y-15183150D02*
X4765301Y-15192674D01*
X4851015Y-15306960D02*
X4831967Y-15316484D01*
X4831967Y-15316484D02*
X4784348Y-15316484D01*
X4784348Y-15316484D02*
X4765301Y-15306960D01*
X4765301Y-15306960D02*
X4755777Y-15287912D01*
X4755777Y-15287912D02*
X4755777Y-15268865D01*
X4755777Y-15268865D02*
X4765301Y-15249817D01*
X4765301Y-15249817D02*
X4784348Y-15240293D01*
X4784348Y-15240293D02*
X4831967Y-15240293D01*
X4831967Y-15240293D02*
X4851015Y-15230769D01*
X4946253Y-15183150D02*
X4946253Y-15383150D01*
X4946253Y-15192674D02*
X4965301Y-15183150D01*
X4965301Y-15183150D02*
X5003396Y-15183150D01*
X5003396Y-15183150D02*
X5022444Y-15192674D01*
X5022444Y-15192674D02*
X5031967Y-15202198D01*
X5031967Y-15202198D02*
X5041491Y-15221246D01*
X5041491Y-15221246D02*
X5041491Y-15278388D01*
X5041491Y-15278388D02*
X5031967Y-15297436D01*
X5031967Y-15297436D02*
X5022444Y-15306960D01*
X5022444Y-15306960D02*
X5003396Y-15316484D01*
X5003396Y-15316484D02*
X4965301Y-15316484D01*
X4965301Y-15316484D02*
X4946253Y-15306960D01*
X5127205Y-15297436D02*
X5136729Y-15306960D01*
X5136729Y-15306960D02*
X5127205Y-15316484D01*
X5127205Y-15316484D02*
X5117682Y-15306960D01*
X5117682Y-15306960D02*
X5127205Y-15297436D01*
X5127205Y-15297436D02*
X5127205Y-15316484D01*
X5127205Y-15192674D02*
X5136729Y-15202198D01*
X5136729Y-15202198D02*
X5127205Y-15211722D01*
X5127205Y-15211722D02*
X5117682Y-15202198D01*
X5117682Y-15202198D02*
X5127205Y-15192674D01*
X5127205Y-15192674D02*
X5127205Y-15211722D01*
D10*
X3455000Y-15625000D02*
X3495000Y-15665000D01*
X3495000Y-15625000D02*
X3455000Y-15665000D01*
D12*
X3793872Y-15536484D02*
X3812920Y-15536484D01*
X3812920Y-15536484D02*
X3831967Y-15546008D01*
X3831967Y-15546008D02*
X3841491Y-15555531D01*
X3841491Y-15555531D02*
X3851015Y-15574579D01*
X3851015Y-15574579D02*
X3860539Y-15612674D01*
X3860539Y-15612674D02*
X3860539Y-15660293D01*
X3860539Y-15660293D02*
X3851015Y-15698388D01*
X3851015Y-15698388D02*
X3841491Y-15717436D01*
X3841491Y-15717436D02*
X3831967Y-15726960D01*
X3831967Y-15726960D02*
X3812920Y-15736484D01*
X3812920Y-15736484D02*
X3793872Y-15736484D01*
X3793872Y-15736484D02*
X3774824Y-15726960D01*
X3774824Y-15726960D02*
X3765301Y-15717436D01*
X3765301Y-15717436D02*
X3755777Y-15698388D01*
X3755777Y-15698388D02*
X3746253Y-15660293D01*
X3746253Y-15660293D02*
X3746253Y-15612674D01*
X3746253Y-15612674D02*
X3755777Y-15574579D01*
X3755777Y-15574579D02*
X3765301Y-15555531D01*
X3765301Y-15555531D02*
X3774824Y-15546008D01*
X3774824Y-15546008D02*
X3793872Y-15536484D01*
X3946253Y-15717436D02*
X3955777Y-15726960D01*
X3955777Y-15726960D02*
X3946253Y-15736484D01*
X3946253Y-15736484D02*
X3936729Y-15726960D01*
X3936729Y-15726960D02*
X3946253Y-15717436D01*
X3946253Y-15717436D02*
X3946253Y-15736484D01*
X4127205Y-15603150D02*
X4127205Y-15736484D01*
X4079586Y-15526960D02*
X4031967Y-15669817D01*
X4031967Y-15669817D02*
X4155777Y-15669817D01*
X4270063Y-15536484D02*
X4289110Y-15536484D01*
X4289110Y-15536484D02*
X4308158Y-15546008D01*
X4308158Y-15546008D02*
X4317682Y-15555531D01*
X4317682Y-15555531D02*
X4327205Y-15574579D01*
X4327205Y-15574579D02*
X4336729Y-15612674D01*
X4336729Y-15612674D02*
X4336729Y-15660293D01*
X4336729Y-15660293D02*
X4327205Y-15698388D01*
X4327205Y-15698388D02*
X4317682Y-15717436D01*
X4317682Y-15717436D02*
X4308158Y-15726960D01*
X4308158Y-15726960D02*
X4289110Y-15736484D01*
X4289110Y-15736484D02*
X4270063Y-15736484D01*
X4270063Y-15736484D02*
X4251015Y-15726960D01*
X4251015Y-15726960D02*
X4241491Y-15717436D01*
X4241491Y-15717436D02*
X4231967Y-15698388D01*
X4231967Y-15698388D02*
X4222444Y-15660293D01*
X4222444Y-15660293D02*
X4222444Y-15612674D01*
X4222444Y-15612674D02*
X4231967Y-15574579D01*
X4231967Y-15574579D02*
X4241491Y-15555531D01*
X4241491Y-15555531D02*
X4251015Y-15546008D01*
X4251015Y-15546008D02*
X4270063Y-15536484D01*
X4460539Y-15536484D02*
X4479586Y-15536484D01*
X4479586Y-15536484D02*
X4498634Y-15546008D01*
X4498634Y-15546008D02*
X4508158Y-15555531D01*
X4508158Y-15555531D02*
X4517682Y-15574579D01*
X4517682Y-15574579D02*
X4527205Y-15612674D01*
X4527205Y-15612674D02*
X4527205Y-15660293D01*
X4527205Y-15660293D02*
X4517682Y-15698388D01*
X4517682Y-15698388D02*
X4508158Y-15717436D01*
X4508158Y-15717436D02*
X4498634Y-15726960D01*
X4498634Y-15726960D02*
X4479586Y-15736484D01*
X4479586Y-15736484D02*
X4460539Y-15736484D01*
X4460539Y-15736484D02*
X4441491Y-15726960D01*
X4441491Y-15726960D02*
X4431967Y-15717436D01*
X4431967Y-15717436D02*
X4422444Y-15698388D01*
X4422444Y-15698388D02*
X4412920Y-15660293D01*
X4412920Y-15660293D02*
X4412920Y-15612674D01*
X4412920Y-15612674D02*
X4422444Y-15574579D01*
X4422444Y-15574579D02*
X4431967Y-15555531D01*
X4431967Y-15555531D02*
X4441491Y-15546008D01*
X4441491Y-15546008D02*
X4460539Y-15536484D01*
X4612920Y-15736484D02*
X4612920Y-15603150D01*
X4612920Y-15622198D02*
X4622444Y-15612674D01*
X4622444Y-15612674D02*
X4641491Y-15603150D01*
X4641491Y-15603150D02*
X4670063Y-15603150D01*
X4670063Y-15603150D02*
X4689110Y-15612674D01*
X4689110Y-15612674D02*
X4698634Y-15631722D01*
X4698634Y-15631722D02*
X4698634Y-15736484D01*
X4698634Y-15631722D02*
X4708158Y-15612674D01*
X4708158Y-15612674D02*
X4727205Y-15603150D01*
X4727205Y-15603150D02*
X4755777Y-15603150D01*
X4755777Y-15603150D02*
X4774825Y-15612674D01*
X4774825Y-15612674D02*
X4784348Y-15631722D01*
X4784348Y-15631722D02*
X4784348Y-15736484D01*
X4879586Y-15736484D02*
X4879586Y-15603150D01*
X4879586Y-15622198D02*
X4889110Y-15612674D01*
X4889110Y-15612674D02*
X4908158Y-15603150D01*
X4908158Y-15603150D02*
X4936729Y-15603150D01*
X4936729Y-15603150D02*
X4955777Y-15612674D01*
X4955777Y-15612674D02*
X4965301Y-15631722D01*
X4965301Y-15631722D02*
X4965301Y-15736484D01*
X4965301Y-15631722D02*
X4974825Y-15612674D01*
X4974825Y-15612674D02*
X4993872Y-15603150D01*
X4993872Y-15603150D02*
X5022444Y-15603150D01*
X5022444Y-15603150D02*
X5041491Y-15612674D01*
X5041491Y-15612674D02*
X5051015Y-15631722D01*
X5051015Y-15631722D02*
X5051015Y-15736484D01*
X5441491Y-15526960D02*
X5270063Y-15784103D01*
X5698634Y-15536484D02*
X5717682Y-15536484D01*
X5717682Y-15536484D02*
X5736729Y-15546008D01*
X5736729Y-15546008D02*
X5746253Y-15555531D01*
X5746253Y-15555531D02*
X5755777Y-15574579D01*
X5755777Y-15574579D02*
X5765301Y-15612674D01*
X5765301Y-15612674D02*
X5765301Y-15660293D01*
X5765301Y-15660293D02*
X5755777Y-15698388D01*
X5755777Y-15698388D02*
X5746253Y-15717436D01*
X5746253Y-15717436D02*
X5736729Y-15726960D01*
X5736729Y-15726960D02*
X5717682Y-15736484D01*
X5717682Y-15736484D02*
X5698634Y-15736484D01*
X5698634Y-15736484D02*
X5679586Y-15726960D01*
X5679586Y-15726960D02*
X5670063Y-15717436D01*
X5670063Y-15717436D02*
X5660539Y-15698388D01*
X5660539Y-15698388D02*
X5651015Y-15660293D01*
X5651015Y-15660293D02*
X5651015Y-15612674D01*
X5651015Y-15612674D02*
X5660539Y-15574579D01*
X5660539Y-15574579D02*
X5670063Y-15555531D01*
X5670063Y-15555531D02*
X5679586Y-15546008D01*
X5679586Y-15546008D02*
X5698634Y-15536484D01*
X5851015Y-15717436D02*
X5860539Y-15726960D01*
X5860539Y-15726960D02*
X5851015Y-15736484D01*
X5851015Y-15736484D02*
X5841491Y-15726960D01*
X5841491Y-15726960D02*
X5851015Y-15717436D01*
X5851015Y-15717436D02*
X5851015Y-15736484D01*
X5984348Y-15536484D02*
X6003396Y-15536484D01*
X6003396Y-15536484D02*
X6022444Y-15546008D01*
X6022444Y-15546008D02*
X6031967Y-15555531D01*
X6031967Y-15555531D02*
X6041491Y-15574579D01*
X6041491Y-15574579D02*
X6051015Y-15612674D01*
X6051015Y-15612674D02*
X6051015Y-15660293D01*
X6051015Y-15660293D02*
X6041491Y-15698388D01*
X6041491Y-15698388D02*
X6031967Y-15717436D01*
X6031967Y-15717436D02*
X6022444Y-15726960D01*
X6022444Y-15726960D02*
X6003396Y-15736484D01*
X6003396Y-15736484D02*
X5984348Y-15736484D01*
X5984348Y-15736484D02*
X5965301Y-15726960D01*
X5965301Y-15726960D02*
X5955777Y-15717436D01*
X5955777Y-15717436D02*
X5946253Y-15698388D01*
X5946253Y-15698388D02*
X5936729Y-15660293D01*
X5936729Y-15660293D02*
X5936729Y-15612674D01*
X5936729Y-15612674D02*
X5946253Y-15574579D01*
X5946253Y-15574579D02*
X5955777Y-15555531D01*
X5955777Y-15555531D02*
X5965301Y-15546008D01*
X5965301Y-15546008D02*
X5984348Y-15536484D01*
X6241491Y-15736484D02*
X6127206Y-15736484D01*
X6184348Y-15736484D02*
X6184348Y-15536484D01*
X6184348Y-15536484D02*
X6165301Y-15565055D01*
X6165301Y-15565055D02*
X6146253Y-15584103D01*
X6146253Y-15584103D02*
X6127206Y-15593627D01*
X6422444Y-15536484D02*
X6327206Y-15536484D01*
X6327206Y-15536484D02*
X6317682Y-15631722D01*
X6317682Y-15631722D02*
X6327206Y-15622198D01*
X6327206Y-15622198D02*
X6346253Y-15612674D01*
X6346253Y-15612674D02*
X6393872Y-15612674D01*
X6393872Y-15612674D02*
X6412920Y-15622198D01*
X6412920Y-15622198D02*
X6422444Y-15631722D01*
X6422444Y-15631722D02*
X6431967Y-15650769D01*
X6431967Y-15650769D02*
X6431967Y-15698388D01*
X6431967Y-15698388D02*
X6422444Y-15717436D01*
X6422444Y-15717436D02*
X6412920Y-15726960D01*
X6412920Y-15726960D02*
X6393872Y-15736484D01*
X6393872Y-15736484D02*
X6346253Y-15736484D01*
X6346253Y-15736484D02*
X6327206Y-15726960D01*
X6327206Y-15726960D02*
X6317682Y-15717436D01*
X6498634Y-15536484D02*
X6631967Y-15536484D01*
X6631967Y-15536484D02*
X6546253Y-15736484D01*
X6698634Y-15536484D02*
X6698634Y-15574579D01*
X6774825Y-15536484D02*
X6774825Y-15574579D01*
X7070063Y-15812674D02*
X7060539Y-15803150D01*
X7060539Y-15803150D02*
X7041491Y-15774579D01*
X7041491Y-15774579D02*
X7031968Y-15755531D01*
X7031968Y-15755531D02*
X7022444Y-15726960D01*
X7022444Y-15726960D02*
X7012920Y-15679341D01*
X7012920Y-15679341D02*
X7012920Y-15641246D01*
X7012920Y-15641246D02*
X7022444Y-15593627D01*
X7022444Y-15593627D02*
X7031968Y-15565055D01*
X7031968Y-15565055D02*
X7041491Y-15546008D01*
X7041491Y-15546008D02*
X7060539Y-15517436D01*
X7060539Y-15517436D02*
X7070063Y-15507912D01*
X7127206Y-15536484D02*
X7251015Y-15536484D01*
X7251015Y-15536484D02*
X7184348Y-15612674D01*
X7184348Y-15612674D02*
X7212920Y-15612674D01*
X7212920Y-15612674D02*
X7231968Y-15622198D01*
X7231968Y-15622198D02*
X7241491Y-15631722D01*
X7241491Y-15631722D02*
X7251015Y-15650769D01*
X7251015Y-15650769D02*
X7251015Y-15698388D01*
X7251015Y-15698388D02*
X7241491Y-15717436D01*
X7241491Y-15717436D02*
X7231968Y-15726960D01*
X7231968Y-15726960D02*
X7212920Y-15736484D01*
X7212920Y-15736484D02*
X7155777Y-15736484D01*
X7155777Y-15736484D02*
X7136729Y-15726960D01*
X7136729Y-15726960D02*
X7127206Y-15717436D01*
X7489110Y-15736484D02*
X7489110Y-15536484D01*
X7574825Y-15736484D02*
X7574825Y-15631722D01*
X7574825Y-15631722D02*
X7565301Y-15612674D01*
X7565301Y-15612674D02*
X7546253Y-15603150D01*
X7546253Y-15603150D02*
X7517682Y-15603150D01*
X7517682Y-15603150D02*
X7498634Y-15612674D01*
X7498634Y-15612674D02*
X7489110Y-15622198D01*
X7698634Y-15736484D02*
X7679587Y-15726960D01*
X7679587Y-15726960D02*
X7670063Y-15717436D01*
X7670063Y-15717436D02*
X7660539Y-15698388D01*
X7660539Y-15698388D02*
X7660539Y-15641246D01*
X7660539Y-15641246D02*
X7670063Y-15622198D01*
X7670063Y-15622198D02*
X7679587Y-15612674D01*
X7679587Y-15612674D02*
X7698634Y-15603150D01*
X7698634Y-15603150D02*
X7727206Y-15603150D01*
X7727206Y-15603150D02*
X7746253Y-15612674D01*
X7746253Y-15612674D02*
X7755777Y-15622198D01*
X7755777Y-15622198D02*
X7765301Y-15641246D01*
X7765301Y-15641246D02*
X7765301Y-15698388D01*
X7765301Y-15698388D02*
X7755777Y-15717436D01*
X7755777Y-15717436D02*
X7746253Y-15726960D01*
X7746253Y-15726960D02*
X7727206Y-15736484D01*
X7727206Y-15736484D02*
X7698634Y-15736484D01*
X7879587Y-15736484D02*
X7860539Y-15726960D01*
X7860539Y-15726960D02*
X7851015Y-15707912D01*
X7851015Y-15707912D02*
X7851015Y-15536484D01*
X8031968Y-15726960D02*
X8012920Y-15736484D01*
X8012920Y-15736484D02*
X7974825Y-15736484D01*
X7974825Y-15736484D02*
X7955777Y-15726960D01*
X7955777Y-15726960D02*
X7946253Y-15707912D01*
X7946253Y-15707912D02*
X7946253Y-15631722D01*
X7946253Y-15631722D02*
X7955777Y-15612674D01*
X7955777Y-15612674D02*
X7974825Y-15603150D01*
X7974825Y-15603150D02*
X8012920Y-15603150D01*
X8012920Y-15603150D02*
X8031968Y-15612674D01*
X8031968Y-15612674D02*
X8041491Y-15631722D01*
X8041491Y-15631722D02*
X8041491Y-15650769D01*
X8041491Y-15650769D02*
X7946253Y-15669817D01*
X8117682Y-15726960D02*
X8136730Y-15736484D01*
X8136730Y-15736484D02*
X8174825Y-15736484D01*
X8174825Y-15736484D02*
X8193872Y-15726960D01*
X8193872Y-15726960D02*
X8203396Y-15707912D01*
X8203396Y-15707912D02*
X8203396Y-15698388D01*
X8203396Y-15698388D02*
X8193872Y-15679341D01*
X8193872Y-15679341D02*
X8174825Y-15669817D01*
X8174825Y-15669817D02*
X8146253Y-15669817D01*
X8146253Y-15669817D02*
X8127206Y-15660293D01*
X8127206Y-15660293D02*
X8117682Y-15641246D01*
X8117682Y-15641246D02*
X8117682Y-15631722D01*
X8117682Y-15631722D02*
X8127206Y-15612674D01*
X8127206Y-15612674D02*
X8146253Y-15603150D01*
X8146253Y-15603150D02*
X8174825Y-15603150D01*
X8174825Y-15603150D02*
X8193872Y-15612674D01*
X8270063Y-15812674D02*
X8279587Y-15803150D01*
X8279587Y-15803150D02*
X8298634Y-15774579D01*
X8298634Y-15774579D02*
X8308158Y-15755531D01*
X8308158Y-15755531D02*
X8317682Y-15726960D01*
X8317682Y-15726960D02*
X8327206Y-15679341D01*
X8327206Y-15679341D02*
X8327206Y-15641246D01*
X8327206Y-15641246D02*
X8317682Y-15593627D01*
X8317682Y-15593627D02*
X8308158Y-15565055D01*
X8308158Y-15565055D02*
X8298634Y-15546008D01*
X8298634Y-15546008D02*
X8279587Y-15517436D01*
X8279587Y-15517436D02*
X8270063Y-15507912D01*
D10*
X3495000Y-15909000D02*
G75*
G02*
X3415000Y-15909000I-40000J0D01*
G01*
X3415000Y-15909000D02*
G75*
G02*
X3495000Y-15909000I40000J0D01*
G01*
D12*
X3793872Y-15800484D02*
X3812920Y-15800484D01*
X3812920Y-15800484D02*
X3831967Y-15810008D01*
X3831967Y-15810008D02*
X3841491Y-15819531D01*
X3841491Y-15819531D02*
X3851015Y-15838579D01*
X3851015Y-15838579D02*
X3860539Y-15876674D01*
X3860539Y-15876674D02*
X3860539Y-15924293D01*
X3860539Y-15924293D02*
X3851015Y-15962388D01*
X3851015Y-15962388D02*
X3841491Y-15981436D01*
X3841491Y-15981436D02*
X3831967Y-15990960D01*
X3831967Y-15990960D02*
X3812920Y-16000484D01*
X3812920Y-16000484D02*
X3793872Y-16000484D01*
X3793872Y-16000484D02*
X3774824Y-15990960D01*
X3774824Y-15990960D02*
X3765301Y-15981436D01*
X3765301Y-15981436D02*
X3755777Y-15962388D01*
X3755777Y-15962388D02*
X3746253Y-15924293D01*
X3746253Y-15924293D02*
X3746253Y-15876674D01*
X3746253Y-15876674D02*
X3755777Y-15838579D01*
X3755777Y-15838579D02*
X3765301Y-15819531D01*
X3765301Y-15819531D02*
X3774824Y-15810008D01*
X3774824Y-15810008D02*
X3793872Y-15800484D01*
X3946253Y-15981436D02*
X3955777Y-15990960D01*
X3955777Y-15990960D02*
X3946253Y-16000484D01*
X3946253Y-16000484D02*
X3936729Y-15990960D01*
X3936729Y-15990960D02*
X3946253Y-15981436D01*
X3946253Y-15981436D02*
X3946253Y-16000484D01*
X4070062Y-15886198D02*
X4051015Y-15876674D01*
X4051015Y-15876674D02*
X4041491Y-15867150D01*
X4041491Y-15867150D02*
X4031967Y-15848103D01*
X4031967Y-15848103D02*
X4031967Y-15838579D01*
X4031967Y-15838579D02*
X4041491Y-15819531D01*
X4041491Y-15819531D02*
X4051015Y-15810008D01*
X4051015Y-15810008D02*
X4070062Y-15800484D01*
X4070062Y-15800484D02*
X4108158Y-15800484D01*
X4108158Y-15800484D02*
X4127205Y-15810008D01*
X4127205Y-15810008D02*
X4136729Y-15819531D01*
X4136729Y-15819531D02*
X4146253Y-15838579D01*
X4146253Y-15838579D02*
X4146253Y-15848103D01*
X4146253Y-15848103D02*
X4136729Y-15867150D01*
X4136729Y-15867150D02*
X4127205Y-15876674D01*
X4127205Y-15876674D02*
X4108158Y-15886198D01*
X4108158Y-15886198D02*
X4070062Y-15886198D01*
X4070062Y-15886198D02*
X4051015Y-15895722D01*
X4051015Y-15895722D02*
X4041491Y-15905246D01*
X4041491Y-15905246D02*
X4031967Y-15924293D01*
X4031967Y-15924293D02*
X4031967Y-15962388D01*
X4031967Y-15962388D02*
X4041491Y-15981436D01*
X4041491Y-15981436D02*
X4051015Y-15990960D01*
X4051015Y-15990960D02*
X4070062Y-16000484D01*
X4070062Y-16000484D02*
X4108158Y-16000484D01*
X4108158Y-16000484D02*
X4127205Y-15990960D01*
X4127205Y-15990960D02*
X4136729Y-15981436D01*
X4136729Y-15981436D02*
X4146253Y-15962388D01*
X4146253Y-15962388D02*
X4146253Y-15924293D01*
X4146253Y-15924293D02*
X4136729Y-15905246D01*
X4136729Y-15905246D02*
X4127205Y-15895722D01*
X4127205Y-15895722D02*
X4108158Y-15886198D01*
X4270063Y-15800484D02*
X4289110Y-15800484D01*
X4289110Y-15800484D02*
X4308158Y-15810008D01*
X4308158Y-15810008D02*
X4317682Y-15819531D01*
X4317682Y-15819531D02*
X4327205Y-15838579D01*
X4327205Y-15838579D02*
X4336729Y-15876674D01*
X4336729Y-15876674D02*
X4336729Y-15924293D01*
X4336729Y-15924293D02*
X4327205Y-15962388D01*
X4327205Y-15962388D02*
X4317682Y-15981436D01*
X4317682Y-15981436D02*
X4308158Y-15990960D01*
X4308158Y-15990960D02*
X4289110Y-16000484D01*
X4289110Y-16000484D02*
X4270063Y-16000484D01*
X4270063Y-16000484D02*
X4251015Y-15990960D01*
X4251015Y-15990960D02*
X4241491Y-15981436D01*
X4241491Y-15981436D02*
X4231967Y-15962388D01*
X4231967Y-15962388D02*
X4222444Y-15924293D01*
X4222444Y-15924293D02*
X4222444Y-15876674D01*
X4222444Y-15876674D02*
X4231967Y-15838579D01*
X4231967Y-15838579D02*
X4241491Y-15819531D01*
X4241491Y-15819531D02*
X4251015Y-15810008D01*
X4251015Y-15810008D02*
X4270063Y-15800484D01*
X4460539Y-15800484D02*
X4479586Y-15800484D01*
X4479586Y-15800484D02*
X4498634Y-15810008D01*
X4498634Y-15810008D02*
X4508158Y-15819531D01*
X4508158Y-15819531D02*
X4517682Y-15838579D01*
X4517682Y-15838579D02*
X4527205Y-15876674D01*
X4527205Y-15876674D02*
X4527205Y-15924293D01*
X4527205Y-15924293D02*
X4517682Y-15962388D01*
X4517682Y-15962388D02*
X4508158Y-15981436D01*
X4508158Y-15981436D02*
X4498634Y-15990960D01*
X4498634Y-15990960D02*
X4479586Y-16000484D01*
X4479586Y-16000484D02*
X4460539Y-16000484D01*
X4460539Y-16000484D02*
X4441491Y-15990960D01*
X4441491Y-15990960D02*
X4431967Y-15981436D01*
X4431967Y-15981436D02*
X4422444Y-15962388D01*
X4422444Y-15962388D02*
X4412920Y-15924293D01*
X4412920Y-15924293D02*
X4412920Y-15876674D01*
X4412920Y-15876674D02*
X4422444Y-15838579D01*
X4422444Y-15838579D02*
X4431967Y-15819531D01*
X4431967Y-15819531D02*
X4441491Y-15810008D01*
X4441491Y-15810008D02*
X4460539Y-15800484D01*
X4612920Y-16000484D02*
X4612920Y-15867150D01*
X4612920Y-15886198D02*
X4622444Y-15876674D01*
X4622444Y-15876674D02*
X4641491Y-15867150D01*
X4641491Y-15867150D02*
X4670063Y-15867150D01*
X4670063Y-15867150D02*
X4689110Y-15876674D01*
X4689110Y-15876674D02*
X4698634Y-15895722D01*
X4698634Y-15895722D02*
X4698634Y-16000484D01*
X4698634Y-15895722D02*
X4708158Y-15876674D01*
X4708158Y-15876674D02*
X4727205Y-15867150D01*
X4727205Y-15867150D02*
X4755777Y-15867150D01*
X4755777Y-15867150D02*
X4774825Y-15876674D01*
X4774825Y-15876674D02*
X4784348Y-15895722D01*
X4784348Y-15895722D02*
X4784348Y-16000484D01*
X4879586Y-16000484D02*
X4879586Y-15867150D01*
X4879586Y-15886198D02*
X4889110Y-15876674D01*
X4889110Y-15876674D02*
X4908158Y-15867150D01*
X4908158Y-15867150D02*
X4936729Y-15867150D01*
X4936729Y-15867150D02*
X4955777Y-15876674D01*
X4955777Y-15876674D02*
X4965301Y-15895722D01*
X4965301Y-15895722D02*
X4965301Y-16000484D01*
X4965301Y-15895722D02*
X4974825Y-15876674D01*
X4974825Y-15876674D02*
X4993872Y-15867150D01*
X4993872Y-15867150D02*
X5022444Y-15867150D01*
X5022444Y-15867150D02*
X5041491Y-15876674D01*
X5041491Y-15876674D02*
X5051015Y-15895722D01*
X5051015Y-15895722D02*
X5051015Y-16000484D01*
X5441491Y-15790960D02*
X5270063Y-16048103D01*
X5698634Y-15800484D02*
X5717682Y-15800484D01*
X5717682Y-15800484D02*
X5736729Y-15810008D01*
X5736729Y-15810008D02*
X5746253Y-15819531D01*
X5746253Y-15819531D02*
X5755777Y-15838579D01*
X5755777Y-15838579D02*
X5765301Y-15876674D01*
X5765301Y-15876674D02*
X5765301Y-15924293D01*
X5765301Y-15924293D02*
X5755777Y-15962388D01*
X5755777Y-15962388D02*
X5746253Y-15981436D01*
X5746253Y-15981436D02*
X5736729Y-15990960D01*
X5736729Y-15990960D02*
X5717682Y-16000484D01*
X5717682Y-16000484D02*
X5698634Y-16000484D01*
X5698634Y-16000484D02*
X5679586Y-15990960D01*
X5679586Y-15990960D02*
X5670063Y-15981436D01*
X5670063Y-15981436D02*
X5660539Y-15962388D01*
X5660539Y-15962388D02*
X5651015Y-15924293D01*
X5651015Y-15924293D02*
X5651015Y-15876674D01*
X5651015Y-15876674D02*
X5660539Y-15838579D01*
X5660539Y-15838579D02*
X5670063Y-15819531D01*
X5670063Y-15819531D02*
X5679586Y-15810008D01*
X5679586Y-15810008D02*
X5698634Y-15800484D01*
X5851015Y-15981436D02*
X5860539Y-15990960D01*
X5860539Y-15990960D02*
X5851015Y-16000484D01*
X5851015Y-16000484D02*
X5841491Y-15990960D01*
X5841491Y-15990960D02*
X5851015Y-15981436D01*
X5851015Y-15981436D02*
X5851015Y-16000484D01*
X5984348Y-15800484D02*
X6003396Y-15800484D01*
X6003396Y-15800484D02*
X6022444Y-15810008D01*
X6022444Y-15810008D02*
X6031967Y-15819531D01*
X6031967Y-15819531D02*
X6041491Y-15838579D01*
X6041491Y-15838579D02*
X6051015Y-15876674D01*
X6051015Y-15876674D02*
X6051015Y-15924293D01*
X6051015Y-15924293D02*
X6041491Y-15962388D01*
X6041491Y-15962388D02*
X6031967Y-15981436D01*
X6031967Y-15981436D02*
X6022444Y-15990960D01*
X6022444Y-15990960D02*
X6003396Y-16000484D01*
X6003396Y-16000484D02*
X5984348Y-16000484D01*
X5984348Y-16000484D02*
X5965301Y-15990960D01*
X5965301Y-15990960D02*
X5955777Y-15981436D01*
X5955777Y-15981436D02*
X5946253Y-15962388D01*
X5946253Y-15962388D02*
X5936729Y-15924293D01*
X5936729Y-15924293D02*
X5936729Y-15876674D01*
X5936729Y-15876674D02*
X5946253Y-15838579D01*
X5946253Y-15838579D02*
X5955777Y-15819531D01*
X5955777Y-15819531D02*
X5965301Y-15810008D01*
X5965301Y-15810008D02*
X5984348Y-15800484D01*
X6117682Y-15800484D02*
X6241491Y-15800484D01*
X6241491Y-15800484D02*
X6174825Y-15876674D01*
X6174825Y-15876674D02*
X6203396Y-15876674D01*
X6203396Y-15876674D02*
X6222444Y-15886198D01*
X6222444Y-15886198D02*
X6231967Y-15895722D01*
X6231967Y-15895722D02*
X6241491Y-15914769D01*
X6241491Y-15914769D02*
X6241491Y-15962388D01*
X6241491Y-15962388D02*
X6231967Y-15981436D01*
X6231967Y-15981436D02*
X6222444Y-15990960D01*
X6222444Y-15990960D02*
X6203396Y-16000484D01*
X6203396Y-16000484D02*
X6146253Y-16000484D01*
X6146253Y-16000484D02*
X6127206Y-15990960D01*
X6127206Y-15990960D02*
X6117682Y-15981436D01*
X6431967Y-16000484D02*
X6317682Y-16000484D01*
X6374825Y-16000484D02*
X6374825Y-15800484D01*
X6374825Y-15800484D02*
X6355777Y-15829055D01*
X6355777Y-15829055D02*
X6336729Y-15848103D01*
X6336729Y-15848103D02*
X6317682Y-15857627D01*
X6612920Y-15800484D02*
X6517682Y-15800484D01*
X6517682Y-15800484D02*
X6508158Y-15895722D01*
X6508158Y-15895722D02*
X6517682Y-15886198D01*
X6517682Y-15886198D02*
X6536729Y-15876674D01*
X6536729Y-15876674D02*
X6584348Y-15876674D01*
X6584348Y-15876674D02*
X6603396Y-15886198D01*
X6603396Y-15886198D02*
X6612920Y-15895722D01*
X6612920Y-15895722D02*
X6622444Y-15914769D01*
X6622444Y-15914769D02*
X6622444Y-15962388D01*
X6622444Y-15962388D02*
X6612920Y-15981436D01*
X6612920Y-15981436D02*
X6603396Y-15990960D01*
X6603396Y-15990960D02*
X6584348Y-16000484D01*
X6584348Y-16000484D02*
X6536729Y-16000484D01*
X6536729Y-16000484D02*
X6517682Y-15990960D01*
X6517682Y-15990960D02*
X6508158Y-15981436D01*
X6698634Y-15800484D02*
X6698634Y-15838579D01*
X6774825Y-15800484D02*
X6774825Y-15838579D01*
X7070063Y-16076674D02*
X7060539Y-16067150D01*
X7060539Y-16067150D02*
X7041491Y-16038579D01*
X7041491Y-16038579D02*
X7031968Y-16019531D01*
X7031968Y-16019531D02*
X7022444Y-15990960D01*
X7022444Y-15990960D02*
X7012920Y-15943341D01*
X7012920Y-15943341D02*
X7012920Y-15905246D01*
X7012920Y-15905246D02*
X7022444Y-15857627D01*
X7022444Y-15857627D02*
X7031968Y-15829055D01*
X7031968Y-15829055D02*
X7041491Y-15810008D01*
X7041491Y-15810008D02*
X7060539Y-15781436D01*
X7060539Y-15781436D02*
X7070063Y-15771912D01*
X7184348Y-15800484D02*
X7203396Y-15800484D01*
X7203396Y-15800484D02*
X7222444Y-15810008D01*
X7222444Y-15810008D02*
X7231968Y-15819531D01*
X7231968Y-15819531D02*
X7241491Y-15838579D01*
X7241491Y-15838579D02*
X7251015Y-15876674D01*
X7251015Y-15876674D02*
X7251015Y-15924293D01*
X7251015Y-15924293D02*
X7241491Y-15962388D01*
X7241491Y-15962388D02*
X7231968Y-15981436D01*
X7231968Y-15981436D02*
X7222444Y-15990960D01*
X7222444Y-15990960D02*
X7203396Y-16000484D01*
X7203396Y-16000484D02*
X7184348Y-16000484D01*
X7184348Y-16000484D02*
X7165301Y-15990960D01*
X7165301Y-15990960D02*
X7155777Y-15981436D01*
X7155777Y-15981436D02*
X7146253Y-15962388D01*
X7146253Y-15962388D02*
X7136729Y-15924293D01*
X7136729Y-15924293D02*
X7136729Y-15876674D01*
X7136729Y-15876674D02*
X7146253Y-15838579D01*
X7146253Y-15838579D02*
X7155777Y-15819531D01*
X7155777Y-15819531D02*
X7165301Y-15810008D01*
X7165301Y-15810008D02*
X7184348Y-15800484D01*
X7489110Y-16000484D02*
X7489110Y-15800484D01*
X7574825Y-16000484D02*
X7574825Y-15895722D01*
X7574825Y-15895722D02*
X7565301Y-15876674D01*
X7565301Y-15876674D02*
X7546253Y-15867150D01*
X7546253Y-15867150D02*
X7517682Y-15867150D01*
X7517682Y-15867150D02*
X7498634Y-15876674D01*
X7498634Y-15876674D02*
X7489110Y-15886198D01*
X7698634Y-16000484D02*
X7679587Y-15990960D01*
X7679587Y-15990960D02*
X7670063Y-15981436D01*
X7670063Y-15981436D02*
X7660539Y-15962388D01*
X7660539Y-15962388D02*
X7660539Y-15905246D01*
X7660539Y-15905246D02*
X7670063Y-15886198D01*
X7670063Y-15886198D02*
X7679587Y-15876674D01*
X7679587Y-15876674D02*
X7698634Y-15867150D01*
X7698634Y-15867150D02*
X7727206Y-15867150D01*
X7727206Y-15867150D02*
X7746253Y-15876674D01*
X7746253Y-15876674D02*
X7755777Y-15886198D01*
X7755777Y-15886198D02*
X7765301Y-15905246D01*
X7765301Y-15905246D02*
X7765301Y-15962388D01*
X7765301Y-15962388D02*
X7755777Y-15981436D01*
X7755777Y-15981436D02*
X7746253Y-15990960D01*
X7746253Y-15990960D02*
X7727206Y-16000484D01*
X7727206Y-16000484D02*
X7698634Y-16000484D01*
X7879587Y-16000484D02*
X7860539Y-15990960D01*
X7860539Y-15990960D02*
X7851015Y-15971912D01*
X7851015Y-15971912D02*
X7851015Y-15800484D01*
X8031968Y-15990960D02*
X8012920Y-16000484D01*
X8012920Y-16000484D02*
X7974825Y-16000484D01*
X7974825Y-16000484D02*
X7955777Y-15990960D01*
X7955777Y-15990960D02*
X7946253Y-15971912D01*
X7946253Y-15971912D02*
X7946253Y-15895722D01*
X7946253Y-15895722D02*
X7955777Y-15876674D01*
X7955777Y-15876674D02*
X7974825Y-15867150D01*
X7974825Y-15867150D02*
X8012920Y-15867150D01*
X8012920Y-15867150D02*
X8031968Y-15876674D01*
X8031968Y-15876674D02*
X8041491Y-15895722D01*
X8041491Y-15895722D02*
X8041491Y-15914769D01*
X8041491Y-15914769D02*
X7946253Y-15933817D01*
X8117682Y-15990960D02*
X8136730Y-16000484D01*
X8136730Y-16000484D02*
X8174825Y-16000484D01*
X8174825Y-16000484D02*
X8193872Y-15990960D01*
X8193872Y-15990960D02*
X8203396Y-15971912D01*
X8203396Y-15971912D02*
X8203396Y-15962388D01*
X8203396Y-15962388D02*
X8193872Y-15943341D01*
X8193872Y-15943341D02*
X8174825Y-15933817D01*
X8174825Y-15933817D02*
X8146253Y-15933817D01*
X8146253Y-15933817D02*
X8127206Y-15924293D01*
X8127206Y-15924293D02*
X8117682Y-15905246D01*
X8117682Y-15905246D02*
X8117682Y-15895722D01*
X8117682Y-15895722D02*
X8127206Y-15876674D01*
X8127206Y-15876674D02*
X8146253Y-15867150D01*
X8146253Y-15867150D02*
X8174825Y-15867150D01*
X8174825Y-15867150D02*
X8193872Y-15876674D01*
X8441492Y-15924293D02*
X8593873Y-15924293D01*
X8517682Y-16000484D02*
X8517682Y-15848103D01*
X8927206Y-15867150D02*
X8927206Y-16000484D01*
X8879587Y-15790960D02*
X8831968Y-15933817D01*
X8831968Y-15933817D02*
X8955777Y-15933817D01*
X9174825Y-15990960D02*
X9193873Y-16000484D01*
X9193873Y-16000484D02*
X9231968Y-16000484D01*
X9231968Y-16000484D02*
X9251016Y-15990960D01*
X9251016Y-15990960D02*
X9260539Y-15971912D01*
X9260539Y-15971912D02*
X9260539Y-15962388D01*
X9260539Y-15962388D02*
X9251016Y-15943341D01*
X9251016Y-15943341D02*
X9231968Y-15933817D01*
X9231968Y-15933817D02*
X9203396Y-15933817D01*
X9203396Y-15933817D02*
X9184349Y-15924293D01*
X9184349Y-15924293D02*
X9174825Y-15905246D01*
X9174825Y-15905246D02*
X9174825Y-15895722D01*
X9174825Y-15895722D02*
X9184349Y-15876674D01*
X9184349Y-15876674D02*
X9203396Y-15867150D01*
X9203396Y-15867150D02*
X9231968Y-15867150D01*
X9231968Y-15867150D02*
X9251016Y-15876674D01*
X9374825Y-16000484D02*
X9355777Y-15990960D01*
X9355777Y-15990960D02*
X9346254Y-15971912D01*
X9346254Y-15971912D02*
X9346254Y-15800484D01*
X9479587Y-16000484D02*
X9460539Y-15990960D01*
X9460539Y-15990960D02*
X9451016Y-15981436D01*
X9451016Y-15981436D02*
X9441492Y-15962388D01*
X9441492Y-15962388D02*
X9441492Y-15905246D01*
X9441492Y-15905246D02*
X9451016Y-15886198D01*
X9451016Y-15886198D02*
X9460539Y-15876674D01*
X9460539Y-15876674D02*
X9479587Y-15867150D01*
X9479587Y-15867150D02*
X9508158Y-15867150D01*
X9508158Y-15867150D02*
X9527206Y-15876674D01*
X9527206Y-15876674D02*
X9536730Y-15886198D01*
X9536730Y-15886198D02*
X9546254Y-15905246D01*
X9546254Y-15905246D02*
X9546254Y-15962388D01*
X9546254Y-15962388D02*
X9536730Y-15981436D01*
X9536730Y-15981436D02*
X9527206Y-15990960D01*
X9527206Y-15990960D02*
X9508158Y-16000484D01*
X9508158Y-16000484D02*
X9479587Y-16000484D01*
X9603397Y-15867150D02*
X9679587Y-15867150D01*
X9631968Y-15800484D02*
X9631968Y-15971912D01*
X9631968Y-15971912D02*
X9641492Y-15990960D01*
X9641492Y-15990960D02*
X9660539Y-16000484D01*
X9660539Y-16000484D02*
X9679587Y-16000484D01*
X9736730Y-15990960D02*
X9755777Y-16000484D01*
X9755777Y-16000484D02*
X9793873Y-16000484D01*
X9793873Y-16000484D02*
X9812920Y-15990960D01*
X9812920Y-15990960D02*
X9822444Y-15971912D01*
X9822444Y-15971912D02*
X9822444Y-15962388D01*
X9822444Y-15962388D02*
X9812920Y-15943341D01*
X9812920Y-15943341D02*
X9793873Y-15933817D01*
X9793873Y-15933817D02*
X9765301Y-15933817D01*
X9765301Y-15933817D02*
X9746254Y-15924293D01*
X9746254Y-15924293D02*
X9736730Y-15905246D01*
X9736730Y-15905246D02*
X9736730Y-15895722D01*
X9736730Y-15895722D02*
X9746254Y-15876674D01*
X9746254Y-15876674D02*
X9765301Y-15867150D01*
X9765301Y-15867150D02*
X9793873Y-15867150D01*
X9793873Y-15867150D02*
X9812920Y-15876674D01*
X9889111Y-16076674D02*
X9898635Y-16067150D01*
X9898635Y-16067150D02*
X9917682Y-16038579D01*
X9917682Y-16038579D02*
X9927206Y-16019531D01*
X9927206Y-16019531D02*
X9936730Y-15990960D01*
X9936730Y-15990960D02*
X9946254Y-15943341D01*
X9946254Y-15943341D02*
X9946254Y-15905246D01*
X9946254Y-15905246D02*
X9936730Y-15857627D01*
X9936730Y-15857627D02*
X9927206Y-15829055D01*
X9927206Y-15829055D02*
X9917682Y-15810008D01*
X9917682Y-15810008D02*
X9898635Y-15781436D01*
X9898635Y-15781436D02*
X9889111Y-15771912D01*
D10*
X3454360Y-16132360D02*
X3454360Y-16213640D01*
X3413720Y-16173000D02*
X3495000Y-16173000D01*
D12*
X3793872Y-16064484D02*
X3812920Y-16064484D01*
X3812920Y-16064484D02*
X3831967Y-16074008D01*
X3831967Y-16074008D02*
X3841491Y-16083531D01*
X3841491Y-16083531D02*
X3851015Y-16102579D01*
X3851015Y-16102579D02*
X3860539Y-16140674D01*
X3860539Y-16140674D02*
X3860539Y-16188293D01*
X3860539Y-16188293D02*
X3851015Y-16226388D01*
X3851015Y-16226388D02*
X3841491Y-16245436D01*
X3841491Y-16245436D02*
X3831967Y-16254960D01*
X3831967Y-16254960D02*
X3812920Y-16264484D01*
X3812920Y-16264484D02*
X3793872Y-16264484D01*
X3793872Y-16264484D02*
X3774824Y-16254960D01*
X3774824Y-16254960D02*
X3765301Y-16245436D01*
X3765301Y-16245436D02*
X3755777Y-16226388D01*
X3755777Y-16226388D02*
X3746253Y-16188293D01*
X3746253Y-16188293D02*
X3746253Y-16140674D01*
X3746253Y-16140674D02*
X3755777Y-16102579D01*
X3755777Y-16102579D02*
X3765301Y-16083531D01*
X3765301Y-16083531D02*
X3774824Y-16074008D01*
X3774824Y-16074008D02*
X3793872Y-16064484D01*
X3946253Y-16245436D02*
X3955777Y-16254960D01*
X3955777Y-16254960D02*
X3946253Y-16264484D01*
X3946253Y-16264484D02*
X3936729Y-16254960D01*
X3936729Y-16254960D02*
X3946253Y-16245436D01*
X3946253Y-16245436D02*
X3946253Y-16264484D01*
X4070062Y-16150198D02*
X4051015Y-16140674D01*
X4051015Y-16140674D02*
X4041491Y-16131150D01*
X4041491Y-16131150D02*
X4031967Y-16112103D01*
X4031967Y-16112103D02*
X4031967Y-16102579D01*
X4031967Y-16102579D02*
X4041491Y-16083531D01*
X4041491Y-16083531D02*
X4051015Y-16074008D01*
X4051015Y-16074008D02*
X4070062Y-16064484D01*
X4070062Y-16064484D02*
X4108158Y-16064484D01*
X4108158Y-16064484D02*
X4127205Y-16074008D01*
X4127205Y-16074008D02*
X4136729Y-16083531D01*
X4136729Y-16083531D02*
X4146253Y-16102579D01*
X4146253Y-16102579D02*
X4146253Y-16112103D01*
X4146253Y-16112103D02*
X4136729Y-16131150D01*
X4136729Y-16131150D02*
X4127205Y-16140674D01*
X4127205Y-16140674D02*
X4108158Y-16150198D01*
X4108158Y-16150198D02*
X4070062Y-16150198D01*
X4070062Y-16150198D02*
X4051015Y-16159722D01*
X4051015Y-16159722D02*
X4041491Y-16169246D01*
X4041491Y-16169246D02*
X4031967Y-16188293D01*
X4031967Y-16188293D02*
X4031967Y-16226388D01*
X4031967Y-16226388D02*
X4041491Y-16245436D01*
X4041491Y-16245436D02*
X4051015Y-16254960D01*
X4051015Y-16254960D02*
X4070062Y-16264484D01*
X4070062Y-16264484D02*
X4108158Y-16264484D01*
X4108158Y-16264484D02*
X4127205Y-16254960D01*
X4127205Y-16254960D02*
X4136729Y-16245436D01*
X4136729Y-16245436D02*
X4146253Y-16226388D01*
X4146253Y-16226388D02*
X4146253Y-16188293D01*
X4146253Y-16188293D02*
X4136729Y-16169246D01*
X4136729Y-16169246D02*
X4127205Y-16159722D01*
X4127205Y-16159722D02*
X4108158Y-16150198D01*
X4336729Y-16264484D02*
X4222444Y-16264484D01*
X4279586Y-16264484D02*
X4279586Y-16064484D01*
X4279586Y-16064484D02*
X4260539Y-16093055D01*
X4260539Y-16093055D02*
X4241491Y-16112103D01*
X4241491Y-16112103D02*
X4222444Y-16121627D01*
X4403396Y-16064484D02*
X4527205Y-16064484D01*
X4527205Y-16064484D02*
X4460539Y-16140674D01*
X4460539Y-16140674D02*
X4489110Y-16140674D01*
X4489110Y-16140674D02*
X4508158Y-16150198D01*
X4508158Y-16150198D02*
X4517682Y-16159722D01*
X4517682Y-16159722D02*
X4527205Y-16178769D01*
X4527205Y-16178769D02*
X4527205Y-16226388D01*
X4527205Y-16226388D02*
X4517682Y-16245436D01*
X4517682Y-16245436D02*
X4508158Y-16254960D01*
X4508158Y-16254960D02*
X4489110Y-16264484D01*
X4489110Y-16264484D02*
X4431967Y-16264484D01*
X4431967Y-16264484D02*
X4412920Y-16254960D01*
X4412920Y-16254960D02*
X4403396Y-16245436D01*
X4612920Y-16264484D02*
X4612920Y-16131150D01*
X4612920Y-16150198D02*
X4622444Y-16140674D01*
X4622444Y-16140674D02*
X4641491Y-16131150D01*
X4641491Y-16131150D02*
X4670063Y-16131150D01*
X4670063Y-16131150D02*
X4689110Y-16140674D01*
X4689110Y-16140674D02*
X4698634Y-16159722D01*
X4698634Y-16159722D02*
X4698634Y-16264484D01*
X4698634Y-16159722D02*
X4708158Y-16140674D01*
X4708158Y-16140674D02*
X4727205Y-16131150D01*
X4727205Y-16131150D02*
X4755777Y-16131150D01*
X4755777Y-16131150D02*
X4774825Y-16140674D01*
X4774825Y-16140674D02*
X4784348Y-16159722D01*
X4784348Y-16159722D02*
X4784348Y-16264484D01*
X4879586Y-16264484D02*
X4879586Y-16131150D01*
X4879586Y-16150198D02*
X4889110Y-16140674D01*
X4889110Y-16140674D02*
X4908158Y-16131150D01*
X4908158Y-16131150D02*
X4936729Y-16131150D01*
X4936729Y-16131150D02*
X4955777Y-16140674D01*
X4955777Y-16140674D02*
X4965301Y-16159722D01*
X4965301Y-16159722D02*
X4965301Y-16264484D01*
X4965301Y-16159722D02*
X4974825Y-16140674D01*
X4974825Y-16140674D02*
X4993872Y-16131150D01*
X4993872Y-16131150D02*
X5022444Y-16131150D01*
X5022444Y-16131150D02*
X5041491Y-16140674D01*
X5041491Y-16140674D02*
X5051015Y-16159722D01*
X5051015Y-16159722D02*
X5051015Y-16264484D01*
X5441491Y-16054960D02*
X5270063Y-16312103D01*
X5698634Y-16064484D02*
X5717682Y-16064484D01*
X5717682Y-16064484D02*
X5736729Y-16074008D01*
X5736729Y-16074008D02*
X5746253Y-16083531D01*
X5746253Y-16083531D02*
X5755777Y-16102579D01*
X5755777Y-16102579D02*
X5765301Y-16140674D01*
X5765301Y-16140674D02*
X5765301Y-16188293D01*
X5765301Y-16188293D02*
X5755777Y-16226388D01*
X5755777Y-16226388D02*
X5746253Y-16245436D01*
X5746253Y-16245436D02*
X5736729Y-16254960D01*
X5736729Y-16254960D02*
X5717682Y-16264484D01*
X5717682Y-16264484D02*
X5698634Y-16264484D01*
X5698634Y-16264484D02*
X5679586Y-16254960D01*
X5679586Y-16254960D02*
X5670063Y-16245436D01*
X5670063Y-16245436D02*
X5660539Y-16226388D01*
X5660539Y-16226388D02*
X5651015Y-16188293D01*
X5651015Y-16188293D02*
X5651015Y-16140674D01*
X5651015Y-16140674D02*
X5660539Y-16102579D01*
X5660539Y-16102579D02*
X5670063Y-16083531D01*
X5670063Y-16083531D02*
X5679586Y-16074008D01*
X5679586Y-16074008D02*
X5698634Y-16064484D01*
X5851015Y-16245436D02*
X5860539Y-16254960D01*
X5860539Y-16254960D02*
X5851015Y-16264484D01*
X5851015Y-16264484D02*
X5841491Y-16254960D01*
X5841491Y-16254960D02*
X5851015Y-16245436D01*
X5851015Y-16245436D02*
X5851015Y-16264484D01*
X5984348Y-16064484D02*
X6003396Y-16064484D01*
X6003396Y-16064484D02*
X6022444Y-16074008D01*
X6022444Y-16074008D02*
X6031967Y-16083531D01*
X6031967Y-16083531D02*
X6041491Y-16102579D01*
X6041491Y-16102579D02*
X6051015Y-16140674D01*
X6051015Y-16140674D02*
X6051015Y-16188293D01*
X6051015Y-16188293D02*
X6041491Y-16226388D01*
X6041491Y-16226388D02*
X6031967Y-16245436D01*
X6031967Y-16245436D02*
X6022444Y-16254960D01*
X6022444Y-16254960D02*
X6003396Y-16264484D01*
X6003396Y-16264484D02*
X5984348Y-16264484D01*
X5984348Y-16264484D02*
X5965301Y-16254960D01*
X5965301Y-16254960D02*
X5955777Y-16245436D01*
X5955777Y-16245436D02*
X5946253Y-16226388D01*
X5946253Y-16226388D02*
X5936729Y-16188293D01*
X5936729Y-16188293D02*
X5936729Y-16140674D01*
X5936729Y-16140674D02*
X5946253Y-16102579D01*
X5946253Y-16102579D02*
X5955777Y-16083531D01*
X5955777Y-16083531D02*
X5965301Y-16074008D01*
X5965301Y-16074008D02*
X5984348Y-16064484D01*
X6117682Y-16064484D02*
X6241491Y-16064484D01*
X6241491Y-16064484D02*
X6174825Y-16140674D01*
X6174825Y-16140674D02*
X6203396Y-16140674D01*
X6203396Y-16140674D02*
X6222444Y-16150198D01*
X6222444Y-16150198D02*
X6231967Y-16159722D01*
X6231967Y-16159722D02*
X6241491Y-16178769D01*
X6241491Y-16178769D02*
X6241491Y-16226388D01*
X6241491Y-16226388D02*
X6231967Y-16245436D01*
X6231967Y-16245436D02*
X6222444Y-16254960D01*
X6222444Y-16254960D02*
X6203396Y-16264484D01*
X6203396Y-16264484D02*
X6146253Y-16264484D01*
X6146253Y-16264484D02*
X6127206Y-16254960D01*
X6127206Y-16254960D02*
X6117682Y-16245436D01*
X6317682Y-16083531D02*
X6327206Y-16074008D01*
X6327206Y-16074008D02*
X6346253Y-16064484D01*
X6346253Y-16064484D02*
X6393872Y-16064484D01*
X6393872Y-16064484D02*
X6412920Y-16074008D01*
X6412920Y-16074008D02*
X6422444Y-16083531D01*
X6422444Y-16083531D02*
X6431967Y-16102579D01*
X6431967Y-16102579D02*
X6431967Y-16121627D01*
X6431967Y-16121627D02*
X6422444Y-16150198D01*
X6422444Y-16150198D02*
X6308158Y-16264484D01*
X6308158Y-16264484D02*
X6431967Y-16264484D01*
X6555777Y-16064484D02*
X6574825Y-16064484D01*
X6574825Y-16064484D02*
X6593872Y-16074008D01*
X6593872Y-16074008D02*
X6603396Y-16083531D01*
X6603396Y-16083531D02*
X6612920Y-16102579D01*
X6612920Y-16102579D02*
X6622444Y-16140674D01*
X6622444Y-16140674D02*
X6622444Y-16188293D01*
X6622444Y-16188293D02*
X6612920Y-16226388D01*
X6612920Y-16226388D02*
X6603396Y-16245436D01*
X6603396Y-16245436D02*
X6593872Y-16254960D01*
X6593872Y-16254960D02*
X6574825Y-16264484D01*
X6574825Y-16264484D02*
X6555777Y-16264484D01*
X6555777Y-16264484D02*
X6536729Y-16254960D01*
X6536729Y-16254960D02*
X6527206Y-16245436D01*
X6527206Y-16245436D02*
X6517682Y-16226388D01*
X6517682Y-16226388D02*
X6508158Y-16188293D01*
X6508158Y-16188293D02*
X6508158Y-16140674D01*
X6508158Y-16140674D02*
X6517682Y-16102579D01*
X6517682Y-16102579D02*
X6527206Y-16083531D01*
X6527206Y-16083531D02*
X6536729Y-16074008D01*
X6536729Y-16074008D02*
X6555777Y-16064484D01*
X6698634Y-16064484D02*
X6698634Y-16102579D01*
X6774825Y-16064484D02*
X6774825Y-16102579D01*
X7070063Y-16340674D02*
X7060539Y-16331150D01*
X7060539Y-16331150D02*
X7041491Y-16302579D01*
X7041491Y-16302579D02*
X7031968Y-16283531D01*
X7031968Y-16283531D02*
X7022444Y-16254960D01*
X7022444Y-16254960D02*
X7012920Y-16207341D01*
X7012920Y-16207341D02*
X7012920Y-16169246D01*
X7012920Y-16169246D02*
X7022444Y-16121627D01*
X7022444Y-16121627D02*
X7031968Y-16093055D01*
X7031968Y-16093055D02*
X7041491Y-16074008D01*
X7041491Y-16074008D02*
X7060539Y-16045436D01*
X7060539Y-16045436D02*
X7070063Y-16035912D01*
X7127206Y-16064484D02*
X7251015Y-16064484D01*
X7251015Y-16064484D02*
X7184348Y-16140674D01*
X7184348Y-16140674D02*
X7212920Y-16140674D01*
X7212920Y-16140674D02*
X7231968Y-16150198D01*
X7231968Y-16150198D02*
X7241491Y-16159722D01*
X7241491Y-16159722D02*
X7251015Y-16178769D01*
X7251015Y-16178769D02*
X7251015Y-16226388D01*
X7251015Y-16226388D02*
X7241491Y-16245436D01*
X7241491Y-16245436D02*
X7231968Y-16254960D01*
X7231968Y-16254960D02*
X7212920Y-16264484D01*
X7212920Y-16264484D02*
X7155777Y-16264484D01*
X7155777Y-16264484D02*
X7136729Y-16254960D01*
X7136729Y-16254960D02*
X7127206Y-16245436D01*
X7327206Y-16083531D02*
X7336729Y-16074008D01*
X7336729Y-16074008D02*
X7355777Y-16064484D01*
X7355777Y-16064484D02*
X7403396Y-16064484D01*
X7403396Y-16064484D02*
X7422444Y-16074008D01*
X7422444Y-16074008D02*
X7431968Y-16083531D01*
X7431968Y-16083531D02*
X7441491Y-16102579D01*
X7441491Y-16102579D02*
X7441491Y-16121627D01*
X7441491Y-16121627D02*
X7431968Y-16150198D01*
X7431968Y-16150198D02*
X7317682Y-16264484D01*
X7317682Y-16264484D02*
X7441491Y-16264484D01*
X7508158Y-16064484D02*
X7631968Y-16064484D01*
X7631968Y-16064484D02*
X7565301Y-16140674D01*
X7565301Y-16140674D02*
X7593872Y-16140674D01*
X7593872Y-16140674D02*
X7612920Y-16150198D01*
X7612920Y-16150198D02*
X7622444Y-16159722D01*
X7622444Y-16159722D02*
X7631968Y-16178769D01*
X7631968Y-16178769D02*
X7631968Y-16226388D01*
X7631968Y-16226388D02*
X7622444Y-16245436D01*
X7622444Y-16245436D02*
X7612920Y-16254960D01*
X7612920Y-16254960D02*
X7593872Y-16264484D01*
X7593872Y-16264484D02*
X7536729Y-16264484D01*
X7536729Y-16264484D02*
X7517682Y-16254960D01*
X7517682Y-16254960D02*
X7508158Y-16245436D01*
X7870063Y-16264484D02*
X7870063Y-16064484D01*
X7955777Y-16264484D02*
X7955777Y-16159722D01*
X7955777Y-16159722D02*
X7946253Y-16140674D01*
X7946253Y-16140674D02*
X7927206Y-16131150D01*
X7927206Y-16131150D02*
X7898634Y-16131150D01*
X7898634Y-16131150D02*
X7879587Y-16140674D01*
X7879587Y-16140674D02*
X7870063Y-16150198D01*
X8079587Y-16264484D02*
X8060539Y-16254960D01*
X8060539Y-16254960D02*
X8051015Y-16245436D01*
X8051015Y-16245436D02*
X8041491Y-16226388D01*
X8041491Y-16226388D02*
X8041491Y-16169246D01*
X8041491Y-16169246D02*
X8051015Y-16150198D01*
X8051015Y-16150198D02*
X8060539Y-16140674D01*
X8060539Y-16140674D02*
X8079587Y-16131150D01*
X8079587Y-16131150D02*
X8108158Y-16131150D01*
X8108158Y-16131150D02*
X8127206Y-16140674D01*
X8127206Y-16140674D02*
X8136730Y-16150198D01*
X8136730Y-16150198D02*
X8146253Y-16169246D01*
X8146253Y-16169246D02*
X8146253Y-16226388D01*
X8146253Y-16226388D02*
X8136730Y-16245436D01*
X8136730Y-16245436D02*
X8127206Y-16254960D01*
X8127206Y-16254960D02*
X8108158Y-16264484D01*
X8108158Y-16264484D02*
X8079587Y-16264484D01*
X8260539Y-16264484D02*
X8241491Y-16254960D01*
X8241491Y-16254960D02*
X8231968Y-16235912D01*
X8231968Y-16235912D02*
X8231968Y-16064484D01*
X8412920Y-16254960D02*
X8393873Y-16264484D01*
X8393873Y-16264484D02*
X8355777Y-16264484D01*
X8355777Y-16264484D02*
X8336730Y-16254960D01*
X8336730Y-16254960D02*
X8327206Y-16235912D01*
X8327206Y-16235912D02*
X8327206Y-16159722D01*
X8327206Y-16159722D02*
X8336730Y-16140674D01*
X8336730Y-16140674D02*
X8355777Y-16131150D01*
X8355777Y-16131150D02*
X8393873Y-16131150D01*
X8393873Y-16131150D02*
X8412920Y-16140674D01*
X8412920Y-16140674D02*
X8422444Y-16159722D01*
X8422444Y-16159722D02*
X8422444Y-16178769D01*
X8422444Y-16178769D02*
X8327206Y-16197817D01*
X8498634Y-16254960D02*
X8517682Y-16264484D01*
X8517682Y-16264484D02*
X8555777Y-16264484D01*
X8555777Y-16264484D02*
X8574825Y-16254960D01*
X8574825Y-16254960D02*
X8584349Y-16235912D01*
X8584349Y-16235912D02*
X8584349Y-16226388D01*
X8584349Y-16226388D02*
X8574825Y-16207341D01*
X8574825Y-16207341D02*
X8555777Y-16197817D01*
X8555777Y-16197817D02*
X8527206Y-16197817D01*
X8527206Y-16197817D02*
X8508158Y-16188293D01*
X8508158Y-16188293D02*
X8498634Y-16169246D01*
X8498634Y-16169246D02*
X8498634Y-16159722D01*
X8498634Y-16159722D02*
X8508158Y-16140674D01*
X8508158Y-16140674D02*
X8527206Y-16131150D01*
X8527206Y-16131150D02*
X8555777Y-16131150D01*
X8555777Y-16131150D02*
X8574825Y-16140674D01*
X8651015Y-16340674D02*
X8660539Y-16331150D01*
X8660539Y-16331150D02*
X8679587Y-16302579D01*
X8679587Y-16302579D02*
X8689111Y-16283531D01*
X8689111Y-16283531D02*
X8698634Y-16254960D01*
X8698634Y-16254960D02*
X8708158Y-16207341D01*
X8708158Y-16207341D02*
X8708158Y-16169246D01*
X8708158Y-16169246D02*
X8698634Y-16121627D01*
X8698634Y-16121627D02*
X8689111Y-16093055D01*
X8689111Y-16093055D02*
X8679587Y-16074008D01*
X8679587Y-16074008D02*
X8660539Y-16045436D01*
X8660539Y-16045436D02*
X8651015Y-16035912D01*
D13*
X3480121Y-16472921D02*
X3480121Y-16401079D01*
X3408279Y-16401079D01*
X3408279Y-16472921D01*
X3480121Y-16472921D01*
D12*
X3860539Y-16528484D02*
X3746253Y-16528484D01*
X3803396Y-16528484D02*
X3803396Y-16328484D01*
X3803396Y-16328484D02*
X3784348Y-16357055D01*
X3784348Y-16357055D02*
X3765301Y-16376103D01*
X3765301Y-16376103D02*
X3746253Y-16385627D01*
X3946253Y-16509436D02*
X3955777Y-16518960D01*
X3955777Y-16518960D02*
X3946253Y-16528484D01*
X3946253Y-16528484D02*
X3936729Y-16518960D01*
X3936729Y-16518960D02*
X3946253Y-16509436D01*
X3946253Y-16509436D02*
X3946253Y-16528484D01*
X4079586Y-16328484D02*
X4098634Y-16328484D01*
X4098634Y-16328484D02*
X4117682Y-16338008D01*
X4117682Y-16338008D02*
X4127205Y-16347531D01*
X4127205Y-16347531D02*
X4136729Y-16366579D01*
X4136729Y-16366579D02*
X4146253Y-16404674D01*
X4146253Y-16404674D02*
X4146253Y-16452293D01*
X4146253Y-16452293D02*
X4136729Y-16490388D01*
X4136729Y-16490388D02*
X4127205Y-16509436D01*
X4127205Y-16509436D02*
X4117682Y-16518960D01*
X4117682Y-16518960D02*
X4098634Y-16528484D01*
X4098634Y-16528484D02*
X4079586Y-16528484D01*
X4079586Y-16528484D02*
X4060539Y-16518960D01*
X4060539Y-16518960D02*
X4051015Y-16509436D01*
X4051015Y-16509436D02*
X4041491Y-16490388D01*
X4041491Y-16490388D02*
X4031967Y-16452293D01*
X4031967Y-16452293D02*
X4031967Y-16404674D01*
X4031967Y-16404674D02*
X4041491Y-16366579D01*
X4041491Y-16366579D02*
X4051015Y-16347531D01*
X4051015Y-16347531D02*
X4060539Y-16338008D01*
X4060539Y-16338008D02*
X4079586Y-16328484D01*
X4336729Y-16528484D02*
X4222444Y-16528484D01*
X4279586Y-16528484D02*
X4279586Y-16328484D01*
X4279586Y-16328484D02*
X4260539Y-16357055D01*
X4260539Y-16357055D02*
X4241491Y-16376103D01*
X4241491Y-16376103D02*
X4222444Y-16385627D01*
X4508158Y-16328484D02*
X4470063Y-16328484D01*
X4470063Y-16328484D02*
X4451015Y-16338008D01*
X4451015Y-16338008D02*
X4441491Y-16347531D01*
X4441491Y-16347531D02*
X4422444Y-16376103D01*
X4422444Y-16376103D02*
X4412920Y-16414198D01*
X4412920Y-16414198D02*
X4412920Y-16490388D01*
X4412920Y-16490388D02*
X4422444Y-16509436D01*
X4422444Y-16509436D02*
X4431967Y-16518960D01*
X4431967Y-16518960D02*
X4451015Y-16528484D01*
X4451015Y-16528484D02*
X4489110Y-16528484D01*
X4489110Y-16528484D02*
X4508158Y-16518960D01*
X4508158Y-16518960D02*
X4517682Y-16509436D01*
X4517682Y-16509436D02*
X4527205Y-16490388D01*
X4527205Y-16490388D02*
X4527205Y-16442769D01*
X4527205Y-16442769D02*
X4517682Y-16423722D01*
X4517682Y-16423722D02*
X4508158Y-16414198D01*
X4508158Y-16414198D02*
X4489110Y-16404674D01*
X4489110Y-16404674D02*
X4451015Y-16404674D01*
X4451015Y-16404674D02*
X4431967Y-16414198D01*
X4431967Y-16414198D02*
X4422444Y-16423722D01*
X4422444Y-16423722D02*
X4412920Y-16442769D01*
X4612920Y-16528484D02*
X4612920Y-16395150D01*
X4612920Y-16414198D02*
X4622444Y-16404674D01*
X4622444Y-16404674D02*
X4641491Y-16395150D01*
X4641491Y-16395150D02*
X4670063Y-16395150D01*
X4670063Y-16395150D02*
X4689110Y-16404674D01*
X4689110Y-16404674D02*
X4698634Y-16423722D01*
X4698634Y-16423722D02*
X4698634Y-16528484D01*
X4698634Y-16423722D02*
X4708158Y-16404674D01*
X4708158Y-16404674D02*
X4727205Y-16395150D01*
X4727205Y-16395150D02*
X4755777Y-16395150D01*
X4755777Y-16395150D02*
X4774825Y-16404674D01*
X4774825Y-16404674D02*
X4784348Y-16423722D01*
X4784348Y-16423722D02*
X4784348Y-16528484D01*
X4879586Y-16528484D02*
X4879586Y-16395150D01*
X4879586Y-16414198D02*
X4889110Y-16404674D01*
X4889110Y-16404674D02*
X4908158Y-16395150D01*
X4908158Y-16395150D02*
X4936729Y-16395150D01*
X4936729Y-16395150D02*
X4955777Y-16404674D01*
X4955777Y-16404674D02*
X4965301Y-16423722D01*
X4965301Y-16423722D02*
X4965301Y-16528484D01*
X4965301Y-16423722D02*
X4974825Y-16404674D01*
X4974825Y-16404674D02*
X4993872Y-16395150D01*
X4993872Y-16395150D02*
X5022444Y-16395150D01*
X5022444Y-16395150D02*
X5041491Y-16404674D01*
X5041491Y-16404674D02*
X5051015Y-16423722D01*
X5051015Y-16423722D02*
X5051015Y-16528484D01*
X5441491Y-16318960D02*
X5270063Y-16576103D01*
X5698634Y-16328484D02*
X5717682Y-16328484D01*
X5717682Y-16328484D02*
X5736729Y-16338008D01*
X5736729Y-16338008D02*
X5746253Y-16347531D01*
X5746253Y-16347531D02*
X5755777Y-16366579D01*
X5755777Y-16366579D02*
X5765301Y-16404674D01*
X5765301Y-16404674D02*
X5765301Y-16452293D01*
X5765301Y-16452293D02*
X5755777Y-16490388D01*
X5755777Y-16490388D02*
X5746253Y-16509436D01*
X5746253Y-16509436D02*
X5736729Y-16518960D01*
X5736729Y-16518960D02*
X5717682Y-16528484D01*
X5717682Y-16528484D02*
X5698634Y-16528484D01*
X5698634Y-16528484D02*
X5679586Y-16518960D01*
X5679586Y-16518960D02*
X5670063Y-16509436D01*
X5670063Y-16509436D02*
X5660539Y-16490388D01*
X5660539Y-16490388D02*
X5651015Y-16452293D01*
X5651015Y-16452293D02*
X5651015Y-16404674D01*
X5651015Y-16404674D02*
X5660539Y-16366579D01*
X5660539Y-16366579D02*
X5670063Y-16347531D01*
X5670063Y-16347531D02*
X5679586Y-16338008D01*
X5679586Y-16338008D02*
X5698634Y-16328484D01*
X5851015Y-16509436D02*
X5860539Y-16518960D01*
X5860539Y-16518960D02*
X5851015Y-16528484D01*
X5851015Y-16528484D02*
X5841491Y-16518960D01*
X5841491Y-16518960D02*
X5851015Y-16509436D01*
X5851015Y-16509436D02*
X5851015Y-16528484D01*
X5984348Y-16328484D02*
X6003396Y-16328484D01*
X6003396Y-16328484D02*
X6022444Y-16338008D01*
X6022444Y-16338008D02*
X6031967Y-16347531D01*
X6031967Y-16347531D02*
X6041491Y-16366579D01*
X6041491Y-16366579D02*
X6051015Y-16404674D01*
X6051015Y-16404674D02*
X6051015Y-16452293D01*
X6051015Y-16452293D02*
X6041491Y-16490388D01*
X6041491Y-16490388D02*
X6031967Y-16509436D01*
X6031967Y-16509436D02*
X6022444Y-16518960D01*
X6022444Y-16518960D02*
X6003396Y-16528484D01*
X6003396Y-16528484D02*
X5984348Y-16528484D01*
X5984348Y-16528484D02*
X5965301Y-16518960D01*
X5965301Y-16518960D02*
X5955777Y-16509436D01*
X5955777Y-16509436D02*
X5946253Y-16490388D01*
X5946253Y-16490388D02*
X5936729Y-16452293D01*
X5936729Y-16452293D02*
X5936729Y-16404674D01*
X5936729Y-16404674D02*
X5946253Y-16366579D01*
X5946253Y-16366579D02*
X5955777Y-16347531D01*
X5955777Y-16347531D02*
X5965301Y-16338008D01*
X5965301Y-16338008D02*
X5984348Y-16328484D01*
X6222444Y-16395150D02*
X6222444Y-16528484D01*
X6174825Y-16318960D02*
X6127206Y-16461817D01*
X6127206Y-16461817D02*
X6251015Y-16461817D01*
X6365301Y-16328484D02*
X6384348Y-16328484D01*
X6384348Y-16328484D02*
X6403396Y-16338008D01*
X6403396Y-16338008D02*
X6412920Y-16347531D01*
X6412920Y-16347531D02*
X6422444Y-16366579D01*
X6422444Y-16366579D02*
X6431967Y-16404674D01*
X6431967Y-16404674D02*
X6431967Y-16452293D01*
X6431967Y-16452293D02*
X6422444Y-16490388D01*
X6422444Y-16490388D02*
X6412920Y-16509436D01*
X6412920Y-16509436D02*
X6403396Y-16518960D01*
X6403396Y-16518960D02*
X6384348Y-16528484D01*
X6384348Y-16528484D02*
X6365301Y-16528484D01*
X6365301Y-16528484D02*
X6346253Y-16518960D01*
X6346253Y-16518960D02*
X6336729Y-16509436D01*
X6336729Y-16509436D02*
X6327206Y-16490388D01*
X6327206Y-16490388D02*
X6317682Y-16452293D01*
X6317682Y-16452293D02*
X6317682Y-16404674D01*
X6317682Y-16404674D02*
X6327206Y-16366579D01*
X6327206Y-16366579D02*
X6336729Y-16347531D01*
X6336729Y-16347531D02*
X6346253Y-16338008D01*
X6346253Y-16338008D02*
X6365301Y-16328484D01*
X6555777Y-16328484D02*
X6574825Y-16328484D01*
X6574825Y-16328484D02*
X6593872Y-16338008D01*
X6593872Y-16338008D02*
X6603396Y-16347531D01*
X6603396Y-16347531D02*
X6612920Y-16366579D01*
X6612920Y-16366579D02*
X6622444Y-16404674D01*
X6622444Y-16404674D02*
X6622444Y-16452293D01*
X6622444Y-16452293D02*
X6612920Y-16490388D01*
X6612920Y-16490388D02*
X6603396Y-16509436D01*
X6603396Y-16509436D02*
X6593872Y-16518960D01*
X6593872Y-16518960D02*
X6574825Y-16528484D01*
X6574825Y-16528484D02*
X6555777Y-16528484D01*
X6555777Y-16528484D02*
X6536729Y-16518960D01*
X6536729Y-16518960D02*
X6527206Y-16509436D01*
X6527206Y-16509436D02*
X6517682Y-16490388D01*
X6517682Y-16490388D02*
X6508158Y-16452293D01*
X6508158Y-16452293D02*
X6508158Y-16404674D01*
X6508158Y-16404674D02*
X6517682Y-16366579D01*
X6517682Y-16366579D02*
X6527206Y-16347531D01*
X6527206Y-16347531D02*
X6536729Y-16338008D01*
X6536729Y-16338008D02*
X6555777Y-16328484D01*
X6698634Y-16328484D02*
X6698634Y-16366579D01*
X6774825Y-16328484D02*
X6774825Y-16366579D01*
X7070063Y-16604674D02*
X7060539Y-16595150D01*
X7060539Y-16595150D02*
X7041491Y-16566579D01*
X7041491Y-16566579D02*
X7031968Y-16547531D01*
X7031968Y-16547531D02*
X7022444Y-16518960D01*
X7022444Y-16518960D02*
X7012920Y-16471341D01*
X7012920Y-16471341D02*
X7012920Y-16433246D01*
X7012920Y-16433246D02*
X7022444Y-16385627D01*
X7022444Y-16385627D02*
X7031968Y-16357055D01*
X7031968Y-16357055D02*
X7041491Y-16338008D01*
X7041491Y-16338008D02*
X7060539Y-16309436D01*
X7060539Y-16309436D02*
X7070063Y-16299912D01*
X7231968Y-16395150D02*
X7231968Y-16528484D01*
X7184348Y-16318960D02*
X7136729Y-16461817D01*
X7136729Y-16461817D02*
X7260539Y-16461817D01*
X7317682Y-16328484D02*
X7451015Y-16328484D01*
X7451015Y-16328484D02*
X7365301Y-16528484D01*
X7679587Y-16528484D02*
X7679587Y-16328484D01*
X7765301Y-16528484D02*
X7765301Y-16423722D01*
X7765301Y-16423722D02*
X7755777Y-16404674D01*
X7755777Y-16404674D02*
X7736730Y-16395150D01*
X7736730Y-16395150D02*
X7708158Y-16395150D01*
X7708158Y-16395150D02*
X7689110Y-16404674D01*
X7689110Y-16404674D02*
X7679587Y-16414198D01*
X7889110Y-16528484D02*
X7870063Y-16518960D01*
X7870063Y-16518960D02*
X7860539Y-16509436D01*
X7860539Y-16509436D02*
X7851015Y-16490388D01*
X7851015Y-16490388D02*
X7851015Y-16433246D01*
X7851015Y-16433246D02*
X7860539Y-16414198D01*
X7860539Y-16414198D02*
X7870063Y-16404674D01*
X7870063Y-16404674D02*
X7889110Y-16395150D01*
X7889110Y-16395150D02*
X7917682Y-16395150D01*
X7917682Y-16395150D02*
X7936730Y-16404674D01*
X7936730Y-16404674D02*
X7946253Y-16414198D01*
X7946253Y-16414198D02*
X7955777Y-16433246D01*
X7955777Y-16433246D02*
X7955777Y-16490388D01*
X7955777Y-16490388D02*
X7946253Y-16509436D01*
X7946253Y-16509436D02*
X7936730Y-16518960D01*
X7936730Y-16518960D02*
X7917682Y-16528484D01*
X7917682Y-16528484D02*
X7889110Y-16528484D01*
X8070063Y-16528484D02*
X8051015Y-16518960D01*
X8051015Y-16518960D02*
X8041491Y-16499912D01*
X8041491Y-16499912D02*
X8041491Y-16328484D01*
X8222444Y-16518960D02*
X8203396Y-16528484D01*
X8203396Y-16528484D02*
X8165301Y-16528484D01*
X8165301Y-16528484D02*
X8146253Y-16518960D01*
X8146253Y-16518960D02*
X8136730Y-16499912D01*
X8136730Y-16499912D02*
X8136730Y-16423722D01*
X8136730Y-16423722D02*
X8146253Y-16404674D01*
X8146253Y-16404674D02*
X8165301Y-16395150D01*
X8165301Y-16395150D02*
X8203396Y-16395150D01*
X8203396Y-16395150D02*
X8222444Y-16404674D01*
X8222444Y-16404674D02*
X8231968Y-16423722D01*
X8231968Y-16423722D02*
X8231968Y-16442769D01*
X8231968Y-16442769D02*
X8136730Y-16461817D01*
X8308158Y-16518960D02*
X8327206Y-16528484D01*
X8327206Y-16528484D02*
X8365301Y-16528484D01*
X8365301Y-16528484D02*
X8384349Y-16518960D01*
X8384349Y-16518960D02*
X8393873Y-16499912D01*
X8393873Y-16499912D02*
X8393873Y-16490388D01*
X8393873Y-16490388D02*
X8384349Y-16471341D01*
X8384349Y-16471341D02*
X8365301Y-16461817D01*
X8365301Y-16461817D02*
X8336730Y-16461817D01*
X8336730Y-16461817D02*
X8317682Y-16452293D01*
X8317682Y-16452293D02*
X8308158Y-16433246D01*
X8308158Y-16433246D02*
X8308158Y-16423722D01*
X8308158Y-16423722D02*
X8317682Y-16404674D01*
X8317682Y-16404674D02*
X8336730Y-16395150D01*
X8336730Y-16395150D02*
X8365301Y-16395150D01*
X8365301Y-16395150D02*
X8384349Y-16404674D01*
X8460539Y-16604674D02*
X8470063Y-16595150D01*
X8470063Y-16595150D02*
X8489111Y-16566579D01*
X8489111Y-16566579D02*
X8498634Y-16547531D01*
X8498634Y-16547531D02*
X8508158Y-16518960D01*
X8508158Y-16518960D02*
X8517682Y-16471341D01*
X8517682Y-16471341D02*
X8517682Y-16433246D01*
X8517682Y-16433246D02*
X8508158Y-16385627D01*
X8508158Y-16385627D02*
X8498634Y-16357055D01*
X8498634Y-16357055D02*
X8489111Y-16338008D01*
X8489111Y-16338008D02*
X8470063Y-16309436D01*
X8470063Y-16309436D02*
X8460539Y-16299912D01*
D14*
X3440390Y-16755610D02*
X3495000Y-16701000D01*
X3440390Y-16646390D01*
X3385780Y-16701000D01*
X3440390Y-16755610D01*
D12*
X3860539Y-16792484D02*
X3746253Y-16792484D01*
X3803396Y-16792484D02*
X3803396Y-16592484D01*
X3803396Y-16592484D02*
X3784348Y-16621055D01*
X3784348Y-16621055D02*
X3765301Y-16640103D01*
X3765301Y-16640103D02*
X3746253Y-16649627D01*
X3946253Y-16773436D02*
X3955777Y-16782960D01*
X3955777Y-16782960D02*
X3946253Y-16792484D01*
X3946253Y-16792484D02*
X3936729Y-16782960D01*
X3936729Y-16782960D02*
X3946253Y-16773436D01*
X3946253Y-16773436D02*
X3946253Y-16792484D01*
X4079586Y-16592484D02*
X4098634Y-16592484D01*
X4098634Y-16592484D02*
X4117682Y-16602008D01*
X4117682Y-16602008D02*
X4127205Y-16611531D01*
X4127205Y-16611531D02*
X4136729Y-16630579D01*
X4136729Y-16630579D02*
X4146253Y-16668674D01*
X4146253Y-16668674D02*
X4146253Y-16716293D01*
X4146253Y-16716293D02*
X4136729Y-16754388D01*
X4136729Y-16754388D02*
X4127205Y-16773436D01*
X4127205Y-16773436D02*
X4117682Y-16782960D01*
X4117682Y-16782960D02*
X4098634Y-16792484D01*
X4098634Y-16792484D02*
X4079586Y-16792484D01*
X4079586Y-16792484D02*
X4060539Y-16782960D01*
X4060539Y-16782960D02*
X4051015Y-16773436D01*
X4051015Y-16773436D02*
X4041491Y-16754388D01*
X4041491Y-16754388D02*
X4031967Y-16716293D01*
X4031967Y-16716293D02*
X4031967Y-16668674D01*
X4031967Y-16668674D02*
X4041491Y-16630579D01*
X4041491Y-16630579D02*
X4051015Y-16611531D01*
X4051015Y-16611531D02*
X4060539Y-16602008D01*
X4060539Y-16602008D02*
X4079586Y-16592484D01*
X4241491Y-16792484D02*
X4279586Y-16792484D01*
X4279586Y-16792484D02*
X4298634Y-16782960D01*
X4298634Y-16782960D02*
X4308158Y-16773436D01*
X4308158Y-16773436D02*
X4327205Y-16744865D01*
X4327205Y-16744865D02*
X4336729Y-16706769D01*
X4336729Y-16706769D02*
X4336729Y-16630579D01*
X4336729Y-16630579D02*
X4327205Y-16611531D01*
X4327205Y-16611531D02*
X4317682Y-16602008D01*
X4317682Y-16602008D02*
X4298634Y-16592484D01*
X4298634Y-16592484D02*
X4260539Y-16592484D01*
X4260539Y-16592484D02*
X4241491Y-16602008D01*
X4241491Y-16602008D02*
X4231967Y-16611531D01*
X4231967Y-16611531D02*
X4222444Y-16630579D01*
X4222444Y-16630579D02*
X4222444Y-16678198D01*
X4222444Y-16678198D02*
X4231967Y-16697246D01*
X4231967Y-16697246D02*
X4241491Y-16706769D01*
X4241491Y-16706769D02*
X4260539Y-16716293D01*
X4260539Y-16716293D02*
X4298634Y-16716293D01*
X4298634Y-16716293D02*
X4317682Y-16706769D01*
X4317682Y-16706769D02*
X4327205Y-16697246D01*
X4327205Y-16697246D02*
X4336729Y-16678198D01*
X4412920Y-16611531D02*
X4422444Y-16602008D01*
X4422444Y-16602008D02*
X4441491Y-16592484D01*
X4441491Y-16592484D02*
X4489110Y-16592484D01*
X4489110Y-16592484D02*
X4508158Y-16602008D01*
X4508158Y-16602008D02*
X4517682Y-16611531D01*
X4517682Y-16611531D02*
X4527205Y-16630579D01*
X4527205Y-16630579D02*
X4527205Y-16649627D01*
X4527205Y-16649627D02*
X4517682Y-16678198D01*
X4517682Y-16678198D02*
X4403396Y-16792484D01*
X4403396Y-16792484D02*
X4527205Y-16792484D01*
X4612920Y-16792484D02*
X4612920Y-16659150D01*
X4612920Y-16678198D02*
X4622444Y-16668674D01*
X4622444Y-16668674D02*
X4641491Y-16659150D01*
X4641491Y-16659150D02*
X4670063Y-16659150D01*
X4670063Y-16659150D02*
X4689110Y-16668674D01*
X4689110Y-16668674D02*
X4698634Y-16687722D01*
X4698634Y-16687722D02*
X4698634Y-16792484D01*
X4698634Y-16687722D02*
X4708158Y-16668674D01*
X4708158Y-16668674D02*
X4727205Y-16659150D01*
X4727205Y-16659150D02*
X4755777Y-16659150D01*
X4755777Y-16659150D02*
X4774825Y-16668674D01*
X4774825Y-16668674D02*
X4784348Y-16687722D01*
X4784348Y-16687722D02*
X4784348Y-16792484D01*
X4879586Y-16792484D02*
X4879586Y-16659150D01*
X4879586Y-16678198D02*
X4889110Y-16668674D01*
X4889110Y-16668674D02*
X4908158Y-16659150D01*
X4908158Y-16659150D02*
X4936729Y-16659150D01*
X4936729Y-16659150D02*
X4955777Y-16668674D01*
X4955777Y-16668674D02*
X4965301Y-16687722D01*
X4965301Y-16687722D02*
X4965301Y-16792484D01*
X4965301Y-16687722D02*
X4974825Y-16668674D01*
X4974825Y-16668674D02*
X4993872Y-16659150D01*
X4993872Y-16659150D02*
X5022444Y-16659150D01*
X5022444Y-16659150D02*
X5041491Y-16668674D01*
X5041491Y-16668674D02*
X5051015Y-16687722D01*
X5051015Y-16687722D02*
X5051015Y-16792484D01*
X5441491Y-16582960D02*
X5270063Y-16840103D01*
X5698634Y-16592484D02*
X5717682Y-16592484D01*
X5717682Y-16592484D02*
X5736729Y-16602008D01*
X5736729Y-16602008D02*
X5746253Y-16611531D01*
X5746253Y-16611531D02*
X5755777Y-16630579D01*
X5755777Y-16630579D02*
X5765301Y-16668674D01*
X5765301Y-16668674D02*
X5765301Y-16716293D01*
X5765301Y-16716293D02*
X5755777Y-16754388D01*
X5755777Y-16754388D02*
X5746253Y-16773436D01*
X5746253Y-16773436D02*
X5736729Y-16782960D01*
X5736729Y-16782960D02*
X5717682Y-16792484D01*
X5717682Y-16792484D02*
X5698634Y-16792484D01*
X5698634Y-16792484D02*
X5679586Y-16782960D01*
X5679586Y-16782960D02*
X5670063Y-16773436D01*
X5670063Y-16773436D02*
X5660539Y-16754388D01*
X5660539Y-16754388D02*
X5651015Y-16716293D01*
X5651015Y-16716293D02*
X5651015Y-16668674D01*
X5651015Y-16668674D02*
X5660539Y-16630579D01*
X5660539Y-16630579D02*
X5670063Y-16611531D01*
X5670063Y-16611531D02*
X5679586Y-16602008D01*
X5679586Y-16602008D02*
X5698634Y-16592484D01*
X5851015Y-16773436D02*
X5860539Y-16782960D01*
X5860539Y-16782960D02*
X5851015Y-16792484D01*
X5851015Y-16792484D02*
X5841491Y-16782960D01*
X5841491Y-16782960D02*
X5851015Y-16773436D01*
X5851015Y-16773436D02*
X5851015Y-16792484D01*
X5984348Y-16592484D02*
X6003396Y-16592484D01*
X6003396Y-16592484D02*
X6022444Y-16602008D01*
X6022444Y-16602008D02*
X6031967Y-16611531D01*
X6031967Y-16611531D02*
X6041491Y-16630579D01*
X6041491Y-16630579D02*
X6051015Y-16668674D01*
X6051015Y-16668674D02*
X6051015Y-16716293D01*
X6051015Y-16716293D02*
X6041491Y-16754388D01*
X6041491Y-16754388D02*
X6031967Y-16773436D01*
X6031967Y-16773436D02*
X6022444Y-16782960D01*
X6022444Y-16782960D02*
X6003396Y-16792484D01*
X6003396Y-16792484D02*
X5984348Y-16792484D01*
X5984348Y-16792484D02*
X5965301Y-16782960D01*
X5965301Y-16782960D02*
X5955777Y-16773436D01*
X5955777Y-16773436D02*
X5946253Y-16754388D01*
X5946253Y-16754388D02*
X5936729Y-16716293D01*
X5936729Y-16716293D02*
X5936729Y-16668674D01*
X5936729Y-16668674D02*
X5946253Y-16630579D01*
X5946253Y-16630579D02*
X5955777Y-16611531D01*
X5955777Y-16611531D02*
X5965301Y-16602008D01*
X5965301Y-16602008D02*
X5984348Y-16592484D01*
X6222444Y-16659150D02*
X6222444Y-16792484D01*
X6174825Y-16582960D02*
X6127206Y-16725817D01*
X6127206Y-16725817D02*
X6251015Y-16725817D01*
X6308158Y-16592484D02*
X6431967Y-16592484D01*
X6431967Y-16592484D02*
X6365301Y-16668674D01*
X6365301Y-16668674D02*
X6393872Y-16668674D01*
X6393872Y-16668674D02*
X6412920Y-16678198D01*
X6412920Y-16678198D02*
X6422444Y-16687722D01*
X6422444Y-16687722D02*
X6431967Y-16706769D01*
X6431967Y-16706769D02*
X6431967Y-16754388D01*
X6431967Y-16754388D02*
X6422444Y-16773436D01*
X6422444Y-16773436D02*
X6412920Y-16782960D01*
X6412920Y-16782960D02*
X6393872Y-16792484D01*
X6393872Y-16792484D02*
X6336729Y-16792484D01*
X6336729Y-16792484D02*
X6317682Y-16782960D01*
X6317682Y-16782960D02*
X6308158Y-16773436D01*
X6555777Y-16592484D02*
X6574825Y-16592484D01*
X6574825Y-16592484D02*
X6593872Y-16602008D01*
X6593872Y-16602008D02*
X6603396Y-16611531D01*
X6603396Y-16611531D02*
X6612920Y-16630579D01*
X6612920Y-16630579D02*
X6622444Y-16668674D01*
X6622444Y-16668674D02*
X6622444Y-16716293D01*
X6622444Y-16716293D02*
X6612920Y-16754388D01*
X6612920Y-16754388D02*
X6603396Y-16773436D01*
X6603396Y-16773436D02*
X6593872Y-16782960D01*
X6593872Y-16782960D02*
X6574825Y-16792484D01*
X6574825Y-16792484D02*
X6555777Y-16792484D01*
X6555777Y-16792484D02*
X6536729Y-16782960D01*
X6536729Y-16782960D02*
X6527206Y-16773436D01*
X6527206Y-16773436D02*
X6517682Y-16754388D01*
X6517682Y-16754388D02*
X6508158Y-16716293D01*
X6508158Y-16716293D02*
X6508158Y-16668674D01*
X6508158Y-16668674D02*
X6517682Y-16630579D01*
X6517682Y-16630579D02*
X6527206Y-16611531D01*
X6527206Y-16611531D02*
X6536729Y-16602008D01*
X6536729Y-16602008D02*
X6555777Y-16592484D01*
X6698634Y-16592484D02*
X6698634Y-16630579D01*
X6774825Y-16592484D02*
X6774825Y-16630579D01*
X7070063Y-16868674D02*
X7060539Y-16859150D01*
X7060539Y-16859150D02*
X7041491Y-16830579D01*
X7041491Y-16830579D02*
X7031968Y-16811531D01*
X7031968Y-16811531D02*
X7022444Y-16782960D01*
X7022444Y-16782960D02*
X7012920Y-16735341D01*
X7012920Y-16735341D02*
X7012920Y-16697246D01*
X7012920Y-16697246D02*
X7022444Y-16649627D01*
X7022444Y-16649627D02*
X7031968Y-16621055D01*
X7031968Y-16621055D02*
X7041491Y-16602008D01*
X7041491Y-16602008D02*
X7060539Y-16573436D01*
X7060539Y-16573436D02*
X7070063Y-16563912D01*
X7251015Y-16792484D02*
X7136729Y-16792484D01*
X7193872Y-16792484D02*
X7193872Y-16592484D01*
X7193872Y-16592484D02*
X7174825Y-16621055D01*
X7174825Y-16621055D02*
X7155777Y-16640103D01*
X7155777Y-16640103D02*
X7136729Y-16649627D01*
X7317682Y-16592484D02*
X7451015Y-16592484D01*
X7451015Y-16592484D02*
X7365301Y-16792484D01*
X7612920Y-16592484D02*
X7574825Y-16592484D01*
X7574825Y-16592484D02*
X7555777Y-16602008D01*
X7555777Y-16602008D02*
X7546253Y-16611531D01*
X7546253Y-16611531D02*
X7527206Y-16640103D01*
X7527206Y-16640103D02*
X7517682Y-16678198D01*
X7517682Y-16678198D02*
X7517682Y-16754388D01*
X7517682Y-16754388D02*
X7527206Y-16773436D01*
X7527206Y-16773436D02*
X7536729Y-16782960D01*
X7536729Y-16782960D02*
X7555777Y-16792484D01*
X7555777Y-16792484D02*
X7593872Y-16792484D01*
X7593872Y-16792484D02*
X7612920Y-16782960D01*
X7612920Y-16782960D02*
X7622444Y-16773436D01*
X7622444Y-16773436D02*
X7631968Y-16754388D01*
X7631968Y-16754388D02*
X7631968Y-16706769D01*
X7631968Y-16706769D02*
X7622444Y-16687722D01*
X7622444Y-16687722D02*
X7612920Y-16678198D01*
X7612920Y-16678198D02*
X7593872Y-16668674D01*
X7593872Y-16668674D02*
X7555777Y-16668674D01*
X7555777Y-16668674D02*
X7536729Y-16678198D01*
X7536729Y-16678198D02*
X7527206Y-16687722D01*
X7527206Y-16687722D02*
X7517682Y-16706769D01*
X7870063Y-16792484D02*
X7870063Y-16592484D01*
X7955777Y-16792484D02*
X7955777Y-16687722D01*
X7955777Y-16687722D02*
X7946253Y-16668674D01*
X7946253Y-16668674D02*
X7927206Y-16659150D01*
X7927206Y-16659150D02*
X7898634Y-16659150D01*
X7898634Y-16659150D02*
X7879587Y-16668674D01*
X7879587Y-16668674D02*
X7870063Y-16678198D01*
X8079587Y-16792484D02*
X8060539Y-16782960D01*
X8060539Y-16782960D02*
X8051015Y-16773436D01*
X8051015Y-16773436D02*
X8041491Y-16754388D01*
X8041491Y-16754388D02*
X8041491Y-16697246D01*
X8041491Y-16697246D02*
X8051015Y-16678198D01*
X8051015Y-16678198D02*
X8060539Y-16668674D01*
X8060539Y-16668674D02*
X8079587Y-16659150D01*
X8079587Y-16659150D02*
X8108158Y-16659150D01*
X8108158Y-16659150D02*
X8127206Y-16668674D01*
X8127206Y-16668674D02*
X8136730Y-16678198D01*
X8136730Y-16678198D02*
X8146253Y-16697246D01*
X8146253Y-16697246D02*
X8146253Y-16754388D01*
X8146253Y-16754388D02*
X8136730Y-16773436D01*
X8136730Y-16773436D02*
X8127206Y-16782960D01*
X8127206Y-16782960D02*
X8108158Y-16792484D01*
X8108158Y-16792484D02*
X8079587Y-16792484D01*
X8260539Y-16792484D02*
X8241491Y-16782960D01*
X8241491Y-16782960D02*
X8231968Y-16763912D01*
X8231968Y-16763912D02*
X8231968Y-16592484D01*
X8412920Y-16782960D02*
X8393873Y-16792484D01*
X8393873Y-16792484D02*
X8355777Y-16792484D01*
X8355777Y-16792484D02*
X8336730Y-16782960D01*
X8336730Y-16782960D02*
X8327206Y-16763912D01*
X8327206Y-16763912D02*
X8327206Y-16687722D01*
X8327206Y-16687722D02*
X8336730Y-16668674D01*
X8336730Y-16668674D02*
X8355777Y-16659150D01*
X8355777Y-16659150D02*
X8393873Y-16659150D01*
X8393873Y-16659150D02*
X8412920Y-16668674D01*
X8412920Y-16668674D02*
X8422444Y-16687722D01*
X8422444Y-16687722D02*
X8422444Y-16706769D01*
X8422444Y-16706769D02*
X8327206Y-16725817D01*
X8498634Y-16782960D02*
X8517682Y-16792484D01*
X8517682Y-16792484D02*
X8555777Y-16792484D01*
X8555777Y-16792484D02*
X8574825Y-16782960D01*
X8574825Y-16782960D02*
X8584349Y-16763912D01*
X8584349Y-16763912D02*
X8584349Y-16754388D01*
X8584349Y-16754388D02*
X8574825Y-16735341D01*
X8574825Y-16735341D02*
X8555777Y-16725817D01*
X8555777Y-16725817D02*
X8527206Y-16725817D01*
X8527206Y-16725817D02*
X8508158Y-16716293D01*
X8508158Y-16716293D02*
X8498634Y-16697246D01*
X8498634Y-16697246D02*
X8498634Y-16687722D01*
X8498634Y-16687722D02*
X8508158Y-16668674D01*
X8508158Y-16668674D02*
X8527206Y-16659150D01*
X8527206Y-16659150D02*
X8555777Y-16659150D01*
X8555777Y-16659150D02*
X8574825Y-16668674D01*
X8651015Y-16868674D02*
X8660539Y-16859150D01*
X8660539Y-16859150D02*
X8679587Y-16830579D01*
X8679587Y-16830579D02*
X8689111Y-16811531D01*
X8689111Y-16811531D02*
X8698634Y-16782960D01*
X8698634Y-16782960D02*
X8708158Y-16735341D01*
X8708158Y-16735341D02*
X8708158Y-16697246D01*
X8708158Y-16697246D02*
X8698634Y-16649627D01*
X8698634Y-16649627D02*
X8689111Y-16621055D01*
X8689111Y-16621055D02*
X8679587Y-16602008D01*
X8679587Y-16602008D02*
X8660539Y-16573436D01*
X8660539Y-16573436D02*
X8651015Y-16563912D01*
D15*
X3375000Y-16905000D02*
X3495000Y-17025000D01*
X3495000Y-16905000D02*
X3375000Y-17025000D01*
X3495000Y-16965000D02*
G75*
G02*
X3375000Y-16965000I-60000J0D01*
G01*
X3375000Y-16965000D02*
G75*
G02*
X3495000Y-16965000I60000J0D01*
G01*
D12*
X3860539Y-17056484D02*
X3746253Y-17056484D01*
X3803396Y-17056484D02*
X3803396Y-16856484D01*
X3803396Y-16856484D02*
X3784348Y-16885055D01*
X3784348Y-16885055D02*
X3765301Y-16904103D01*
X3765301Y-16904103D02*
X3746253Y-16913627D01*
X3946253Y-17037436D02*
X3955777Y-17046960D01*
X3955777Y-17046960D02*
X3946253Y-17056484D01*
X3946253Y-17056484D02*
X3936729Y-17046960D01*
X3936729Y-17046960D02*
X3946253Y-17037436D01*
X3946253Y-17037436D02*
X3946253Y-17056484D01*
X4031967Y-16875531D02*
X4041491Y-16866008D01*
X4041491Y-16866008D02*
X4060539Y-16856484D01*
X4060539Y-16856484D02*
X4108158Y-16856484D01*
X4108158Y-16856484D02*
X4127205Y-16866008D01*
X4127205Y-16866008D02*
X4136729Y-16875531D01*
X4136729Y-16875531D02*
X4146253Y-16894579D01*
X4146253Y-16894579D02*
X4146253Y-16913627D01*
X4146253Y-16913627D02*
X4136729Y-16942198D01*
X4136729Y-16942198D02*
X4022443Y-17056484D01*
X4022443Y-17056484D02*
X4146253Y-17056484D01*
X4270063Y-16856484D02*
X4289110Y-16856484D01*
X4289110Y-16856484D02*
X4308158Y-16866008D01*
X4308158Y-16866008D02*
X4317682Y-16875531D01*
X4317682Y-16875531D02*
X4327205Y-16894579D01*
X4327205Y-16894579D02*
X4336729Y-16932674D01*
X4336729Y-16932674D02*
X4336729Y-16980293D01*
X4336729Y-16980293D02*
X4327205Y-17018389D01*
X4327205Y-17018389D02*
X4317682Y-17037436D01*
X4317682Y-17037436D02*
X4308158Y-17046960D01*
X4308158Y-17046960D02*
X4289110Y-17056484D01*
X4289110Y-17056484D02*
X4270063Y-17056484D01*
X4270063Y-17056484D02*
X4251015Y-17046960D01*
X4251015Y-17046960D02*
X4241491Y-17037436D01*
X4241491Y-17037436D02*
X4231967Y-17018389D01*
X4231967Y-17018389D02*
X4222444Y-16980293D01*
X4222444Y-16980293D02*
X4222444Y-16932674D01*
X4222444Y-16932674D02*
X4231967Y-16894579D01*
X4231967Y-16894579D02*
X4241491Y-16875531D01*
X4241491Y-16875531D02*
X4251015Y-16866008D01*
X4251015Y-16866008D02*
X4270063Y-16856484D01*
X4460539Y-16856484D02*
X4479586Y-16856484D01*
X4479586Y-16856484D02*
X4498634Y-16866008D01*
X4498634Y-16866008D02*
X4508158Y-16875531D01*
X4508158Y-16875531D02*
X4517682Y-16894579D01*
X4517682Y-16894579D02*
X4527205Y-16932674D01*
X4527205Y-16932674D02*
X4527205Y-16980293D01*
X4527205Y-16980293D02*
X4517682Y-17018389D01*
X4517682Y-17018389D02*
X4508158Y-17037436D01*
X4508158Y-17037436D02*
X4498634Y-17046960D01*
X4498634Y-17046960D02*
X4479586Y-17056484D01*
X4479586Y-17056484D02*
X4460539Y-17056484D01*
X4460539Y-17056484D02*
X4441491Y-17046960D01*
X4441491Y-17046960D02*
X4431967Y-17037436D01*
X4431967Y-17037436D02*
X4422444Y-17018389D01*
X4422444Y-17018389D02*
X4412920Y-16980293D01*
X4412920Y-16980293D02*
X4412920Y-16932674D01*
X4412920Y-16932674D02*
X4422444Y-16894579D01*
X4422444Y-16894579D02*
X4431967Y-16875531D01*
X4431967Y-16875531D02*
X4441491Y-16866008D01*
X4441491Y-16866008D02*
X4460539Y-16856484D01*
X4612920Y-17056484D02*
X4612920Y-16923150D01*
X4612920Y-16942198D02*
X4622444Y-16932674D01*
X4622444Y-16932674D02*
X4641491Y-16923150D01*
X4641491Y-16923150D02*
X4670063Y-16923150D01*
X4670063Y-16923150D02*
X4689110Y-16932674D01*
X4689110Y-16932674D02*
X4698634Y-16951722D01*
X4698634Y-16951722D02*
X4698634Y-17056484D01*
X4698634Y-16951722D02*
X4708158Y-16932674D01*
X4708158Y-16932674D02*
X4727205Y-16923150D01*
X4727205Y-16923150D02*
X4755777Y-16923150D01*
X4755777Y-16923150D02*
X4774825Y-16932674D01*
X4774825Y-16932674D02*
X4784348Y-16951722D01*
X4784348Y-16951722D02*
X4784348Y-17056484D01*
X4879586Y-17056484D02*
X4879586Y-16923150D01*
X4879586Y-16942198D02*
X4889110Y-16932674D01*
X4889110Y-16932674D02*
X4908158Y-16923150D01*
X4908158Y-16923150D02*
X4936729Y-16923150D01*
X4936729Y-16923150D02*
X4955777Y-16932674D01*
X4955777Y-16932674D02*
X4965301Y-16951722D01*
X4965301Y-16951722D02*
X4965301Y-17056484D01*
X4965301Y-16951722D02*
X4974825Y-16932674D01*
X4974825Y-16932674D02*
X4993872Y-16923150D01*
X4993872Y-16923150D02*
X5022444Y-16923150D01*
X5022444Y-16923150D02*
X5041491Y-16932674D01*
X5041491Y-16932674D02*
X5051015Y-16951722D01*
X5051015Y-16951722D02*
X5051015Y-17056484D01*
X5441491Y-16846960D02*
X5270063Y-17104103D01*
X5698634Y-16856484D02*
X5717682Y-16856484D01*
X5717682Y-16856484D02*
X5736729Y-16866008D01*
X5736729Y-16866008D02*
X5746253Y-16875531D01*
X5746253Y-16875531D02*
X5755777Y-16894579D01*
X5755777Y-16894579D02*
X5765301Y-16932674D01*
X5765301Y-16932674D02*
X5765301Y-16980293D01*
X5765301Y-16980293D02*
X5755777Y-17018389D01*
X5755777Y-17018389D02*
X5746253Y-17037436D01*
X5746253Y-17037436D02*
X5736729Y-17046960D01*
X5736729Y-17046960D02*
X5717682Y-17056484D01*
X5717682Y-17056484D02*
X5698634Y-17056484D01*
X5698634Y-17056484D02*
X5679586Y-17046960D01*
X5679586Y-17046960D02*
X5670063Y-17037436D01*
X5670063Y-17037436D02*
X5660539Y-17018389D01*
X5660539Y-17018389D02*
X5651015Y-16980293D01*
X5651015Y-16980293D02*
X5651015Y-16932674D01*
X5651015Y-16932674D02*
X5660539Y-16894579D01*
X5660539Y-16894579D02*
X5670063Y-16875531D01*
X5670063Y-16875531D02*
X5679586Y-16866008D01*
X5679586Y-16866008D02*
X5698634Y-16856484D01*
X5851015Y-17037436D02*
X5860539Y-17046960D01*
X5860539Y-17046960D02*
X5851015Y-17056484D01*
X5851015Y-17056484D02*
X5841491Y-17046960D01*
X5841491Y-17046960D02*
X5851015Y-17037436D01*
X5851015Y-17037436D02*
X5851015Y-17056484D01*
X5984348Y-16856484D02*
X6003396Y-16856484D01*
X6003396Y-16856484D02*
X6022444Y-16866008D01*
X6022444Y-16866008D02*
X6031967Y-16875531D01*
X6031967Y-16875531D02*
X6041491Y-16894579D01*
X6041491Y-16894579D02*
X6051015Y-16932674D01*
X6051015Y-16932674D02*
X6051015Y-16980293D01*
X6051015Y-16980293D02*
X6041491Y-17018389D01*
X6041491Y-17018389D02*
X6031967Y-17037436D01*
X6031967Y-17037436D02*
X6022444Y-17046960D01*
X6022444Y-17046960D02*
X6003396Y-17056484D01*
X6003396Y-17056484D02*
X5984348Y-17056484D01*
X5984348Y-17056484D02*
X5965301Y-17046960D01*
X5965301Y-17046960D02*
X5955777Y-17037436D01*
X5955777Y-17037436D02*
X5946253Y-17018389D01*
X5946253Y-17018389D02*
X5936729Y-16980293D01*
X5936729Y-16980293D02*
X5936729Y-16932674D01*
X5936729Y-16932674D02*
X5946253Y-16894579D01*
X5946253Y-16894579D02*
X5955777Y-16875531D01*
X5955777Y-16875531D02*
X5965301Y-16866008D01*
X5965301Y-16866008D02*
X5984348Y-16856484D01*
X6222444Y-16923150D02*
X6222444Y-17056484D01*
X6174825Y-16846960D02*
X6127206Y-16989817D01*
X6127206Y-16989817D02*
X6251015Y-16989817D01*
X6308158Y-16856484D02*
X6441491Y-16856484D01*
X6441491Y-16856484D02*
X6355777Y-17056484D01*
X6508158Y-16875531D02*
X6517682Y-16866008D01*
X6517682Y-16866008D02*
X6536729Y-16856484D01*
X6536729Y-16856484D02*
X6584348Y-16856484D01*
X6584348Y-16856484D02*
X6603396Y-16866008D01*
X6603396Y-16866008D02*
X6612920Y-16875531D01*
X6612920Y-16875531D02*
X6622444Y-16894579D01*
X6622444Y-16894579D02*
X6622444Y-16913627D01*
X6622444Y-16913627D02*
X6612920Y-16942198D01*
X6612920Y-16942198D02*
X6498634Y-17056484D01*
X6498634Y-17056484D02*
X6622444Y-17056484D01*
X6698634Y-16856484D02*
X6698634Y-16894579D01*
X6774825Y-16856484D02*
X6774825Y-16894579D01*
X7070063Y-17132674D02*
X7060539Y-17123150D01*
X7060539Y-17123150D02*
X7041491Y-17094579D01*
X7041491Y-17094579D02*
X7031968Y-17075531D01*
X7031968Y-17075531D02*
X7022444Y-17046960D01*
X7022444Y-17046960D02*
X7012920Y-16999341D01*
X7012920Y-16999341D02*
X7012920Y-16961246D01*
X7012920Y-16961246D02*
X7022444Y-16913627D01*
X7022444Y-16913627D02*
X7031968Y-16885055D01*
X7031968Y-16885055D02*
X7041491Y-16866008D01*
X7041491Y-16866008D02*
X7060539Y-16837436D01*
X7060539Y-16837436D02*
X7070063Y-16827912D01*
X7127206Y-16856484D02*
X7251015Y-16856484D01*
X7251015Y-16856484D02*
X7184348Y-16932674D01*
X7184348Y-16932674D02*
X7212920Y-16932674D01*
X7212920Y-16932674D02*
X7231968Y-16942198D01*
X7231968Y-16942198D02*
X7241491Y-16951722D01*
X7241491Y-16951722D02*
X7251015Y-16970770D01*
X7251015Y-16970770D02*
X7251015Y-17018389D01*
X7251015Y-17018389D02*
X7241491Y-17037436D01*
X7241491Y-17037436D02*
X7231968Y-17046960D01*
X7231968Y-17046960D02*
X7212920Y-17056484D01*
X7212920Y-17056484D02*
X7155777Y-17056484D01*
X7155777Y-17056484D02*
X7136729Y-17046960D01*
X7136729Y-17046960D02*
X7127206Y-17037436D01*
X7422444Y-16856484D02*
X7384348Y-16856484D01*
X7384348Y-16856484D02*
X7365301Y-16866008D01*
X7365301Y-16866008D02*
X7355777Y-16875531D01*
X7355777Y-16875531D02*
X7336729Y-16904103D01*
X7336729Y-16904103D02*
X7327206Y-16942198D01*
X7327206Y-16942198D02*
X7327206Y-17018389D01*
X7327206Y-17018389D02*
X7336729Y-17037436D01*
X7336729Y-17037436D02*
X7346253Y-17046960D01*
X7346253Y-17046960D02*
X7365301Y-17056484D01*
X7365301Y-17056484D02*
X7403396Y-17056484D01*
X7403396Y-17056484D02*
X7422444Y-17046960D01*
X7422444Y-17046960D02*
X7431968Y-17037436D01*
X7431968Y-17037436D02*
X7441491Y-17018389D01*
X7441491Y-17018389D02*
X7441491Y-16970770D01*
X7441491Y-16970770D02*
X7431968Y-16951722D01*
X7431968Y-16951722D02*
X7422444Y-16942198D01*
X7422444Y-16942198D02*
X7403396Y-16932674D01*
X7403396Y-16932674D02*
X7365301Y-16932674D01*
X7365301Y-16932674D02*
X7346253Y-16942198D01*
X7346253Y-16942198D02*
X7336729Y-16951722D01*
X7336729Y-16951722D02*
X7327206Y-16970770D01*
X7679587Y-17056484D02*
X7679587Y-16856484D01*
X7765301Y-17056484D02*
X7765301Y-16951722D01*
X7765301Y-16951722D02*
X7755777Y-16932674D01*
X7755777Y-16932674D02*
X7736730Y-16923150D01*
X7736730Y-16923150D02*
X7708158Y-16923150D01*
X7708158Y-16923150D02*
X7689110Y-16932674D01*
X7689110Y-16932674D02*
X7679587Y-16942198D01*
X7889110Y-17056484D02*
X7870063Y-17046960D01*
X7870063Y-17046960D02*
X7860539Y-17037436D01*
X7860539Y-17037436D02*
X7851015Y-17018389D01*
X7851015Y-17018389D02*
X7851015Y-16961246D01*
X7851015Y-16961246D02*
X7860539Y-16942198D01*
X7860539Y-16942198D02*
X7870063Y-16932674D01*
X7870063Y-16932674D02*
X7889110Y-16923150D01*
X7889110Y-16923150D02*
X7917682Y-16923150D01*
X7917682Y-16923150D02*
X7936730Y-16932674D01*
X7936730Y-16932674D02*
X7946253Y-16942198D01*
X7946253Y-16942198D02*
X7955777Y-16961246D01*
X7955777Y-16961246D02*
X7955777Y-17018389D01*
X7955777Y-17018389D02*
X7946253Y-17037436D01*
X7946253Y-17037436D02*
X7936730Y-17046960D01*
X7936730Y-17046960D02*
X7917682Y-17056484D01*
X7917682Y-17056484D02*
X7889110Y-17056484D01*
X8070063Y-17056484D02*
X8051015Y-17046960D01*
X8051015Y-17046960D02*
X8041491Y-17027912D01*
X8041491Y-17027912D02*
X8041491Y-16856484D01*
X8222444Y-17046960D02*
X8203396Y-17056484D01*
X8203396Y-17056484D02*
X8165301Y-17056484D01*
X8165301Y-17056484D02*
X8146253Y-17046960D01*
X8146253Y-17046960D02*
X8136730Y-17027912D01*
X8136730Y-17027912D02*
X8136730Y-16951722D01*
X8136730Y-16951722D02*
X8146253Y-16932674D01*
X8146253Y-16932674D02*
X8165301Y-16923150D01*
X8165301Y-16923150D02*
X8203396Y-16923150D01*
X8203396Y-16923150D02*
X8222444Y-16932674D01*
X8222444Y-16932674D02*
X8231968Y-16951722D01*
X8231968Y-16951722D02*
X8231968Y-16970770D01*
X8231968Y-16970770D02*
X8136730Y-16989817D01*
X8308158Y-17046960D02*
X8327206Y-17056484D01*
X8327206Y-17056484D02*
X8365301Y-17056484D01*
X8365301Y-17056484D02*
X8384349Y-17046960D01*
X8384349Y-17046960D02*
X8393873Y-17027912D01*
X8393873Y-17027912D02*
X8393873Y-17018389D01*
X8393873Y-17018389D02*
X8384349Y-16999341D01*
X8384349Y-16999341D02*
X8365301Y-16989817D01*
X8365301Y-16989817D02*
X8336730Y-16989817D01*
X8336730Y-16989817D02*
X8317682Y-16980293D01*
X8317682Y-16980293D02*
X8308158Y-16961246D01*
X8308158Y-16961246D02*
X8308158Y-16951722D01*
X8308158Y-16951722D02*
X8317682Y-16932674D01*
X8317682Y-16932674D02*
X8336730Y-16923150D01*
X8336730Y-16923150D02*
X8365301Y-16923150D01*
X8365301Y-16923150D02*
X8384349Y-16932674D01*
X8460539Y-17132674D02*
X8470063Y-17123150D01*
X8470063Y-17123150D02*
X8489111Y-17094579D01*
X8489111Y-17094579D02*
X8498634Y-17075531D01*
X8498634Y-17075531D02*
X8508158Y-17046960D01*
X8508158Y-17046960D02*
X8517682Y-16999341D01*
X8517682Y-16999341D02*
X8517682Y-16961246D01*
X8517682Y-16961246D02*
X8508158Y-16913627D01*
X8508158Y-16913627D02*
X8498634Y-16885055D01*
X8498634Y-16885055D02*
X8489111Y-16866008D01*
X8489111Y-16866008D02*
X8470063Y-16837436D01*
X8470063Y-16837436D02*
X8460539Y-16827912D01*
X3295000Y-17129000D02*
X3495000Y-17329000D01*
X3495000Y-17129000D02*
X3295000Y-17329000D01*
X3395000Y-17129000D02*
X3395000Y-17329000D01*
X3295000Y-17229000D02*
X3495000Y-17229000D01*
X3736729Y-17120484D02*
X3860539Y-17120484D01*
X3860539Y-17120484D02*
X3793872Y-17196674D01*
X3793872Y-17196674D02*
X3822443Y-17196674D01*
X3822443Y-17196674D02*
X3841491Y-17206198D01*
X3841491Y-17206198D02*
X3851015Y-17215722D01*
X3851015Y-17215722D02*
X3860539Y-17234770D01*
X3860539Y-17234770D02*
X3860539Y-17282389D01*
X3860539Y-17282389D02*
X3851015Y-17301436D01*
X3851015Y-17301436D02*
X3841491Y-17310960D01*
X3841491Y-17310960D02*
X3822443Y-17320484D01*
X3822443Y-17320484D02*
X3765301Y-17320484D01*
X3765301Y-17320484D02*
X3746253Y-17310960D01*
X3746253Y-17310960D02*
X3736729Y-17301436D01*
X3946253Y-17301436D02*
X3955777Y-17310960D01*
X3955777Y-17310960D02*
X3946253Y-17320484D01*
X3946253Y-17320484D02*
X3936729Y-17310960D01*
X3936729Y-17310960D02*
X3946253Y-17301436D01*
X3946253Y-17301436D02*
X3946253Y-17320484D01*
X4079586Y-17120484D02*
X4098634Y-17120484D01*
X4098634Y-17120484D02*
X4117682Y-17130008D01*
X4117682Y-17130008D02*
X4127205Y-17139531D01*
X4127205Y-17139531D02*
X4136729Y-17158579D01*
X4136729Y-17158579D02*
X4146253Y-17196674D01*
X4146253Y-17196674D02*
X4146253Y-17244293D01*
X4146253Y-17244293D02*
X4136729Y-17282389D01*
X4136729Y-17282389D02*
X4127205Y-17301436D01*
X4127205Y-17301436D02*
X4117682Y-17310960D01*
X4117682Y-17310960D02*
X4098634Y-17320484D01*
X4098634Y-17320484D02*
X4079586Y-17320484D01*
X4079586Y-17320484D02*
X4060539Y-17310960D01*
X4060539Y-17310960D02*
X4051015Y-17301436D01*
X4051015Y-17301436D02*
X4041491Y-17282389D01*
X4041491Y-17282389D02*
X4031967Y-17244293D01*
X4031967Y-17244293D02*
X4031967Y-17196674D01*
X4031967Y-17196674D02*
X4041491Y-17158579D01*
X4041491Y-17158579D02*
X4051015Y-17139531D01*
X4051015Y-17139531D02*
X4060539Y-17130008D01*
X4060539Y-17130008D02*
X4079586Y-17120484D01*
X4317682Y-17187150D02*
X4317682Y-17320484D01*
X4270063Y-17110960D02*
X4222444Y-17253817D01*
X4222444Y-17253817D02*
X4346253Y-17253817D01*
X4451015Y-17206198D02*
X4431967Y-17196674D01*
X4431967Y-17196674D02*
X4422444Y-17187150D01*
X4422444Y-17187150D02*
X4412920Y-17168103D01*
X4412920Y-17168103D02*
X4412920Y-17158579D01*
X4412920Y-17158579D02*
X4422444Y-17139531D01*
X4422444Y-17139531D02*
X4431967Y-17130008D01*
X4431967Y-17130008D02*
X4451015Y-17120484D01*
X4451015Y-17120484D02*
X4489110Y-17120484D01*
X4489110Y-17120484D02*
X4508158Y-17130008D01*
X4508158Y-17130008D02*
X4517682Y-17139531D01*
X4517682Y-17139531D02*
X4527205Y-17158579D01*
X4527205Y-17158579D02*
X4527205Y-17168103D01*
X4527205Y-17168103D02*
X4517682Y-17187150D01*
X4517682Y-17187150D02*
X4508158Y-17196674D01*
X4508158Y-17196674D02*
X4489110Y-17206198D01*
X4489110Y-17206198D02*
X4451015Y-17206198D01*
X4451015Y-17206198D02*
X4431967Y-17215722D01*
X4431967Y-17215722D02*
X4422444Y-17225246D01*
X4422444Y-17225246D02*
X4412920Y-17244293D01*
X4412920Y-17244293D02*
X4412920Y-17282389D01*
X4412920Y-17282389D02*
X4422444Y-17301436D01*
X4422444Y-17301436D02*
X4431967Y-17310960D01*
X4431967Y-17310960D02*
X4451015Y-17320484D01*
X4451015Y-17320484D02*
X4489110Y-17320484D01*
X4489110Y-17320484D02*
X4508158Y-17310960D01*
X4508158Y-17310960D02*
X4517682Y-17301436D01*
X4517682Y-17301436D02*
X4527205Y-17282389D01*
X4527205Y-17282389D02*
X4527205Y-17244293D01*
X4527205Y-17244293D02*
X4517682Y-17225246D01*
X4517682Y-17225246D02*
X4508158Y-17215722D01*
X4508158Y-17215722D02*
X4489110Y-17206198D01*
X4612920Y-17320484D02*
X4612920Y-17187150D01*
X4612920Y-17206198D02*
X4622444Y-17196674D01*
X4622444Y-17196674D02*
X4641491Y-17187150D01*
X4641491Y-17187150D02*
X4670063Y-17187150D01*
X4670063Y-17187150D02*
X4689110Y-17196674D01*
X4689110Y-17196674D02*
X4698634Y-17215722D01*
X4698634Y-17215722D02*
X4698634Y-17320484D01*
X4698634Y-17215722D02*
X4708158Y-17196674D01*
X4708158Y-17196674D02*
X4727205Y-17187150D01*
X4727205Y-17187150D02*
X4755777Y-17187150D01*
X4755777Y-17187150D02*
X4774825Y-17196674D01*
X4774825Y-17196674D02*
X4784348Y-17215722D01*
X4784348Y-17215722D02*
X4784348Y-17320484D01*
X4879586Y-17320484D02*
X4879586Y-17187150D01*
X4879586Y-17206198D02*
X4889110Y-17196674D01*
X4889110Y-17196674D02*
X4908158Y-17187150D01*
X4908158Y-17187150D02*
X4936729Y-17187150D01*
X4936729Y-17187150D02*
X4955777Y-17196674D01*
X4955777Y-17196674D02*
X4965301Y-17215722D01*
X4965301Y-17215722D02*
X4965301Y-17320484D01*
X4965301Y-17215722D02*
X4974825Y-17196674D01*
X4974825Y-17196674D02*
X4993872Y-17187150D01*
X4993872Y-17187150D02*
X5022444Y-17187150D01*
X5022444Y-17187150D02*
X5041491Y-17196674D01*
X5041491Y-17196674D02*
X5051015Y-17215722D01*
X5051015Y-17215722D02*
X5051015Y-17320484D01*
X5441491Y-17110960D02*
X5270063Y-17368103D01*
X5698634Y-17120484D02*
X5717682Y-17120484D01*
X5717682Y-17120484D02*
X5736729Y-17130008D01*
X5736729Y-17130008D02*
X5746253Y-17139531D01*
X5746253Y-17139531D02*
X5755777Y-17158579D01*
X5755777Y-17158579D02*
X5765301Y-17196674D01*
X5765301Y-17196674D02*
X5765301Y-17244293D01*
X5765301Y-17244293D02*
X5755777Y-17282389D01*
X5755777Y-17282389D02*
X5746253Y-17301436D01*
X5746253Y-17301436D02*
X5736729Y-17310960D01*
X5736729Y-17310960D02*
X5717682Y-17320484D01*
X5717682Y-17320484D02*
X5698634Y-17320484D01*
X5698634Y-17320484D02*
X5679586Y-17310960D01*
X5679586Y-17310960D02*
X5670063Y-17301436D01*
X5670063Y-17301436D02*
X5660539Y-17282389D01*
X5660539Y-17282389D02*
X5651015Y-17244293D01*
X5651015Y-17244293D02*
X5651015Y-17196674D01*
X5651015Y-17196674D02*
X5660539Y-17158579D01*
X5660539Y-17158579D02*
X5670063Y-17139531D01*
X5670063Y-17139531D02*
X5679586Y-17130008D01*
X5679586Y-17130008D02*
X5698634Y-17120484D01*
X5851015Y-17301436D02*
X5860539Y-17310960D01*
X5860539Y-17310960D02*
X5851015Y-17320484D01*
X5851015Y-17320484D02*
X5841491Y-17310960D01*
X5841491Y-17310960D02*
X5851015Y-17301436D01*
X5851015Y-17301436D02*
X5851015Y-17320484D01*
X6051015Y-17320484D02*
X5936729Y-17320484D01*
X5993872Y-17320484D02*
X5993872Y-17120484D01*
X5993872Y-17120484D02*
X5974825Y-17149055D01*
X5974825Y-17149055D02*
X5955777Y-17168103D01*
X5955777Y-17168103D02*
X5936729Y-17177627D01*
X6127206Y-17139531D02*
X6136729Y-17130008D01*
X6136729Y-17130008D02*
X6155777Y-17120484D01*
X6155777Y-17120484D02*
X6203396Y-17120484D01*
X6203396Y-17120484D02*
X6222444Y-17130008D01*
X6222444Y-17130008D02*
X6231967Y-17139531D01*
X6231967Y-17139531D02*
X6241491Y-17158579D01*
X6241491Y-17158579D02*
X6241491Y-17177627D01*
X6241491Y-17177627D02*
X6231967Y-17206198D01*
X6231967Y-17206198D02*
X6117682Y-17320484D01*
X6117682Y-17320484D02*
X6241491Y-17320484D01*
X6365301Y-17120484D02*
X6384348Y-17120484D01*
X6384348Y-17120484D02*
X6403396Y-17130008D01*
X6403396Y-17130008D02*
X6412920Y-17139531D01*
X6412920Y-17139531D02*
X6422444Y-17158579D01*
X6422444Y-17158579D02*
X6431967Y-17196674D01*
X6431967Y-17196674D02*
X6431967Y-17244293D01*
X6431967Y-17244293D02*
X6422444Y-17282389D01*
X6422444Y-17282389D02*
X6412920Y-17301436D01*
X6412920Y-17301436D02*
X6403396Y-17310960D01*
X6403396Y-17310960D02*
X6384348Y-17320484D01*
X6384348Y-17320484D02*
X6365301Y-17320484D01*
X6365301Y-17320484D02*
X6346253Y-17310960D01*
X6346253Y-17310960D02*
X6336729Y-17301436D01*
X6336729Y-17301436D02*
X6327206Y-17282389D01*
X6327206Y-17282389D02*
X6317682Y-17244293D01*
X6317682Y-17244293D02*
X6317682Y-17196674D01*
X6317682Y-17196674D02*
X6327206Y-17158579D01*
X6327206Y-17158579D02*
X6336729Y-17139531D01*
X6336729Y-17139531D02*
X6346253Y-17130008D01*
X6346253Y-17130008D02*
X6365301Y-17120484D01*
X6555777Y-17120484D02*
X6574825Y-17120484D01*
X6574825Y-17120484D02*
X6593872Y-17130008D01*
X6593872Y-17130008D02*
X6603396Y-17139531D01*
X6603396Y-17139531D02*
X6612920Y-17158579D01*
X6612920Y-17158579D02*
X6622444Y-17196674D01*
X6622444Y-17196674D02*
X6622444Y-17244293D01*
X6622444Y-17244293D02*
X6612920Y-17282389D01*
X6612920Y-17282389D02*
X6603396Y-17301436D01*
X6603396Y-17301436D02*
X6593872Y-17310960D01*
X6593872Y-17310960D02*
X6574825Y-17320484D01*
X6574825Y-17320484D02*
X6555777Y-17320484D01*
X6555777Y-17320484D02*
X6536729Y-17310960D01*
X6536729Y-17310960D02*
X6527206Y-17301436D01*
X6527206Y-17301436D02*
X6517682Y-17282389D01*
X6517682Y-17282389D02*
X6508158Y-17244293D01*
X6508158Y-17244293D02*
X6508158Y-17196674D01*
X6508158Y-17196674D02*
X6517682Y-17158579D01*
X6517682Y-17158579D02*
X6527206Y-17139531D01*
X6527206Y-17139531D02*
X6536729Y-17130008D01*
X6536729Y-17130008D02*
X6555777Y-17120484D01*
X6698634Y-17120484D02*
X6698634Y-17158579D01*
X6774825Y-17120484D02*
X6774825Y-17158579D01*
X7070063Y-17396674D02*
X7060539Y-17387150D01*
X7060539Y-17387150D02*
X7041491Y-17358579D01*
X7041491Y-17358579D02*
X7031968Y-17339531D01*
X7031968Y-17339531D02*
X7022444Y-17310960D01*
X7022444Y-17310960D02*
X7012920Y-17263341D01*
X7012920Y-17263341D02*
X7012920Y-17225246D01*
X7012920Y-17225246D02*
X7022444Y-17177627D01*
X7022444Y-17177627D02*
X7031968Y-17149055D01*
X7031968Y-17149055D02*
X7041491Y-17130008D01*
X7041491Y-17130008D02*
X7060539Y-17101436D01*
X7060539Y-17101436D02*
X7070063Y-17091912D01*
X7231968Y-17120484D02*
X7193872Y-17120484D01*
X7193872Y-17120484D02*
X7174825Y-17130008D01*
X7174825Y-17130008D02*
X7165301Y-17139531D01*
X7165301Y-17139531D02*
X7146253Y-17168103D01*
X7146253Y-17168103D02*
X7136729Y-17206198D01*
X7136729Y-17206198D02*
X7136729Y-17282389D01*
X7136729Y-17282389D02*
X7146253Y-17301436D01*
X7146253Y-17301436D02*
X7155777Y-17310960D01*
X7155777Y-17310960D02*
X7174825Y-17320484D01*
X7174825Y-17320484D02*
X7212920Y-17320484D01*
X7212920Y-17320484D02*
X7231968Y-17310960D01*
X7231968Y-17310960D02*
X7241491Y-17301436D01*
X7241491Y-17301436D02*
X7251015Y-17282389D01*
X7251015Y-17282389D02*
X7251015Y-17234770D01*
X7251015Y-17234770D02*
X7241491Y-17215722D01*
X7241491Y-17215722D02*
X7231968Y-17206198D01*
X7231968Y-17206198D02*
X7212920Y-17196674D01*
X7212920Y-17196674D02*
X7174825Y-17196674D01*
X7174825Y-17196674D02*
X7155777Y-17206198D01*
X7155777Y-17206198D02*
X7146253Y-17215722D01*
X7146253Y-17215722D02*
X7136729Y-17234770D01*
X7489110Y-17320484D02*
X7489110Y-17120484D01*
X7574825Y-17320484D02*
X7574825Y-17215722D01*
X7574825Y-17215722D02*
X7565301Y-17196674D01*
X7565301Y-17196674D02*
X7546253Y-17187150D01*
X7546253Y-17187150D02*
X7517682Y-17187150D01*
X7517682Y-17187150D02*
X7498634Y-17196674D01*
X7498634Y-17196674D02*
X7489110Y-17206198D01*
X7698634Y-17320484D02*
X7679587Y-17310960D01*
X7679587Y-17310960D02*
X7670063Y-17301436D01*
X7670063Y-17301436D02*
X7660539Y-17282389D01*
X7660539Y-17282389D02*
X7660539Y-17225246D01*
X7660539Y-17225246D02*
X7670063Y-17206198D01*
X7670063Y-17206198D02*
X7679587Y-17196674D01*
X7679587Y-17196674D02*
X7698634Y-17187150D01*
X7698634Y-17187150D02*
X7727206Y-17187150D01*
X7727206Y-17187150D02*
X7746253Y-17196674D01*
X7746253Y-17196674D02*
X7755777Y-17206198D01*
X7755777Y-17206198D02*
X7765301Y-17225246D01*
X7765301Y-17225246D02*
X7765301Y-17282389D01*
X7765301Y-17282389D02*
X7755777Y-17301436D01*
X7755777Y-17301436D02*
X7746253Y-17310960D01*
X7746253Y-17310960D02*
X7727206Y-17320484D01*
X7727206Y-17320484D02*
X7698634Y-17320484D01*
X7879587Y-17320484D02*
X7860539Y-17310960D01*
X7860539Y-17310960D02*
X7851015Y-17291912D01*
X7851015Y-17291912D02*
X7851015Y-17120484D01*
X8031968Y-17310960D02*
X8012920Y-17320484D01*
X8012920Y-17320484D02*
X7974825Y-17320484D01*
X7974825Y-17320484D02*
X7955777Y-17310960D01*
X7955777Y-17310960D02*
X7946253Y-17291912D01*
X7946253Y-17291912D02*
X7946253Y-17215722D01*
X7946253Y-17215722D02*
X7955777Y-17196674D01*
X7955777Y-17196674D02*
X7974825Y-17187150D01*
X7974825Y-17187150D02*
X8012920Y-17187150D01*
X8012920Y-17187150D02*
X8031968Y-17196674D01*
X8031968Y-17196674D02*
X8041491Y-17215722D01*
X8041491Y-17215722D02*
X8041491Y-17234770D01*
X8041491Y-17234770D02*
X7946253Y-17253817D01*
X8117682Y-17310960D02*
X8136730Y-17320484D01*
X8136730Y-17320484D02*
X8174825Y-17320484D01*
X8174825Y-17320484D02*
X8193872Y-17310960D01*
X8193872Y-17310960D02*
X8203396Y-17291912D01*
X8203396Y-17291912D02*
X8203396Y-17282389D01*
X8203396Y-17282389D02*
X8193872Y-17263341D01*
X8193872Y-17263341D02*
X8174825Y-17253817D01*
X8174825Y-17253817D02*
X8146253Y-17253817D01*
X8146253Y-17253817D02*
X8127206Y-17244293D01*
X8127206Y-17244293D02*
X8117682Y-17225246D01*
X8117682Y-17225246D02*
X8117682Y-17215722D01*
X8117682Y-17215722D02*
X8127206Y-17196674D01*
X8127206Y-17196674D02*
X8146253Y-17187150D01*
X8146253Y-17187150D02*
X8174825Y-17187150D01*
X8174825Y-17187150D02*
X8193872Y-17196674D01*
X8270063Y-17396674D02*
X8279587Y-17387150D01*
X8279587Y-17387150D02*
X8298634Y-17358579D01*
X8298634Y-17358579D02*
X8308158Y-17339531D01*
X8308158Y-17339531D02*
X8317682Y-17310960D01*
X8317682Y-17310960D02*
X8327206Y-17263341D01*
X8327206Y-17263341D02*
X8327206Y-17225246D01*
X8327206Y-17225246D02*
X8317682Y-17177627D01*
X8317682Y-17177627D02*
X8308158Y-17149055D01*
X8308158Y-17149055D02*
X8298634Y-17130008D01*
X8298634Y-17130008D02*
X8279587Y-17101436D01*
X8279587Y-17101436D02*
X8270063Y-17091912D01*
X3295000Y-17449000D02*
X3495000Y-17649000D01*
X3495000Y-17449000D02*
X3295000Y-17649000D01*
X3465711Y-17619711D02*
X3465711Y-17478289D01*
X3324289Y-17478289D01*
X3324289Y-17619711D01*
X3465711Y-17619711D01*
X3736729Y-17440484D02*
X3860539Y-17440484D01*
X3860539Y-17440484D02*
X3793872Y-17516674D01*
X3793872Y-17516674D02*
X3822443Y-17516674D01*
X3822443Y-17516674D02*
X3841491Y-17526198D01*
X3841491Y-17526198D02*
X3851015Y-17535722D01*
X3851015Y-17535722D02*
X3860539Y-17554770D01*
X3860539Y-17554770D02*
X3860539Y-17602389D01*
X3860539Y-17602389D02*
X3851015Y-17621436D01*
X3851015Y-17621436D02*
X3841491Y-17630960D01*
X3841491Y-17630960D02*
X3822443Y-17640484D01*
X3822443Y-17640484D02*
X3765301Y-17640484D01*
X3765301Y-17640484D02*
X3746253Y-17630960D01*
X3746253Y-17630960D02*
X3736729Y-17621436D01*
X3946253Y-17621436D02*
X3955777Y-17630960D01*
X3955777Y-17630960D02*
X3946253Y-17640484D01*
X3946253Y-17640484D02*
X3936729Y-17630960D01*
X3936729Y-17630960D02*
X3946253Y-17621436D01*
X3946253Y-17621436D02*
X3946253Y-17640484D01*
X4022443Y-17440484D02*
X4146253Y-17440484D01*
X4146253Y-17440484D02*
X4079586Y-17516674D01*
X4079586Y-17516674D02*
X4108158Y-17516674D01*
X4108158Y-17516674D02*
X4127205Y-17526198D01*
X4127205Y-17526198D02*
X4136729Y-17535722D01*
X4136729Y-17535722D02*
X4146253Y-17554770D01*
X4146253Y-17554770D02*
X4146253Y-17602389D01*
X4146253Y-17602389D02*
X4136729Y-17621436D01*
X4136729Y-17621436D02*
X4127205Y-17630960D01*
X4127205Y-17630960D02*
X4108158Y-17640484D01*
X4108158Y-17640484D02*
X4051015Y-17640484D01*
X4051015Y-17640484D02*
X4031967Y-17630960D01*
X4031967Y-17630960D02*
X4022443Y-17621436D01*
X4222444Y-17459531D02*
X4231967Y-17450008D01*
X4231967Y-17450008D02*
X4251015Y-17440484D01*
X4251015Y-17440484D02*
X4298634Y-17440484D01*
X4298634Y-17440484D02*
X4317682Y-17450008D01*
X4317682Y-17450008D02*
X4327205Y-17459531D01*
X4327205Y-17459531D02*
X4336729Y-17478579D01*
X4336729Y-17478579D02*
X4336729Y-17497627D01*
X4336729Y-17497627D02*
X4327205Y-17526198D01*
X4327205Y-17526198D02*
X4212920Y-17640484D01*
X4212920Y-17640484D02*
X4336729Y-17640484D01*
X4460539Y-17440484D02*
X4479586Y-17440484D01*
X4479586Y-17440484D02*
X4498634Y-17450008D01*
X4498634Y-17450008D02*
X4508158Y-17459531D01*
X4508158Y-17459531D02*
X4517682Y-17478579D01*
X4517682Y-17478579D02*
X4527205Y-17516674D01*
X4527205Y-17516674D02*
X4527205Y-17564293D01*
X4527205Y-17564293D02*
X4517682Y-17602389D01*
X4517682Y-17602389D02*
X4508158Y-17621436D01*
X4508158Y-17621436D02*
X4498634Y-17630960D01*
X4498634Y-17630960D02*
X4479586Y-17640484D01*
X4479586Y-17640484D02*
X4460539Y-17640484D01*
X4460539Y-17640484D02*
X4441491Y-17630960D01*
X4441491Y-17630960D02*
X4431967Y-17621436D01*
X4431967Y-17621436D02*
X4422444Y-17602389D01*
X4422444Y-17602389D02*
X4412920Y-17564293D01*
X4412920Y-17564293D02*
X4412920Y-17516674D01*
X4412920Y-17516674D02*
X4422444Y-17478579D01*
X4422444Y-17478579D02*
X4431967Y-17459531D01*
X4431967Y-17459531D02*
X4441491Y-17450008D01*
X4441491Y-17450008D02*
X4460539Y-17440484D01*
X4612920Y-17640484D02*
X4612920Y-17507150D01*
X4612920Y-17526198D02*
X4622444Y-17516674D01*
X4622444Y-17516674D02*
X4641491Y-17507150D01*
X4641491Y-17507150D02*
X4670063Y-17507150D01*
X4670063Y-17507150D02*
X4689110Y-17516674D01*
X4689110Y-17516674D02*
X4698634Y-17535722D01*
X4698634Y-17535722D02*
X4698634Y-17640484D01*
X4698634Y-17535722D02*
X4708158Y-17516674D01*
X4708158Y-17516674D02*
X4727205Y-17507150D01*
X4727205Y-17507150D02*
X4755777Y-17507150D01*
X4755777Y-17507150D02*
X4774825Y-17516674D01*
X4774825Y-17516674D02*
X4784348Y-17535722D01*
X4784348Y-17535722D02*
X4784348Y-17640484D01*
X4879586Y-17640484D02*
X4879586Y-17507150D01*
X4879586Y-17526198D02*
X4889110Y-17516674D01*
X4889110Y-17516674D02*
X4908158Y-17507150D01*
X4908158Y-17507150D02*
X4936729Y-17507150D01*
X4936729Y-17507150D02*
X4955777Y-17516674D01*
X4955777Y-17516674D02*
X4965301Y-17535722D01*
X4965301Y-17535722D02*
X4965301Y-17640484D01*
X4965301Y-17535722D02*
X4974825Y-17516674D01*
X4974825Y-17516674D02*
X4993872Y-17507150D01*
X4993872Y-17507150D02*
X5022444Y-17507150D01*
X5022444Y-17507150D02*
X5041491Y-17516674D01*
X5041491Y-17516674D02*
X5051015Y-17535722D01*
X5051015Y-17535722D02*
X5051015Y-17640484D01*
X5441491Y-17430960D02*
X5270063Y-17688103D01*
X5698634Y-17440484D02*
X5717682Y-17440484D01*
X5717682Y-17440484D02*
X5736729Y-17450008D01*
X5736729Y-17450008D02*
X5746253Y-17459531D01*
X5746253Y-17459531D02*
X5755777Y-17478579D01*
X5755777Y-17478579D02*
X5765301Y-17516674D01*
X5765301Y-17516674D02*
X5765301Y-17564293D01*
X5765301Y-17564293D02*
X5755777Y-17602389D01*
X5755777Y-17602389D02*
X5746253Y-17621436D01*
X5746253Y-17621436D02*
X5736729Y-17630960D01*
X5736729Y-17630960D02*
X5717682Y-17640484D01*
X5717682Y-17640484D02*
X5698634Y-17640484D01*
X5698634Y-17640484D02*
X5679586Y-17630960D01*
X5679586Y-17630960D02*
X5670063Y-17621436D01*
X5670063Y-17621436D02*
X5660539Y-17602389D01*
X5660539Y-17602389D02*
X5651015Y-17564293D01*
X5651015Y-17564293D02*
X5651015Y-17516674D01*
X5651015Y-17516674D02*
X5660539Y-17478579D01*
X5660539Y-17478579D02*
X5670063Y-17459531D01*
X5670063Y-17459531D02*
X5679586Y-17450008D01*
X5679586Y-17450008D02*
X5698634Y-17440484D01*
X5851015Y-17621436D02*
X5860539Y-17630960D01*
X5860539Y-17630960D02*
X5851015Y-17640484D01*
X5851015Y-17640484D02*
X5841491Y-17630960D01*
X5841491Y-17630960D02*
X5851015Y-17621436D01*
X5851015Y-17621436D02*
X5851015Y-17640484D01*
X6051015Y-17640484D02*
X5936729Y-17640484D01*
X5993872Y-17640484D02*
X5993872Y-17440484D01*
X5993872Y-17440484D02*
X5974825Y-17469055D01*
X5974825Y-17469055D02*
X5955777Y-17488103D01*
X5955777Y-17488103D02*
X5936729Y-17497627D01*
X6117682Y-17440484D02*
X6241491Y-17440484D01*
X6241491Y-17440484D02*
X6174825Y-17516674D01*
X6174825Y-17516674D02*
X6203396Y-17516674D01*
X6203396Y-17516674D02*
X6222444Y-17526198D01*
X6222444Y-17526198D02*
X6231967Y-17535722D01*
X6231967Y-17535722D02*
X6241491Y-17554770D01*
X6241491Y-17554770D02*
X6241491Y-17602389D01*
X6241491Y-17602389D02*
X6231967Y-17621436D01*
X6231967Y-17621436D02*
X6222444Y-17630960D01*
X6222444Y-17630960D02*
X6203396Y-17640484D01*
X6203396Y-17640484D02*
X6146253Y-17640484D01*
X6146253Y-17640484D02*
X6127206Y-17630960D01*
X6127206Y-17630960D02*
X6117682Y-17621436D01*
X6365301Y-17440484D02*
X6384348Y-17440484D01*
X6384348Y-17440484D02*
X6403396Y-17450008D01*
X6403396Y-17450008D02*
X6412920Y-17459531D01*
X6412920Y-17459531D02*
X6422444Y-17478579D01*
X6422444Y-17478579D02*
X6431967Y-17516674D01*
X6431967Y-17516674D02*
X6431967Y-17564293D01*
X6431967Y-17564293D02*
X6422444Y-17602389D01*
X6422444Y-17602389D02*
X6412920Y-17621436D01*
X6412920Y-17621436D02*
X6403396Y-17630960D01*
X6403396Y-17630960D02*
X6384348Y-17640484D01*
X6384348Y-17640484D02*
X6365301Y-17640484D01*
X6365301Y-17640484D02*
X6346253Y-17630960D01*
X6346253Y-17630960D02*
X6336729Y-17621436D01*
X6336729Y-17621436D02*
X6327206Y-17602389D01*
X6327206Y-17602389D02*
X6317682Y-17564293D01*
X6317682Y-17564293D02*
X6317682Y-17516674D01*
X6317682Y-17516674D02*
X6327206Y-17478579D01*
X6327206Y-17478579D02*
X6336729Y-17459531D01*
X6336729Y-17459531D02*
X6346253Y-17450008D01*
X6346253Y-17450008D02*
X6365301Y-17440484D01*
X6498634Y-17440484D02*
X6631967Y-17440484D01*
X6631967Y-17440484D02*
X6546253Y-17640484D01*
X6698634Y-17440484D02*
X6698634Y-17478579D01*
X6774825Y-17440484D02*
X6774825Y-17478579D01*
X7070063Y-17716674D02*
X7060539Y-17707150D01*
X7060539Y-17707150D02*
X7041491Y-17678579D01*
X7041491Y-17678579D02*
X7031968Y-17659531D01*
X7031968Y-17659531D02*
X7022444Y-17630960D01*
X7022444Y-17630960D02*
X7012920Y-17583341D01*
X7012920Y-17583341D02*
X7012920Y-17545246D01*
X7012920Y-17545246D02*
X7022444Y-17497627D01*
X7022444Y-17497627D02*
X7031968Y-17469055D01*
X7031968Y-17469055D02*
X7041491Y-17450008D01*
X7041491Y-17450008D02*
X7060539Y-17421436D01*
X7060539Y-17421436D02*
X7070063Y-17411912D01*
X7136729Y-17459531D02*
X7146253Y-17450008D01*
X7146253Y-17450008D02*
X7165301Y-17440484D01*
X7165301Y-17440484D02*
X7212920Y-17440484D01*
X7212920Y-17440484D02*
X7231968Y-17450008D01*
X7231968Y-17450008D02*
X7241491Y-17459531D01*
X7241491Y-17459531D02*
X7251015Y-17478579D01*
X7251015Y-17478579D02*
X7251015Y-17497627D01*
X7251015Y-17497627D02*
X7241491Y-17526198D01*
X7241491Y-17526198D02*
X7127206Y-17640484D01*
X7127206Y-17640484D02*
X7251015Y-17640484D01*
X7374825Y-17440484D02*
X7393872Y-17440484D01*
X7393872Y-17440484D02*
X7412920Y-17450008D01*
X7412920Y-17450008D02*
X7422444Y-17459531D01*
X7422444Y-17459531D02*
X7431968Y-17478579D01*
X7431968Y-17478579D02*
X7441491Y-17516674D01*
X7441491Y-17516674D02*
X7441491Y-17564293D01*
X7441491Y-17564293D02*
X7431968Y-17602389D01*
X7431968Y-17602389D02*
X7422444Y-17621436D01*
X7422444Y-17621436D02*
X7412920Y-17630960D01*
X7412920Y-17630960D02*
X7393872Y-17640484D01*
X7393872Y-17640484D02*
X7374825Y-17640484D01*
X7374825Y-17640484D02*
X7355777Y-17630960D01*
X7355777Y-17630960D02*
X7346253Y-17621436D01*
X7346253Y-17621436D02*
X7336729Y-17602389D01*
X7336729Y-17602389D02*
X7327206Y-17564293D01*
X7327206Y-17564293D02*
X7327206Y-17516674D01*
X7327206Y-17516674D02*
X7336729Y-17478579D01*
X7336729Y-17478579D02*
X7346253Y-17459531D01*
X7346253Y-17459531D02*
X7355777Y-17450008D01*
X7355777Y-17450008D02*
X7374825Y-17440484D01*
X7679587Y-17640484D02*
X7679587Y-17440484D01*
X7765301Y-17640484D02*
X7765301Y-17535722D01*
X7765301Y-17535722D02*
X7755777Y-17516674D01*
X7755777Y-17516674D02*
X7736730Y-17507150D01*
X7736730Y-17507150D02*
X7708158Y-17507150D01*
X7708158Y-17507150D02*
X7689110Y-17516674D01*
X7689110Y-17516674D02*
X7679587Y-17526198D01*
X7889110Y-17640484D02*
X7870063Y-17630960D01*
X7870063Y-17630960D02*
X7860539Y-17621436D01*
X7860539Y-17621436D02*
X7851015Y-17602389D01*
X7851015Y-17602389D02*
X7851015Y-17545246D01*
X7851015Y-17545246D02*
X7860539Y-17526198D01*
X7860539Y-17526198D02*
X7870063Y-17516674D01*
X7870063Y-17516674D02*
X7889110Y-17507150D01*
X7889110Y-17507150D02*
X7917682Y-17507150D01*
X7917682Y-17507150D02*
X7936730Y-17516674D01*
X7936730Y-17516674D02*
X7946253Y-17526198D01*
X7946253Y-17526198D02*
X7955777Y-17545246D01*
X7955777Y-17545246D02*
X7955777Y-17602389D01*
X7955777Y-17602389D02*
X7946253Y-17621436D01*
X7946253Y-17621436D02*
X7936730Y-17630960D01*
X7936730Y-17630960D02*
X7917682Y-17640484D01*
X7917682Y-17640484D02*
X7889110Y-17640484D01*
X8070063Y-17640484D02*
X8051015Y-17630960D01*
X8051015Y-17630960D02*
X8041491Y-17611912D01*
X8041491Y-17611912D02*
X8041491Y-17440484D01*
X8222444Y-17630960D02*
X8203396Y-17640484D01*
X8203396Y-17640484D02*
X8165301Y-17640484D01*
X8165301Y-17640484D02*
X8146253Y-17630960D01*
X8146253Y-17630960D02*
X8136730Y-17611912D01*
X8136730Y-17611912D02*
X8136730Y-17535722D01*
X8136730Y-17535722D02*
X8146253Y-17516674D01*
X8146253Y-17516674D02*
X8165301Y-17507150D01*
X8165301Y-17507150D02*
X8203396Y-17507150D01*
X8203396Y-17507150D02*
X8222444Y-17516674D01*
X8222444Y-17516674D02*
X8231968Y-17535722D01*
X8231968Y-17535722D02*
X8231968Y-17554770D01*
X8231968Y-17554770D02*
X8136730Y-17573817D01*
X8308158Y-17630960D02*
X8327206Y-17640484D01*
X8327206Y-17640484D02*
X8365301Y-17640484D01*
X8365301Y-17640484D02*
X8384349Y-17630960D01*
X8384349Y-17630960D02*
X8393873Y-17611912D01*
X8393873Y-17611912D02*
X8393873Y-17602389D01*
X8393873Y-17602389D02*
X8384349Y-17583341D01*
X8384349Y-17583341D02*
X8365301Y-17573817D01*
X8365301Y-17573817D02*
X8336730Y-17573817D01*
X8336730Y-17573817D02*
X8317682Y-17564293D01*
X8317682Y-17564293D02*
X8308158Y-17545246D01*
X8308158Y-17545246D02*
X8308158Y-17535722D01*
X8308158Y-17535722D02*
X8317682Y-17516674D01*
X8317682Y-17516674D02*
X8336730Y-17507150D01*
X8336730Y-17507150D02*
X8365301Y-17507150D01*
X8365301Y-17507150D02*
X8384349Y-17516674D01*
X8460539Y-17716674D02*
X8470063Y-17707150D01*
X8470063Y-17707150D02*
X8489111Y-17678579D01*
X8489111Y-17678579D02*
X8498634Y-17659531D01*
X8498634Y-17659531D02*
X8508158Y-17630960D01*
X8508158Y-17630960D02*
X8517682Y-17583341D01*
X8517682Y-17583341D02*
X8517682Y-17545246D01*
X8517682Y-17545246D02*
X8508158Y-17497627D01*
X8508158Y-17497627D02*
X8498634Y-17469055D01*
X8498634Y-17469055D02*
X8489111Y-17450008D01*
X8489111Y-17450008D02*
X8470063Y-17421436D01*
X8470063Y-17421436D02*
X8460539Y-17411912D01*
M02*
