%TF.GenerationSoftware,KiCad,Pcbnew,8.0.0*%
%TF.CreationDate,2024-08-21T17:37:20-06:00*%
%TF.ProjectId,logic_noise_playground,6c6f6769-635f-46e6-9f69-73655f706c61,rev?*%
%TF.SameCoordinates,Original*%
%TF.FileFunction,Legend,Bot*%
%TF.FilePolarity,Positive*%
%FSLAX46Y46*%
G04 Gerber Fmt 4.6, Leading zero omitted, Abs format (unit mm)*
G04 Created by KiCad (PCBNEW 8.0.0) date 2024-08-21 17:37:20*
%MOMM*%
%LPD*%
G01*
G04 APERTURE LIST*
%ADD10C,2.032000*%
%TA.AperFunction,Profile*%
%ADD11C,0.100000*%
%TD*%
%TA.AperFunction,Profile*%
%ADD12C,0.010000*%
%TD*%
G04 APERTURE END LIST*
D10*
%TO.C,R3*%
X201930000Y-137160000D03*
X212090000Y-137160000D03*
%TD*%
%TO.C,R4*%
X212090000Y-134620000D03*
X201930000Y-134620000D03*
%TD*%
%TO.C,R5*%
X99060000Y-113030000D03*
X88900000Y-113030000D03*
%TD*%
%TO.C,R6*%
X88900000Y-53340000D03*
X88900000Y-63500000D03*
%TD*%
%TO.C,R7*%
X110490000Y-85090000D03*
X100330000Y-85090000D03*
%TD*%
%TO.C,R8*%
X146050000Y-109220000D03*
X135890000Y-109220000D03*
%TD*%
%TO.C,R9*%
X146050000Y-106680000D03*
X135890000Y-106680000D03*
%TD*%
%TO.C,R14*%
X208280000Y-60960000D03*
X198120000Y-60960000D03*
%TD*%
%TO.C,R15*%
X208280000Y-66040000D03*
X198120000Y-66040000D03*
%TD*%
%TO.C,R16*%
X208280000Y-71120000D03*
X198120000Y-71120000D03*
%TD*%
%TO.C,R17*%
X220980000Y-73660000D03*
X231140000Y-73660000D03*
%TD*%
%TO.C,R18*%
X220980000Y-68580000D03*
X231140000Y-68580000D03*
%TD*%
%TO.C,R19*%
X220980000Y-63500000D03*
X231140000Y-63500000D03*
%TD*%
%TO.C,R20*%
X182245000Y-79375000D03*
X172085000Y-79375000D03*
%TD*%
%TO.C,R21*%
X172085000Y-81915000D03*
X182245000Y-81915000D03*
%TD*%
%TO.C,R11*%
X102870000Y-144780000D03*
X92710000Y-144780000D03*
%TD*%
%TO.C,R13*%
X129540000Y-68580000D03*
X129540000Y-58420000D03*
%TD*%
%TO.C,R22*%
X142240000Y-53340000D03*
X132080000Y-53340000D03*
%TD*%
%TO.C,R23*%
X167005000Y-59055000D03*
X177165000Y-59055000D03*
%TD*%
%TO.C,R24*%
X184785000Y-55245000D03*
X174625000Y-55245000D03*
%TD*%
%TO.C,R10*%
X215900000Y-83820000D03*
X215900000Y-93980000D03*
%TD*%
%TO.C,R1*%
X105410000Y-113030000D03*
X115570000Y-113030000D03*
%TD*%
%TO.C,R2*%
X105410000Y-110490000D03*
X115570000Y-110490000D03*
%TD*%
%TO.C,R12*%
X99060000Y-110490000D03*
X88900000Y-110490000D03*
%TD*%
%TO.C,R25*%
X124460000Y-85090000D03*
X114300000Y-85090000D03*
%TD*%
%TO.C,R26*%
X114300000Y-53340000D03*
X124460000Y-53340000D03*
%TD*%
%TO.C,R27*%
X146050000Y-111760000D03*
X135890000Y-111760000D03*
%TD*%
%TO.C,R28*%
X157480000Y-134620000D03*
X157480000Y-144780000D03*
%TD*%
%TO.C,R29*%
X210820000Y-100330000D03*
X210820000Y-110490000D03*
%TD*%
%TO.C,R30*%
X213360000Y-110490000D03*
X213360000Y-100330000D03*
%TD*%
D11*
X35000000Y-50000000D02*
X35000000Y-150000000D01*
X235000000Y-50000000D02*
X35000000Y-50000000D01*
X235040000Y-141390000D02*
X235000000Y-150000000D01*
X35000000Y-150000000D02*
X235000000Y-150000000D01*
X235040000Y-129390000D02*
X235000000Y-50000000D01*
D12*
%TO.C,J2*%
X233840000Y-133390000D02*
X235040000Y-133390000D01*
X233840000Y-137390000D02*
X233840000Y-133390000D01*
D11*
X235040000Y-133390000D02*
X235040000Y-129390000D01*
D12*
X235040000Y-137390000D02*
X233840000Y-137390000D01*
D11*
X235040000Y-141390000D02*
X235040000Y-137390000D01*
%TD*%
M02*
