M48
; DRILL file {KiCad 8.0.0} date 2024-08-21T17:37:23-0600
; FORMAT={-:-/ absolute / inch / decimal}
; #@! TF.CreationDate,2024-08-21T17:37:23-06:00
; #@! TF.GenerationSoftware,Kicad,Pcbnew,8.0.0
; #@! TF.FileFunction,Plated,1,2,PTH
FMAT,2
INCH
; #@! TA.AperFunction,Plated,PTH,ViaDrill
T1C0.0157
; #@! TA.AperFunction,Plated,PTH,ComponentDrill
T2C0.0315
; #@! TA.AperFunction,Plated,PTH,ComponentDrill
T3C0.0320
; #@! TA.AperFunction,Plated,PTH,ComponentDrill
T4C0.0400
; #@! TA.AperFunction,Plated,PTH,ComponentDrill
T5C0.0430
; #@! TA.AperFunction,Plated,PTH,ComponentDrill
T6C0.0472
; #@! TA.AperFunction,Plated,PTH,ComponentDrill
T7C0.1200
; #@! TA.AperFunction,Plated,PTH,ComponentDrill
T8C0.1307
%
G90
G05
T1
X5.5Y-4.6
X6.15Y-4.0
X6.25Y-3.7
T3
X1.7Y-3.9
X1.7Y-4.0
X1.95Y-3.9
X1.95Y-4.0
X2.2Y-3.8
X2.2Y-4.1
X2.3Y-3.8
X2.3Y-4.1
X2.3Y-4.2
X2.3Y-4.3
X2.3Y-4.4
X2.4Y-3.5
X2.4Y-3.6
X2.4Y-3.7
X2.4Y-3.8
X2.4Y-4.1
X2.5Y-3.8
X2.5Y-4.1
X2.5Y-4.2
X2.5Y-4.3
X2.5Y-4.4
X2.6Y-2.9
X2.6Y-3.0
X2.6Y-3.1
X2.6Y-3.5
X2.6Y-3.6
X2.6Y-3.7
X2.6Y-3.8
X2.6Y-4.1
X2.6Y-4.8
X2.6Y-4.9
X2.6Y-5.0
X2.7Y-3.8
X2.7Y-4.1
X2.7Y-4.2
X2.7Y-4.3
X2.7Y-4.4
X2.8Y-3.5
X2.8Y-3.6
X2.8Y-3.7
X2.8Y-3.8
X2.8Y-4.1
X3.0Y-2.9
X3.0Y-3.0
X3.0Y-3.1
X3.0Y-4.8
X3.0Y-4.9
X3.0Y-5.0
X3.5Y-2.1
X3.5Y-2.5
X3.5Y-4.35
X3.5Y-4.45
X3.65Y-5.7
X3.7Y-2.6
X3.7Y-2.7
X3.75Y-5.1
X3.75Y-5.2
X3.9Y-2.5
X3.9Y-2.8
X3.9Y-3.6
X3.9Y-3.9
X3.9Y-4.35
X3.9Y-4.45
X3.95Y-3.35
X3.95Y-5.0
X3.95Y-5.3
X4.0Y-2.5
X4.0Y-2.8
X4.0Y-3.6
X4.0Y-3.9
X4.05Y-5.0
X4.05Y-5.3
X4.05Y-5.7
X4.1Y-2.5
X4.1Y-2.8
X4.1Y-3.6
X4.1Y-3.9
X4.15Y-4.35
X4.15Y-4.45
X4.15Y-5.0
X4.15Y-5.3
X4.2Y-2.5
X4.2Y-2.8
X4.2Y-3.6
X4.2Y-3.9
X4.25Y-5.0
X4.25Y-5.3
X4.3Y-2.5
X4.3Y-2.8
X4.3Y-3.6
X4.3Y-3.9
X4.35Y-3.35
X4.35Y-5.0
X4.35Y-5.3
X4.4Y-2.5
X4.4Y-2.8
X4.4Y-3.6
X4.4Y-3.9
X4.45Y-5.0
X4.45Y-5.3
X4.5Y-2.1
X4.5Y-2.5
X4.5Y-2.8
X4.5Y-3.35
X4.5Y-3.6
X4.5Y-3.9
X4.55Y-4.35
X4.55Y-4.45
X4.55Y-5.0
X4.55Y-5.3
X4.6Y-2.5
X4.6Y-2.8
X4.6Y-3.6
X4.6Y-3.9
X4.65Y-5.0
X4.65Y-5.3
X4.8Y-3.6
X4.9Y-2.1
X4.9Y-3.35
X4.9Y-3.6
X5.1Y-2.3
X5.1Y-2.7
X5.2Y-2.1
X5.3Y-5.3
X5.3Y-5.4
X5.3Y-5.5
X5.3Y-5.6
X5.35Y-4.2
X5.35Y-4.3
X5.35Y-4.4
X5.4Y-2.3
X5.4Y-2.6
X5.4Y-2.8
X5.4Y-3.1
X5.45Y-3.8
X5.45Y-3.9
X5.5Y-4.75
X5.5Y-5.1
X5.6Y-2.1
X5.6Y-2.3
X5.6Y-2.6
X5.6Y-2.8
X5.6Y-3.1
X5.6Y-4.75
X5.6Y-5.1
X5.65Y-3.7
X5.65Y-4.0
X5.7Y-4.75
X5.7Y-5.1
X5.7Y-5.3
X5.7Y-5.4
X5.7Y-5.5
X5.7Y-5.6
X5.75Y-3.7
X5.75Y-4.0
X5.75Y-4.2
X5.75Y-4.3
X5.75Y-4.4
X5.8Y-4.75
X5.8Y-5.1
X5.85Y-3.7
X5.85Y-4.0
X5.9Y-4.75
X5.9Y-5.1
X5.95Y-3.7
X5.95Y-4.0
X6.0Y-4.75
X6.0Y-5.1
X6.05Y-3.7
X6.05Y-4.0
X6.1Y-4.75
X6.1Y-5.1
X6.15Y-3.7
X6.15Y-4.0
X6.2Y-4.75
X6.2Y-5.1
X6.2Y-5.3
X6.2Y-5.7
X6.25Y-3.7
X6.25Y-4.0
X6.3Y-4.75
X6.3Y-5.1
X6.35Y-3.7
X6.35Y-4.0
X6.575Y-2.325
X6.575Y-2.425
X6.575Y-2.525
X6.65Y-4.95
X6.65Y-5.05
X6.65Y-5.2
X6.725Y-2.675
X6.725Y-2.775
X6.75Y-5.2
X6.775Y-2.925
X6.775Y-3.025
X6.775Y-3.125
X6.775Y-3.225
X6.85Y-3.8
X6.85Y-4.1
X6.875Y-2.175
X6.9Y-5.2
X6.95Y-3.8
X6.95Y-4.1
X6.975Y-2.325
X6.975Y-2.425
X6.975Y-2.525
X7.0Y-5.2
X7.025Y-2.675
X7.025Y-2.775
X7.05Y-3.8
X7.05Y-4.1
X7.05Y-4.65
X7.05Y-4.75
X7.05Y-4.95
X7.05Y-5.05
X7.15Y-3.8
X7.15Y-4.1
X7.15Y-5.1
X7.175Y-2.925
X7.175Y-3.025
X7.175Y-3.125
X7.175Y-3.225
X7.25Y-3.8
X7.25Y-4.1
X7.25Y-4.55
X7.25Y-4.85
X7.25Y-5.1
X7.275Y-2.175
X7.275Y-2.325
X7.275Y-2.425
X7.35Y-3.8
X7.35Y-4.1
X7.35Y-4.55
X7.35Y-4.85
X7.375Y-2.9
X7.45Y-3.8
X7.45Y-4.1
X7.45Y-4.55
X7.45Y-4.85
X7.475Y-2.8
X7.475Y-2.9
X7.55Y-4.55
X7.55Y-4.85
X7.65Y-3.9
X7.65Y-4.0
X7.65Y-4.55
X7.65Y-4.85
X7.75Y-4.55
X7.75Y-4.85
X7.8Y-2.4
X7.8Y-2.6
X7.8Y-2.8
X7.85Y-4.55
X7.85Y-4.85
X7.95Y-2.3
X7.95Y-2.5
X7.95Y-2.7
X7.95Y-5.3
X7.95Y-5.4
X8.0Y-3.3
X8.0Y-3.4
X8.0Y-3.5
X8.0Y-3.6
X8.05Y-2.3
X8.05Y-2.5
X8.05Y-2.7
X8.05Y-4.0
X8.05Y-4.25
X8.1Y-5.2
X8.1Y-5.55
X8.1Y-5.65
X8.15Y-4.0
X8.15Y-4.25
X8.2Y-2.4
X8.2Y-2.6
X8.2Y-2.8
X8.2Y-5.2
X8.2Y-5.55
X8.2Y-5.65
X8.3Y-2.3
X8.3Y-2.4
X8.3Y-2.5
X8.3Y-2.6
X8.3Y-2.7
X8.3Y-2.8
X8.3Y-2.9
X8.3Y-3.95
X8.3Y-4.35
X8.35Y-5.3
X8.35Y-5.4
X8.4Y-2.1
X8.4Y-3.3
X8.4Y-3.4
X8.4Y-3.5
X8.4Y-3.6
X8.4Y-3.95
X8.4Y-4.35
X8.5Y-2.1
X8.5Y-3.3
X8.5Y-3.7
X8.5Y-5.2
X8.5Y-5.5
X8.6Y-2.3
X8.6Y-2.4
X8.6Y-2.5
X8.6Y-2.6
X8.6Y-2.7
X8.6Y-2.8
X8.6Y-2.9
X8.6Y-5.2
X8.6Y-5.5
X8.7Y-2.5
X8.7Y-2.7
X8.7Y-2.9
X8.85Y-2.4
X8.85Y-2.6
X8.85Y-2.8
X8.95Y-2.4
X8.95Y-2.6
X8.95Y-2.8
X9.1Y-2.5
X9.1Y-2.7
X9.1Y-2.9
T4
X3.85Y-4.7
X3.85Y-4.8
X3.95Y-4.7
X3.95Y-4.8
X4.05Y-4.7
X4.05Y-4.8
X4.15Y-4.7
X4.15Y-4.8
X4.25Y-4.7
X4.25Y-4.8
X4.3Y-4.05
X4.3Y-4.15
X4.35Y-4.7
X4.35Y-4.8
X4.4Y-4.05
X4.4Y-4.15
X4.45Y-4.7
X4.45Y-4.8
X4.5Y-4.05
X4.5Y-4.15
X4.55Y-4.7
X4.55Y-4.8
X4.6Y-4.05
X4.6Y-4.15
X4.65Y-4.7
X4.65Y-4.8
X4.7Y-4.05
X4.7Y-4.15
X4.75Y-4.7
X4.75Y-4.8
X4.8Y-4.05
X4.8Y-4.15
X4.85Y-4.7
X4.85Y-4.8
X4.9Y-4.05
X4.9Y-4.15
X4.95Y-4.7
X4.95Y-4.8
X5.0Y-4.05
X5.0Y-4.15
X6.35Y-3.4
X8.2Y-3.1
X8.3Y-3.1
X8.4Y-3.1
X8.5Y-3.1
X8.6Y-3.1
X8.7Y-3.1
T5
X2.4Y-2.9
X2.4Y-3.0
X2.4Y-3.1
X2.4Y-4.8
X2.4Y-4.9
X2.4Y-5.0
X2.5Y-2.9
X2.5Y-3.0
X2.5Y-3.1
X2.5Y-4.8
X2.5Y-4.9
X2.5Y-5.0
X3.1Y-2.9
X3.1Y-3.0
X3.1Y-3.1
X3.1Y-3.7
X3.1Y-3.8
X3.1Y-3.9
X3.1Y-4.0
X3.1Y-4.1
X3.1Y-4.2
X3.1Y-4.8
X3.1Y-4.9
X3.1Y-5.0
X3.2Y-2.9
X3.2Y-3.0
X3.2Y-3.1
X3.2Y-3.7
X3.2Y-3.8
X3.2Y-3.9
X3.2Y-4.0
X3.2Y-4.1
X3.2Y-4.2
X3.2Y-4.8
X3.2Y-4.9
X3.2Y-5.0
X3.45Y-3.35
X3.55Y-3.35
X3.65Y-3.35
X3.65Y-4.05
X3.75Y-3.35
X3.75Y-4.05
X3.85Y-4.05
X3.9Y-2.2
X3.9Y-2.3
X3.9Y-3.0
X3.9Y-3.1
X3.95Y-4.05
X4.0Y-2.2
X4.0Y-2.3
X4.0Y-3.0
X4.0Y-3.1
X4.05Y-4.05
X4.05Y-5.5
X4.1Y-2.2
X4.1Y-2.3
X4.1Y-3.0
X4.1Y-3.1
X4.15Y-5.5
X4.2Y-2.2
X4.2Y-2.3
X4.2Y-3.0
X4.2Y-3.1
X4.5Y-2.3
X4.5Y-3.0
X4.5Y-5.7
X4.6Y-2.3
X4.6Y-3.0
X4.6Y-5.7
X4.7Y-2.3
X4.7Y-3.0
X4.7Y-5.7
X4.8Y-4.4
X4.8Y-5.7
X4.9Y-2.3
X4.9Y-2.4
X4.9Y-2.5
X4.9Y-2.9
X4.9Y-3.0
X4.9Y-3.1
X4.9Y-4.4
X5.0Y-4.4
X5.1Y-4.4
X5.2Y-3.3
X5.2Y-3.4
X5.2Y-3.5
X5.2Y-3.6
X5.2Y-5.3
X5.2Y-5.4
X5.2Y-5.5
X5.2Y-5.6
X5.45Y-3.4
X5.45Y-3.5
X5.5Y-4.6
X5.5Y-4.95
X5.55Y-3.4
X5.55Y-3.5
X5.6Y-4.6
X5.6Y-4.95
X5.65Y-3.4
X5.65Y-3.5
X5.7Y-4.6
X5.7Y-4.95
X5.75Y-3.4
X5.75Y-3.5
X5.8Y-4.6
X5.8Y-4.95
X5.85Y-3.4
X5.85Y-3.5
X5.9Y-4.6
X5.9Y-4.95
X5.9Y-5.3
X5.9Y-5.4
X5.95Y-3.1
X5.95Y-3.4
X5.95Y-3.5
X6.0Y-4.6
X6.0Y-4.95
X6.05Y-3.1
X6.05Y-3.4
X6.05Y-3.5
X6.05Y-4.2
X6.1Y-4.6
X6.1Y-4.95
X6.15Y-3.1
X6.15Y-3.4
X6.15Y-3.5
X6.15Y-4.2
X6.2Y-4.6
X6.2Y-4.95
X6.25Y-3.1
X6.25Y-3.4
X6.25Y-3.5
X6.25Y-4.2
X6.35Y-3.5
X6.55Y-4.65
X6.55Y-4.75
X6.65Y-4.65
X6.65Y-4.75
X6.85Y-4.2
X6.85Y-4.65
X6.85Y-4.75
X6.95Y-3.7
X6.95Y-4.2
X6.95Y-4.65
X6.95Y-4.75
X7.05Y-3.7
X7.05Y-4.3
X7.15Y-3.6
X7.15Y-4.3
X7.25Y-3.6
X7.25Y-4.2
X7.275Y-2.625
X7.275Y-2.725
X7.275Y-3.125
X7.275Y-3.225
X7.35Y-3.7
X7.35Y-4.2
X7.45Y-3.7
X7.65Y-5.15
X7.75Y-5.15
X7.85Y-4.05
X7.85Y-4.15
X7.9Y-3.3
X7.9Y-3.4
X7.9Y-3.5
X7.9Y-3.6
X8.3Y-3.7
X8.4Y-3.7
X8.75Y-3.35
X8.75Y-3.45
X8.75Y-3.55
X8.75Y-3.65
X9.01Y-3.44
X9.01Y-3.54
X9.01Y-3.64
T6
X1.9449Y-2.2094
X1.9449Y-2.3079
X1.9449Y-2.4063
X1.9449Y-3.2559
X1.9449Y-3.3543
X1.9449Y-3.4528
X1.9449Y-4.4413
X1.9449Y-4.5398
X1.9449Y-4.6382
X1.9449Y-5.4417
X1.9449Y-5.5402
X1.9449Y-5.6386
X3.098Y-2.1925
X3.098Y-2.2909
X3.098Y-2.3894
X3.1Y-5.4386
X3.1Y-5.537
X3.1Y-5.6354
X6.4028Y-2.5299
X6.4028Y-2.6283
X6.4028Y-2.7268
X6.7508Y-5.3181
X6.8492Y-5.3181
X6.9476Y-5.3181
X7.3272Y-5.4882
X7.3272Y-5.685
X7.524Y-5.4882
X7.524Y-5.685
X7.7209Y-5.4882
X7.7209Y-5.685
X8.6984Y-4.6516
X8.6984Y-4.75
X8.6984Y-4.8484
X8.6988Y-4.028
X8.6988Y-4.1264
X8.6988Y-4.2248
T7
X2.3622Y-2.1654
X2.3622Y-5.7087
X5.9055Y-2.1654
X5.9055Y-5.7087
X9.0551Y-2.1654
X9.0551Y-5.7087
T8
X1.6693Y-2.1346
X1.6693Y-2.4811
X1.6693Y-3.1811
X1.6693Y-3.5276
X1.6693Y-4.3665
X1.6693Y-4.713
X1.6693Y-5.3669
X1.6693Y-5.7134
X2.8224Y-2.1177
X2.8224Y-2.4642
X2.8244Y-5.3638
X2.8244Y-5.7102
X6.1272Y-2.4551
X6.1272Y-2.8016
X6.676Y-5.5937
X7.0224Y-5.5937
X8.974Y-4.5768
X8.974Y-4.9232
X8.9744Y-3.9531
X8.9744Y-4.2996
T2
G00X8.8933Y-5.1335
M15
G01X8.8657Y-5.1335
M16
G05
G00X8.8933Y-5.2319
M15
G01X8.8657Y-5.2319
M16
G05
G00X8.8933Y-5.5272
M15
G01X8.8657Y-5.5272
M16
G05
G00X9.0764Y-5.3441
M15
G01X9.0764Y-5.3165
M16
G05
M30
